<?xml version="1.0" standalone="no"?>
 <!DOCTYPE svg PUBLIC "-//W3C//DTD SVG 1.1//EN" 
 "http://www.w3.org/Graphics/SVG/1.1/DTD/svg11.dtd"> 
<svg
  xmlns:svg="http://www.w3.org/2000/svg"
  xmlns="http://www.w3.org/2000/svg"
  xmlns:xlink="http://www.w3.org/1999/xlink"
  version="1.1"
  width="41.998900cm" height="29.700220cm" viewBox="0 0 165350 116930">
<title>SVG Picture created as ume-Dwgs_User.svg date 2021/08/07 17:39:41 </title>
  <desc>Picture generated by PCBNEW </desc>
<g style="fill:#000000; fill-opacity:1;stroke:#000000; stroke-opacity:1;
stroke-linecap:round; stroke-linejoin:round;"
 transform="translate(0 0) scale(1 1)">
</g>
<g style="fill:#000000; fill-opacity:0.0; 
stroke:#000000; stroke-width:-0.000393701; stroke-opacity:1; 
stroke-linecap:round; stroke-linejoin:round;">
</g>
<g style="fill:#000000; fill-opacity:0.0; 
stroke:#000000; stroke-width:39.3701; stroke-opacity:1; 
stroke-linecap:round; stroke-linejoin:round;">
<path d="M134296 44498
L134296 51998
" />
<path d="M134296 51998
L145546 51998
" />
<path d="M145546 51998
L145546 44498
" />
<path d="M145546 44498
L134296 44498
" />
<path d="M55655 39594
L48378 37779
" />
<path d="M53841 46871
L55655 39594
" />
<path d="M46564 45056
L53841 46871
" />
<path d="M48378 37779
L46564 45056
" />
<path d="M31781 37391
L24281 37391
" />
<path d="M31781 44891
L31781 37391
" />
<path d="M24281 44891
L31781 44891
" />
<path d="M24281 37391
L24281 44891
" />
<path d="M111358 68853
L91346 73842
" />
<path d="M113173 76130
L111358 68853
" />
<path d="M93160 81120
L113173 76130
" />
<path d="M91346 73842
L93160 81120
" />
<path d="M102069 74222
L102450 75750
" />
<path d="M103023 74796
L101495 75177
" />
<path d="M132384 66998
L121134 66998
" />
<path d="M132384 74498
L132384 66998
" />
<path d="M121134 74498
L132384 74498
" />
<path d="M121134 66998
L121134 74498
" />
<path d="M143636 66998
L132386 66998
" />
<path d="M143636 74498
L143636 66998
" />
<path d="M132386 74498
L143636 74498
" />
<path d="M132386 66998
L132386 74498
" />
<path d="M139881 55748
L141456 55748
" />
<path d="M140669 56535
L140669 54960
" />
<path d="M149106 51998
L132231 51998
" />
<path d="M149106 59498
L149106 51998
" />
<path d="M132231 59498
L149106 59498
" />
<path d="M132231 51998
L132231 59498
" />
<path d="M140066 59498
L126941 59498
" />
<path d="M140066 66998
L140066 59498
" />
<path d="M126941 66998
L140066 66998
" />
<path d="M126941 59498
L126941 66998
" />
<path d="M40782 67391
L29532 67391
" />
<path d="M40782 74891
L40782 67391
" />
<path d="M29532 74891
L40782 74891
" />
<path d="M29532 67391
L29532 74891
" />
<path d="M29522 67391
L18272 67391
" />
<path d="M29522 74891
L29522 67391
" />
<path d="M18272 74891
L29522 74891
" />
<path d="M18272 67391
L18272 74891
" />
<path d="M135708 41535
L135708 39960
" />
<path d="M134921 40748
L136496 40748
" />
<path d="M143208 36998
L128208 36998
" />
<path d="M143208 44498
L143208 36998
" />
<path d="M128208 44498
L143208 44498
" />
<path d="M128208 36998
L128208 44498
" />
<path d="M59547 74566
L59166 76094
" />
<path d="M60121 75521
L58593 75140
" />
<path d="M67541 73506
L52987 69877
" />
<path d="M65727 80783
L67541 73506
" />
<path d="M51172 77154
L65727 80783
" />
<path d="M52987 69877
L51172 77154
" />
<path d="M25905 63641
L27480 63641
" />
<path d="M26692 64429
L26692 62854
" />
<path d="M35130 59891
L18255 59891
" />
<path d="M35130 67391
L35130 59891
" />
<path d="M18255 67391
L35130 67391
" />
<path d="M18255 59891
L18255 67391
" />
<path d="M33373 52391
L20248 52391
" />
<path d="M33373 59891
L33373 52391
" />
<path d="M20248 59891
L33373 59891
" />
<path d="M20248 52391
L20248 59891
" />
<path d="M33184 44891
L21934 44891
" />
<path d="M33184 52391
L33184 44891
" />
<path d="M21934 52391
L33184 52391
" />
<path d="M21934 44891
L21934 52391
" />
<path d="M39281 37391
L31781 37391
" />
<path d="M39281 44891
L39281 37391
" />
<path d="M31781 44891
L39281 44891
" />
<path d="M31781 37391
L31781 44891
" />
<path d="M40679 44891
L33179 44891
" />
<path d="M40679 52391
L40679 44891
" />
<path d="M33179 52391
L40679 52391
" />
<path d="M33179 44891
L33179 52391
" />
<path d="M40875 52391
L33375 52391
" />
<path d="M40875 59891
L40875 52391
" />
<path d="M33375 59891
L40875 59891
" />
<path d="M33375 52391
L33375 59891
" />
<path d="M42627 59891
L35127 59891
" />
<path d="M42627 67391
L42627 59891
" />
<path d="M35127 67391
L42627 67391
" />
<path d="M35127 59891
L35127 67391
" />
<path d="M46781 36525
L39281 36525
" />
<path d="M46781 44025
L46781 36525
" />
<path d="M39281 44025
L46781 44025
" />
<path d="M39281 36525
L39281 44025
" />
<path d="M50021 45918
L42744 44104
" />
<path d="M48206 53196
L50021 45918
" />
<path d="M40929 51381
L48206 53196
" />
<path d="M42744 44104
L40929 51381
" />
<path d="M50116 53672
L42839 51857
" />
<path d="M48302 60949
L50116 53672
" />
<path d="M41025 59135
L48302 60949
" />
<path d="M42839 51857
L41025 59135
" />
<path d="M52103 61897
L44826 60082
" />
<path d="M50289 69174
L52103 61897
" />
<path d="M43011 67359
L50289 69174
" />
<path d="M44826 60082
L43011 67359
" />
<path d="M52963 69841
L45685 68026
" />
<path d="M51148 77118
L52963 69841
" />
<path d="M43871 75303
L51148 77118
" />
<path d="M45685 68026
L43871 75303
" />
<path d="M57298 47733
L50021 45918
" />
<path d="M55484 55010
L57298 47733
" />
<path d="M48206 53196
L55484 55010
" />
<path d="M50021 45918
L48206 53196
" />
<path d="M57394 55486
L50116 53672
" />
<path d="M55579 62763
L57394 55486
" />
<path d="M48302 60949
L55579 62763
" />
<path d="M50116 53672
L48302 60949
" />
<path d="M59380 63711
L52103 61897
" />
<path d="M57566 70988
L59380 63711
" />
<path d="M50289 69174
L57566 70988
" />
<path d="M52103 61897
L50289 69174
" />
<path d="M62932 41408
L55655 39594
" />
<path d="M61118 48685
L62932 41408
" />
<path d="M53841 46871
L61118 48685
" />
<path d="M55655 39594
L53841 46871
" />
<path d="M64575 49547
L57298 47733
" />
<path d="M62761 56824
L64575 49547
" />
<path d="M55484 55010
L62761 56824
" />
<path d="M57298 47733
L55484 55010
" />
<path d="M64671 57301
L57394 55486
" />
<path d="M62856 64578
L64671 57301
" />
<path d="M55579 62763
L62856 64578
" />
<path d="M57394 55486
L55579 62763
" />
<path d="M66657 65525
L59380 63711
" />
<path d="M64843 72803
L66657 65525
" />
<path d="M57566 70988
L64843 72803
" />
<path d="M59380 63711
L57566 70988
" />
<path d="M74842 75318
L67565 73503
" />
<path d="M73028 82595
L74842 75318
" />
<path d="M65751 80781
L73028 82595
" />
<path d="M67565 73503
L65751 80781
" />
<path d="M70210 43222
L62932 41408
" />
<path d="M68395 50500
L70210 43222
" />
<path d="M61118 48685
L68395 50500
" />
<path d="M62932 41408
L61118 48685
" />
<path d="M71852 51362
L64575 49547
" />
<path d="M70038 58639
L71852 51362
" />
<path d="M62761 56824
L70038 58639
" />
<path d="M64575 49547
L62761 56824
" />
<path d="M71948 59115
L64671 57301
" />
<path d="M70134 66392
L71948 59115
" />
<path d="M62856 64578
L70134 66392
" />
<path d="M64671 57301
L62856 64578
" />
<path d="M73935 67340
L66657 65525
" />
<path d="M72120 74617
L73935 67340
" />
<path d="M64843 72803
L72120 74617
" />
<path d="M66657 65525
L64843 72803
" />
<path d="M77487 45037
L70210 43222
" />
<path d="M75673 52314
L77487 45037
" />
<path d="M68395 50500
L75673 52314
" />
<path d="M70210 43222
L68395 50500
" />
<path d="M79130 53176
L71852 51362
" />
<path d="M77315 60453
L79130 53176
" />
<path d="M70038 58639
L77315 60453
" />
<path d="M71852 51362
L70038 58639
" />
<path d="M89757 43320
L82480 45135
" />
<path d="M91572 50598
L89757 43320
" />
<path d="M84295 52412
L91572 50598
" />
<path d="M82480 45135
L84295 52412
" />
<path d="M88115 51460
L80838 53274
" />
<path d="M89929 58737
L88115 51460
" />
<path d="M82652 60551
L89929 58737
" />
<path d="M80838 53274
L82652 60551
" />
<path d="M95392 49645
L88115 51460
" />
<path d="M97206 56922
L95392 49645
" />
<path d="M89929 58737
L97206 56922
" />
<path d="M88115 51460
L89929 58737
" />
<path d="M91839 58261
L84562 60075
" />
<path d="M93654 65538
L91839 58261
" />
<path d="M86376 67352
L93654 65538
" />
<path d="M84562 60075
L86376 67352
" />
<path d="M88286 66876
L81009 68690
" />
<path d="M90101 74153
L88286 66876
" />
<path d="M82824 75968
L90101 74153
" />
<path d="M81009 68690
L82824 75968
" />
<path d="M97035 41506
L89757 43320
" />
<path d="M98849 48783
L97035 41506
" />
<path d="M91572 50598
L98849 48783
" />
<path d="M89757 43320
L91572 50598
" />
<path d="M102669 47831
L95392 49645
" />
<path d="M104484 55108
L102669 47831
" />
<path d="M97206 56922
L104484 55108
" />
<path d="M95392 49645
L97206 56922
" />
<path d="M99116 56446
L91839 58261
" />
<path d="M100931 63723
L99116 56446
" />
<path d="M93654 65538
L100931 63723
" />
<path d="M91839 58261
L93654 65538
" />
<path d="M95564 65062
L88286 66876
" />
<path d="M97378 72339
L95564 65062
" />
<path d="M90101 74153
L97378 72339
" />
<path d="M88286 66876
L90101 74153
" />
<path d="M91348 73842
L84070 75656
" />
<path d="M93162 81119
L91348 73842
" />
<path d="M85885 82934
L93162 81119
" />
<path d="M84070 75656
L85885 82934
" />
<path d="M104312 39692
L97035 41506
" />
<path d="M106126 46969
L104312 39692
" />
<path d="M98849 48783
L106126 46969
" />
<path d="M97035 41506
L98849 48783
" />
<path d="M109946 46016
L102669 47831
" />
<path d="M111761 53294
L109946 46016
" />
<path d="M104484 55108
L111761 53294
" />
<path d="M102669 47831
L104484 55108
" />
<path d="M106394 54632
L99116 56446
" />
<path d="M108208 61909
L106394 54632
" />
<path d="M100931 63723
L108208 61909
" />
<path d="M99116 56446
L100931 63723
" />
<path d="M102841 63247
L95564 65062
" />
<path d="M104655 70524
L102841 63247
" />
<path d="M97378 72339
L104655 70524
" />
<path d="M95564 65062
L97378 72339
" />
<path d="M111589 37877
L104312 39692
" />
<path d="M113404 45154
L111589 37877
" />
<path d="M106126 46969
L113404 45154
" />
<path d="M104312 39692
L106126 46969
" />
<path d="M117224 44202
L109946 46016
" />
<path d="M119038 51479
L117224 44202
" />
<path d="M111761 53294
L119038 51479
" />
<path d="M109946 46016
L111761 53294
" />
<path d="M113671 52817
L106394 54632
" />
<path d="M115485 60095
L113671 52817
" />
<path d="M108208 61909
L115485 60095
" />
<path d="M106394 54632
L108208 61909
" />
<path d="M110118 61433
L102841 63247
" />
<path d="M111932 68710
L110118 61433
" />
<path d="M104655 70524
L111932 68710
" />
<path d="M102841 63247
L104655 70524
" />
<path d="M120678 36618
L113178 36618
" />
<path d="M120678 44118
L120678 36618
" />
<path d="M113178 44118
L120678 44118
" />
<path d="M113178 36618
L113178 44118
" />
<path d="M126801 44498
L119301 44498
" />
<path d="M126801 51998
L126801 44498
" />
<path d="M119301 51998
L126801 51998
" />
<path d="M119301 44498
L119301 51998
" />
<path d="M124734 51998
L117234 51998
" />
<path d="M124734 59498
L124734 51998
" />
<path d="M117234 59498
L124734 59498
" />
<path d="M117234 51998
L117234 59498
" />
<path d="M117395 59618
L110118 61433
" />
<path d="M119210 66896
L117395 59618
" />
<path d="M111932 68710
L119210 66896
" />
<path d="M110118 61433
L111932 68710
" />
<path d="M118646 67064
L111368 68879
" />
<path d="M120460 74342
L118646 67064
" />
<path d="M113183 76156
L120460 74342
" />
<path d="M111368 68879
L113183 76156
" />
<path d="M128198 36998
L120698 36998
" />
<path d="M128198 44498
L128198 36998
" />
<path d="M120698 44498
L128198 44498
" />
<path d="M120698 36998
L120698 44498
" />
<path d="M134301 44498
L126801 44498
" />
<path d="M134301 51998
L134301 44498
" />
<path d="M126801 51998
L134301 51998
" />
<path d="M126801 44498
L126801 51998
" />
<path d="M132234 51998
L124734 51998
" />
<path d="M132234 59498
L132234 51998
" />
<path d="M124734 59498
L132234 59498
" />
<path d="M124734 51998
L124734 59498
" />
<path d="M126938 59498
L119438 59498
" />
<path d="M126938 66998
L126938 59498
" />
<path d="M119438 66998
L126938 66998
" />
<path d="M119438 59498
L119438 66998
" />
<g >
</g>
<g >
</g>
<g >
</g>
<g >
</g>
<g >
</g>
<g >
</g>
<g >
</g>
<g >
</g>
<g >
</g>
<g >
</g>
<g >
</g>
<g >
</g>
<g >
</g>
<g >
</g>
<g >
</g>
<g >
</g>
<g >
</g>
<g >
</g>
<g >
</g>
<g >
</g>
<g >
</g>
<g >
</g>
<g >
</g>
<g >
</g>
<g >
</g>
<g >
</g>
<g >
</g>
<g >
</g>
<g >
</g>
<g >
</g>
<g >
</g>
<g >
</g>
<g >
</g>
<g >
</g>
<g >
</g>
<g >
</g>
<g >
</g>
<g >
</g>
<g >
</g>
<g >
</g>
<g >
</g>
<g >
</g>
<g >
</g>
<g >
</g>
<g >
</g>
<g >
</g>
<g >
</g>
<g >
</g>
<g >
</g>
<g >
</g>
<g >
</g>
<g >
</g>
<g >
</g>
<g >
</g>
<g >
</g>
<g >
</g>
<g >
</g>
<g >
</g>
<g >
</g>
<g >
</g>
<g >
</g>
<g >
</g>
<g >
</g>
<g >
</g>
<g >
</g>
<g >
</g>
<g >
</g>
<g >
</g>
<g >
</g>
<g >
</g>
<g >
</g>
<g >
</g>
<g >
</g>
<g >
</g>
<g >
</g>
<g >
</g>
<g >
</g>
<g >
</g>
<g >
</g>
<g >
</g>
<g >
</g>
<g >
</g>
<g >
</g>
<g >
</g>
<g >
</g>
<g >
</g>
<g >
</g>
<g >
</g>
<g >
</g>
<g >
</g>
<g >
</g>
<g >
</g>
<g >
</g>
<g >
</g>
<g >
</g>
<g >
</g>
<g >
</g>
<g >
</g>
<g >
</g>
<g >
</g>
<g >
</g>
<g >
</g>
<g >
</g>
<g >
</g>
<g >
</g>
<g >
</g>
<g >
</g>
<g >
</g>
<g >
</g>
<g >
</g>
<g >
</g>
<g >
</g>
<g >
</g>
<g >
</g>
<g >
</g>
<g >
</g>
<g >
</g>
<g >
</g>
<g >
</g>
<g >
</g>
<g >
</g>
<g >
</g>
<g >
</g>
<g >
</g>
<g >
</g>
<g >
</g>
<g >
</g>
<g >
</g>
<g >
</g>
<g >
</g>
<g >
</g>
<g >
</g>
<g >
</g>
<g >
</g>
<g >
</g>
<g >
</g>
<g >
</g>
<g >
</g>
</g> 
</svg>
