<?xml version="1.0" standalone="no"?>
 <!DOCTYPE svg PUBLIC "-//W3C//DTD SVG 1.1//EN" 
 "http://www.w3.org/Graphics/SVG/1.1/DTD/svg11.dtd"> 
<svg
  xmlns:svg="http://www.w3.org/2000/svg"
  xmlns="http://www.w3.org/2000/svg"
  xmlns:xlink="http://www.w3.org/1999/xlink"
  version="1.1"
  width="41.998900cm" height="29.700220cm" viewBox="0 0 165350 116930">
<title>SVG Picture created as ume-Edge_Cuts.svg date 2021/08/07 17:39:41 </title>
  <desc>Picture generated by PCBNEW </desc>
<g style="fill:#000000; fill-opacity:1;stroke:#000000; stroke-opacity:1;
stroke-linecap:round; stroke-linejoin:round;"
 transform="translate(0 0) scale(1 1)">
</g>
<g style="fill:#000000; fill-opacity:0.0; 
stroke:#000000; stroke-width:-0.000393701; stroke-opacity:1; 
stroke-linecap:round; stroke-linejoin:round;">
</g>
<g style="fill:#000000; fill-opacity:0.0; 
stroke:#000000; stroke-width:19.685; stroke-opacity:1; 
stroke-linecap:round; stroke-linejoin:round;">
<path d="M154094 49330
L150433 60236
" />
<path d="M81417 55669
L82637 60551
" />
<path d="M78543 55629
L81417 55669
" />
<path d="M77322 60472
L78543 55629
" />
<path d="M81338 55275
L80826 53267
" />
<path d="M78622 55236
L81338 55275
" />
<path d="M79133 53188
L78622 55236
" />
<path d="M77519 44921
L75669 52322
" />
<path d="M48425 37677
L77519 44921
" />
<path d="M47007 36377
L48425 37677
" />
<path d="M39291 36377
L47007 36377
" />
<path d="M38110 37322
L39291 36377
" />
<path d="M21771 37322
L38110 37322
" />
<path d="M14094 37322
L21771 37322
" />
<path d="M14094 37401
L14094 37322
" />
<path d="M14094 49330
L14094 37401
" />
<path d="M15236 59960
L14094 49330
" />
<path d="M18267 74881
L15236 59960
" />
<path d="M42047 74881
L18267 74881
" />
<path d="M73031 82598
L42047 74881
" />
<path d="M74842 75314
L73031 82598
" />
<path d="M85866 82952
L84055 75708
" />
<path d="M119685 74527
L85866 82952
" />
<path d="M143622 74527
L119685 74527
" />
<path d="M150433 60236
L143622 74527
" />
<path d="M72795 74803
L74842 75314
" />
<path d="M74566 67519
L72795 74803
" />
<path d="M73937 67362
L74566 67519
" />
<path d="M70118 66417
L73937 67362
" />
<path d="M71968 59133
L70118 66417
" />
<path d="M77322 60472
L71968 59133
" />
<path d="M75669 52322
L79133 53188
" />
<path d="M121417 36929
L121181 36732
" />
<path d="M143031 36929
L121417 36929
" />
<path d="M120669 36338
L121181 36732
" />
<path d="M113188 36338
L120669 36338
" />
<path d="M111259 37716
L113188 36338
" />
<path d="M82401 44881
L111259 37716
" />
<path d="M84291 52401
L82401 44881
" />
<path d="M80826 53267
L84291 52401
" />
<path d="M84566 60078
L82637 60551
" />
<path d="M86377 67362
L84566 60078
" />
<path d="M81023 68700
L86377 67362
" />
<path d="M82834 75984
L81023 68700
" />
<path d="M84094 75669
L82834 75984
" />
<path d="M154094 36929
L154094 49330
" />
<path d="M151496 36929
L154094 36929
" />
<path d="M143031 36929
L151496 36929
" />
<g >
</g>
<g >
</g>
<g >
</g>
<g >
</g>
<g >
</g>
<g >
</g>
<g >
</g>
<g >
</g>
<g >
</g>
<g >
</g>
<g >
</g>
<g >
</g>
<g >
</g>
<g >
</g>
<g >
</g>
<g >
</g>
<g >
</g>
<g >
</g>
<g >
</g>
<g >
</g>
<g >
</g>
<g >
</g>
<g >
</g>
<g >
</g>
<g >
</g>
<g >
</g>
<g >
</g>
<g >
</g>
<g >
</g>
<g >
</g>
<g >
</g>
<g >
</g>
<g >
</g>
<g >
</g>
<g >
</g>
<g >
</g>
<g >
</g>
<g >
</g>
<g >
</g>
<g >
</g>
<g >
</g>
<g >
</g>
<g >
</g>
<g >
</g>
<g >
</g>
<g >
</g>
<g >
</g>
<g >
</g>
<g >
</g>
<g >
</g>
<g >
</g>
<g >
</g>
<g >
</g>
<g >
</g>
<g >
</g>
<g >
</g>
<g >
</g>
<g >
</g>
<g >
</g>
<g >
</g>
<g >
</g>
<g >
</g>
<g >
</g>
<g >
</g>
<g >
</g>
<g >
</g>
<g >
</g>
<g >
</g>
<g >
</g>
<g >
</g>
<g >
</g>
<g >
</g>
<g >
</g>
<g >
</g>
<g >
</g>
<g >
</g>
<g >
</g>
<g >
</g>
<g >
</g>
<g >
</g>
<g >
</g>
<g >
</g>
<g >
</g>
<g >
</g>
<g >
</g>
<g >
</g>
<g >
</g>
<g >
</g>
<g >
</g>
<g >
</g>
<g >
</g>
<g >
</g>
<g >
</g>
<g >
</g>
<g >
</g>
<g >
</g>
<g >
</g>
<g >
</g>
<g >
</g>
<g >
</g>
<g >
</g>
<g >
</g>
<g >
</g>
<g >
</g>
<g >
</g>
<g >
</g>
<g >
</g>
<g >
</g>
<g >
</g>
<g >
</g>
<g >
</g>
<g >
</g>
<g >
</g>
<g >
</g>
<g >
</g>
<g >
</g>
<g >
</g>
<g >
</g>
<g >
</g>
<g >
</g>
<g >
</g>
<g >
</g>
<g >
</g>
<g >
</g>
<g >
</g>
<g >
</g>
<g >
</g>
<g >
</g>
<g >
</g>
<g >
</g>
<g >
</g>
<g >
</g>
<g >
</g>
<g >
</g>
<g >
</g>
<g >
</g>
<g >
</g>
<g >
</g>
</g> 
</svg>
