%TF.GenerationSoftware,KiCad,Pcbnew,(5.1.7)-1*%
%TF.CreationDate,2021-08-08T11:48:14+10:00*%
%TF.ProjectId,ume,756d652e-6b69-4636-9164-5f7063625858,rev?*%
%TF.SameCoordinates,Original*%
%TF.FileFunction,Copper,L1,Top*%
%TF.FilePolarity,Positive*%
%FSLAX46Y46*%
G04 Gerber Fmt 4.6, Leading zero omitted, Abs format (unit mm)*
G04 Created by KiCad (PCBNEW (5.1.7)-1) date 2021-08-08 11:48:14*
%MOMM*%
%LPD*%
G01*
G04 APERTURE LIST*
%TA.AperFunction,ComponentPad*%
%ADD10C,1.600000*%
%TD*%
%TA.AperFunction,ComponentPad*%
%ADD11R,1.600000X1.600000*%
%TD*%
%TA.AperFunction,ComponentPad*%
%ADD12C,2.500000*%
%TD*%
%TA.AperFunction,ComponentPad*%
%ADD13C,0.100000*%
%TD*%
%TA.AperFunction,ComponentPad*%
%ADD14O,2.000000X2.000000*%
%TD*%
%TA.AperFunction,ComponentPad*%
%ADD15R,2.000000X2.000000*%
%TD*%
%TA.AperFunction,Conductor*%
%ADD16C,0.250000*%
%TD*%
G04 APERTURE END LIST*
D10*
%TO.P,U2,24*%
%TO.N,Net-(U2-Pad24)*%
X388920000Y-95330000D03*
%TO.P,U2,23*%
%TO.N,Net-(U2-Pad23)*%
X388920000Y-97870000D03*
%TO.P,U2,22*%
%TO.N,Net-(U2-Pad22)*%
X388920000Y-100410000D03*
%TO.P,U2,21*%
%TO.N,Net-(U2-Pad21)*%
X388920000Y-102950000D03*
%TO.P,U2,20*%
%TO.N,Net-(U2-Pad20)*%
X388920000Y-105490000D03*
%TO.P,U2,19*%
%TO.N,Net-(SW32-Pad1)*%
X388920000Y-108030000D03*
%TO.P,U2,18*%
%TO.N,Net-(SW37-Pad1)*%
X388920000Y-110570000D03*
%TO.P,U2,17*%
%TO.N,Net-(SW42-Pad1)*%
X388920000Y-113110000D03*
%TO.P,U2,16*%
%TO.N,Net-(SW46-Pad1)*%
X388920000Y-115650000D03*
%TO.P,U2,15*%
%TO.N,Net-(SW50-Pad1)*%
X388920000Y-118190000D03*
%TO.P,U2,14*%
%TO.N,Net-(SW55-Pad1)*%
X388920000Y-120730000D03*
%TO.P,U2,13*%
%TO.N,Net-(SW60-Pad1)*%
X388920000Y-123270000D03*
%TO.P,U2,12*%
%TO.N,Net-(D32-Pad1)*%
X373680000Y-123270000D03*
%TO.P,U2,11*%
%TO.N,Net-(D33-Pad1)*%
X373680000Y-120730000D03*
%TO.P,U2,10*%
%TO.N,Net-(D34-Pad1)*%
X373680000Y-118190000D03*
%TO.P,U2,9*%
%TO.N,Net-(D35-Pad1)*%
X373680000Y-115650000D03*
%TO.P,U2,8*%
%TO.N,Net-(D36-Pad1)*%
X373680000Y-113110000D03*
%TO.P,U2,7*%
%TO.N,Net-(U2-Pad7)*%
X373680000Y-110570000D03*
%TO.P,U2,6*%
%TO.N,Net-(U2-Pad6)*%
X373680000Y-108030000D03*
%TO.P,U2,5*%
%TO.N,Net-(U2-Pad5)*%
X373680000Y-105490000D03*
%TO.P,U2,4*%
%TO.N,Net-(U2-Pad4)*%
X373680000Y-102950000D03*
%TO.P,U2,3*%
%TO.N,Net-(U2-Pad3)*%
X373680000Y-100410000D03*
%TO.P,U2,2*%
%TO.N,Net-(U2-Pad2)*%
X373680000Y-97870000D03*
D11*
%TO.P,U2,1*%
%TO.N,Net-(U2-Pad1)*%
X373680000Y-95330000D03*
%TD*%
D12*
%TO.P,SW61,2*%
%TO.N,Net-(D61-Pad2)*%
X357940000Y-117470000D03*
%TO.P,SW61,1*%
%TO.N,Net-(SW60-Pad1)*%
X351590000Y-120010000D03*
%TD*%
%TO.P,SW16,2*%
%TO.N,Net-(D16-Pad2)*%
X133512813Y-103191952D03*
%TO.P,SW16,1*%
%TO.N,Net-(SW16-Pad1)*%
X126736954Y-104120299D03*
%TD*%
%TO.P,SW1,2*%
%TO.N,Net-(D1-Pad2)*%
X73740000Y-99420000D03*
%TO.P,SW1,1*%
%TO.N,Net-(SW1-Pad1)*%
X67390000Y-101960000D03*
%TD*%
%TO.P,SW65,2*%
%TO.N,Net-(D65-Pad2)*%
X260975815Y-184922343D03*
%TO.P,SW65,1*%
%TO.N,Net-(SW42-Pad1)*%
X255428919Y-188923098D03*
%TD*%
%TO.P,SW59,2*%
%TO.N,Net-(D59-Pad2)*%
X324510000Y-174620000D03*
%TO.P,SW59,1*%
%TO.N,Net-(SW55-Pad1)*%
X318160000Y-177160000D03*
%TD*%
%TO.P,SW64,2*%
%TO.N,Net-(D64-Pad2)*%
X353090000Y-174620000D03*
%TO.P,SW64,1*%
%TO.N,Net-(SW60-Pad1)*%
X346740000Y-177160000D03*
%TD*%
%TO.P,SW62,2*%
%TO.N,Net-(D62-Pad2)*%
X359840000Y-136520000D03*
%TO.P,SW62,1*%
%TO.N,Net-(SW60-Pad1)*%
X353490000Y-139060000D03*
%TD*%
%TO.P,SW63,2*%
%TO.N,Net-(D63-Pad2)*%
X341640000Y-155570000D03*
%TO.P,SW63,1*%
%TO.N,Net-(SW60-Pad1)*%
X335290000Y-158110000D03*
%TD*%
%TO.P,SW10,2*%
%TO.N,Net-(D10-Pad2)*%
X91840000Y-175620000D03*
%TO.P,SW10,1*%
%TO.N,Net-(SW10-Pad1)*%
X85490000Y-178160000D03*
%TD*%
%TO.P,SW5,2*%
%TO.N,Net-(D5-Pad2)*%
X63240000Y-175620000D03*
%TO.P,SW5,1*%
%TO.N,Net-(SW1-Pad1)*%
X56890000Y-178160000D03*
%TD*%
%TO.P,SW60,2*%
%TO.N,Net-(D60-Pad2)*%
X347240000Y-98420000D03*
%TO.P,SW60,1*%
%TO.N,Net-(SW60-Pad1)*%
X340890000Y-100960000D03*
%TD*%
%TO.P,SW20,2*%
%TO.N,Net-(D20-Pad2)*%
X154460496Y-187025579D03*
%TO.P,SW20,1*%
%TO.N,Net-(SW16-Pad1)*%
X147684637Y-187953926D03*
%TD*%
%TO.P,SW4,2*%
%TO.N,Net-(D4-Pad2)*%
X70340000Y-156570000D03*
%TO.P,SW4,1*%
%TO.N,Net-(SW1-Pad1)*%
X63990000Y-159110000D03*
%TD*%
%TO.P,SW3,2*%
%TO.N,Net-(D3-Pad2)*%
X70640000Y-137520000D03*
%TO.P,SW3,1*%
%TO.N,Net-(SW1-Pad1)*%
X64290000Y-140060000D03*
%TD*%
%TO.P,SW2,2*%
%TO.N,Net-(D2-Pad2)*%
X72540000Y-118470000D03*
%TO.P,SW2,1*%
%TO.N,Net-(SW1-Pad1)*%
X66190000Y-121010000D03*
%TD*%
%TO.P,SW6,2*%
%TO.N,Net-(D6-Pad2)*%
X92790000Y-99420000D03*
%TO.P,SW6,1*%
%TO.N,Net-(SW10-Pad1)*%
X86440000Y-101960000D03*
%TD*%
%TO.P,SW7,2*%
%TO.N,Net-(D7-Pad2)*%
X96340000Y-118470000D03*
%TO.P,SW7,1*%
%TO.N,Net-(SW10-Pad1)*%
X89990000Y-121010000D03*
%TD*%
%TO.P,SW8,2*%
%TO.N,Net-(D8-Pad2)*%
X96840000Y-137520000D03*
%TO.P,SW8,1*%
%TO.N,Net-(SW10-Pad1)*%
X90490000Y-140060000D03*
%TD*%
%TO.P,SW9,2*%
%TO.N,Net-(D9-Pad2)*%
X101290000Y-156570000D03*
%TO.P,SW9,1*%
%TO.N,Net-(SW10-Pad1)*%
X94940000Y-159110000D03*
%TD*%
%TO.P,SW11,2*%
%TO.N,Net-(D11-Pad2)*%
X111840000Y-97220000D03*
%TO.P,SW11,1*%
%TO.N,Net-(SW11-Pad1)*%
X105490000Y-99760000D03*
%TD*%
%TO.P,SW12,2*%
%TO.N,Net-(D12-Pad2)*%
X119201244Y-119256867D03*
%TO.P,SW12,1*%
%TO.N,Net-(SW11-Pad1)*%
X112425385Y-120185214D03*
%TD*%
%TO.P,SW13,2*%
%TO.N,Net-(D13-Pad2)*%
X119444110Y-138950610D03*
%TO.P,SW13,1*%
%TO.N,Net-(SW11-Pad1)*%
X112668251Y-139878957D03*
%TD*%
%TO.P,SW14,2*%
%TO.N,Net-(D14-Pad2)*%
X124489941Y-159841866D03*
%TO.P,SW14,1*%
%TO.N,Net-(SW11-Pad1)*%
X117714082Y-160770213D03*
%TD*%
%TO.P,SW15,2*%
%TO.N,Net-(D15-Pad2)*%
X126673399Y-180019453D03*
%TO.P,SW15,1*%
%TO.N,Net-(SW11-Pad1)*%
X119897540Y-180947800D03*
%TD*%
%TO.P,SW17,2*%
%TO.N,Net-(D17-Pad2)*%
X137685377Y-123865479D03*
%TO.P,SW17,1*%
%TO.N,Net-(SW16-Pad1)*%
X130909518Y-124793826D03*
%TD*%
%TO.P,SW18,2*%
%TO.N,Net-(D18-Pad2)*%
X137928244Y-143559222D03*
%TO.P,SW18,1*%
%TO.N,Net-(SW16-Pad1)*%
X131152385Y-144487569D03*
%TD*%
%TO.P,SW19,2*%
%TO.N,Net-(D19-Pad2)*%
X142974074Y-164450478D03*
%TO.P,SW19,1*%
%TO.N,Net-(SW16-Pad1)*%
X136198215Y-165378825D03*
%TD*%
%TO.P,SW21,2*%
%TO.N,Net-(D21-Pad2)*%
X151996947Y-107800564D03*
%TO.P,SW21,1*%
%TO.N,Net-(SW21-Pad1)*%
X145221088Y-108728911D03*
%TD*%
%TO.P,SW22,2*%
%TO.N,Net-(D22-Pad2)*%
X156169511Y-128474091D03*
%TO.P,SW22,1*%
%TO.N,Net-(SW21-Pad1)*%
X149393652Y-129402438D03*
%TD*%
%TO.P,SW23,2*%
%TO.N,Net-(D23-Pad2)*%
X156412378Y-148167834D03*
%TO.P,SW23,1*%
%TO.N,Net-(SW21-Pad1)*%
X149636519Y-149096181D03*
%TD*%
%TO.P,SW24,2*%
%TO.N,Net-(D24-Pad2)*%
X161458208Y-169059090D03*
%TO.P,SW24,1*%
%TO.N,Net-(SW21-Pad1)*%
X154682349Y-169987437D03*
%TD*%
%TO.P,SW25,2*%
%TO.N,Net-(D25-Pad2)*%
X182247594Y-193931704D03*
%TO.P,SW25,1*%
%TO.N,Net-(SW21-Pad1)*%
X175471735Y-194860051D03*
%TD*%
%TO.P,SW26,2*%
%TO.N,Net-(D26-Pad2)*%
X170481080Y-112409176D03*
%TO.P,SW26,1*%
%TO.N,Net-(SW26-Pad1)*%
X163705221Y-113337523D03*
%TD*%
%TO.P,SW27,2*%
%TO.N,Net-(D27-Pad2)*%
X174653645Y-133082703D03*
%TO.P,SW27,1*%
%TO.N,Net-(SW26-Pad1)*%
X167877786Y-134011050D03*
%TD*%
%TO.P,SW28,2*%
%TO.N,Net-(D28-Pad2)*%
X174896511Y-152776446D03*
%TO.P,SW28,1*%
%TO.N,Net-(SW26-Pad1)*%
X168120652Y-153704793D03*
%TD*%
%TO.P,SW29,2*%
%TO.N,Net-(D29-Pad2)*%
X179942342Y-173667703D03*
%TO.P,SW29,1*%
%TO.N,Net-(SW26-Pad1)*%
X173166483Y-174596050D03*
%TD*%
%TO.P,SW30,2*%
%TO.N,Net-(D30-Pad2)*%
X188965214Y-117017788D03*
%TO.P,SW30,1*%
%TO.N,Net-(SW30-Pad1)*%
X182189355Y-117946135D03*
%TD*%
%TO.P,SW31,2*%
%TO.N,Net-(D31-Pad2)*%
X193137778Y-137691315D03*
%TO.P,SW31,1*%
%TO.N,Net-(SW30-Pad1)*%
X186361919Y-138619662D03*
%TD*%
%TO.P,SW32,2*%
%TO.N,Net-(D32-Pad2)*%
X222283070Y-116037831D03*
%TO.P,SW32,1*%
%TO.N,Net-(SW32-Pad1)*%
X216736174Y-120038586D03*
%TD*%
%TO.P,SW33,2*%
%TO.N,Net-(D33-Pad2)*%
X218110506Y-136711358D03*
%TO.P,SW33,1*%
%TO.N,Net-(SW32-Pad1)*%
X212563610Y-140712113D03*
%TD*%
%TO.P,SW34,2*%
%TO.N,Net-(D34-Pad2)*%
X236594639Y-132102746D03*
%TO.P,SW34,1*%
%TO.N,Net-(SW32-Pad1)*%
X231047743Y-136103501D03*
%TD*%
%TO.P,SW35,2*%
%TO.N,Net-(D35-Pad2)*%
X227570596Y-153985882D03*
%TO.P,SW35,1*%
%TO.N,Net-(SW32-Pad1)*%
X222023700Y-157986637D03*
%TD*%
%TO.P,SW36,2*%
%TO.N,Net-(D36-Pad2)*%
X218546553Y-175869018D03*
%TO.P,SW36,1*%
%TO.N,Net-(SW32-Pad1)*%
X212999657Y-179869773D03*
%TD*%
%TO.P,SW37,2*%
%TO.N,Net-(D37-Pad2)*%
X240767203Y-111429219D03*
%TO.P,SW37,1*%
%TO.N,Net-(SW37-Pad1)*%
X235220307Y-115429974D03*
%TD*%
%TO.P,SW38,2*%
%TO.N,Net-(D38-Pad2)*%
X255078773Y-127494133D03*
%TO.P,SW38,1*%
%TO.N,Net-(SW37-Pad1)*%
X249531877Y-131494888D03*
%TD*%
%TO.P,SW39,2*%
%TO.N,Net-(D39-Pad2)*%
X246054730Y-149377270D03*
%TO.P,SW39,1*%
%TO.N,Net-(SW37-Pad1)*%
X240507834Y-153378025D03*
%TD*%
%TO.P,SW40,2*%
%TO.N,Net-(D40-Pad2)*%
X237030687Y-171260406D03*
%TO.P,SW40,1*%
%TO.N,Net-(SW37-Pad1)*%
X231483791Y-175261161D03*
%TD*%
%TO.P,SW41,2*%
%TO.N,Net-(D41-Pad2)*%
X226321974Y-193562516D03*
%TO.P,SW41,1*%
%TO.N,Net-(SW37-Pad1)*%
X220775078Y-197563271D03*
%TD*%
%TO.P,SW42,2*%
%TO.N,Net-(D43-Pad2)*%
X259251337Y-106820607D03*
%TO.P,SW42,1*%
%TO.N,Net-(SW42-Pad1)*%
X253704441Y-110821362D03*
%TD*%
%TO.P,SW43,2*%
%TO.N,Net-(D44-Pad2)*%
X273562906Y-122885521D03*
%TO.P,SW43,1*%
%TO.N,Net-(SW42-Pad1)*%
X268016010Y-126886276D03*
%TD*%
%TO.P,SW44,2*%
%TO.N,Net-(D45-Pad2)*%
X264538863Y-144768658D03*
%TO.P,SW44,1*%
%TO.N,Net-(SW42-Pad1)*%
X258991967Y-148769413D03*
%TD*%
%TO.P,SW45,2*%
%TO.N,Net-(D42-Pad2)*%
X255514821Y-166651794D03*
%TO.P,SW45,1*%
%TO.N,Net-(SW42-Pad1)*%
X249967925Y-170652549D03*
%TD*%
%TO.P,SW46,2*%
%TO.N,Net-(D46-Pad2)*%
X277735470Y-102211995D03*
%TO.P,SW46,1*%
%TO.N,Net-(SW46-Pad1)*%
X272188574Y-106212750D03*
%TD*%
%TO.P,SW47,2*%
%TO.N,Net-(D47-Pad2)*%
X292047040Y-118276909D03*
%TO.P,SW47,1*%
%TO.N,Net-(SW46-Pad1)*%
X286500144Y-122277664D03*
%TD*%
%TO.P,SW48,2*%
%TO.N,Net-(D48-Pad2)*%
X283022997Y-140160045D03*
%TO.P,SW48,1*%
%TO.N,Net-(SW46-Pad1)*%
X277476101Y-144160800D03*
%TD*%
%TO.P,SW49,2*%
%TO.N,Net-(D49-Pad2)*%
X273998954Y-162043182D03*
%TO.P,SW49,1*%
%TO.N,Net-(SW46-Pad1)*%
X268452058Y-166043937D03*
%TD*%
%TO.P,SW50,2*%
%TO.N,Net-(D50-Pad2)*%
X299537490Y-97457231D03*
%TO.P,SW50,1*%
%TO.N,Net-(SW50-Pad1)*%
X293187490Y-99997231D03*
%TD*%
%TO.P,SW51,2*%
%TO.N,Net-(D51-Pad2)*%
X315090000Y-117470000D03*
%TO.P,SW51,1*%
%TO.N,Net-(SW50-Pad1)*%
X308740000Y-120010000D03*
%TD*%
%TO.P,SW52,2*%
%TO.N,Net-(D52-Pad2)*%
X309840000Y-136520000D03*
%TO.P,SW52,1*%
%TO.N,Net-(SW50-Pad1)*%
X303490000Y-139060000D03*
%TD*%
%TO.P,SW53,2*%
%TO.N,Net-(D53-Pad2)*%
X292483088Y-157434570D03*
%TO.P,SW53,1*%
%TO.N,Net-(SW50-Pad1)*%
X286936192Y-161435325D03*
%TD*%
%TO.P,SW54,2*%
%TO.N,Net-(D54-Pad2)*%
X295658941Y-176347785D03*
%TO.P,SW54,1*%
%TO.N,Net-(SW50-Pad1)*%
X290112045Y-180348540D03*
%TD*%
%TO.P,SW55,2*%
%TO.N,Net-(D55-Pad2)*%
X318640000Y-98420000D03*
%TO.P,SW55,1*%
%TO.N,Net-(SW55-Pad1)*%
X312290000Y-100960000D03*
%TD*%
%TO.P,SW56,2*%
%TO.N,Net-(D56-Pad2)*%
X334140000Y-117470000D03*
%TO.P,SW56,1*%
%TO.N,Net-(SW55-Pad1)*%
X327790000Y-120010000D03*
%TD*%
%TO.P,SW57,2*%
%TO.N,Net-(D57-Pad2)*%
X328890000Y-136520000D03*
%TO.P,SW57,1*%
%TO.N,Net-(SW55-Pad1)*%
X322540000Y-139060000D03*
%TD*%
%TO.P,SW58,2*%
%TO.N,Net-(D58-Pad2)*%
X315440000Y-155570000D03*
%TO.P,SW58,1*%
%TO.N,Net-(SW55-Pad1)*%
X309090000Y-158110000D03*
%TD*%
%TO.P,D65,2*%
%TO.N,Net-(D65-Pad2)*%
%TA.AperFunction,ComponentPad*%
G36*
G01*
X234884594Y-199962405D02*
X234884594Y-199962405D01*
G75*
G02*
X233672376Y-199234031I-241922J970296D01*
G01*
X233672376Y-199234031D01*
G75*
G02*
X234400750Y-198021813I970296J241922D01*
G01*
X234400750Y-198021813D01*
G75*
G02*
X235612968Y-198750187I241922J-970296D01*
G01*
X235612968Y-198750187D01*
G75*
G02*
X234884594Y-199962405I-970296J-241922D01*
G01*
G37*
%TD.AperFunction*%
%TA.AperFunction,ComponentPad*%
D13*
%TO.P,D65,1*%
%TO.N,Net-(D36-Pad1)*%
G36*
X237083853Y-204649585D02*
G01*
X235143261Y-205133429D01*
X234659417Y-203192837D01*
X236600009Y-202708993D01*
X237083853Y-204649585D01*
G37*
%TD.AperFunction*%
%TD*%
D11*
%TO.P,U1,1*%
%TO.N,Net-(U1-Pad1)*%
X38680000Y-96330000D03*
D10*
%TO.P,U1,2*%
%TO.N,Net-(U1-Pad2)*%
X38680000Y-98870000D03*
%TO.P,U1,3*%
%TO.N,Net-(U1-Pad3)*%
X38680000Y-101410000D03*
%TO.P,U1,4*%
%TO.N,Net-(U1-Pad4)*%
X38680000Y-103950000D03*
%TO.P,U1,5*%
%TO.N,Net-(U1-Pad5)*%
X38680000Y-106490000D03*
%TO.P,U1,6*%
%TO.N,Net-(U1-Pad6)*%
X38680000Y-109030000D03*
%TO.P,U1,7*%
%TO.N,Net-(U1-Pad7)*%
X38680000Y-111570000D03*
%TO.P,U1,8*%
%TO.N,Net-(D10-Pad1)*%
X38680000Y-114110000D03*
%TO.P,U1,9*%
%TO.N,Net-(D14-Pad1)*%
X38680000Y-116650000D03*
%TO.P,U1,10*%
%TO.N,Net-(D13-Pad1)*%
X38680000Y-119190000D03*
%TO.P,U1,11*%
%TO.N,Net-(D12-Pad1)*%
X38680000Y-121730000D03*
%TO.P,U1,12*%
%TO.N,Net-(D1-Pad1)*%
X38680000Y-124270000D03*
%TO.P,U1,13*%
%TO.N,Net-(SW1-Pad1)*%
X53920000Y-124270000D03*
%TO.P,U1,14*%
%TO.N,Net-(SW10-Pad1)*%
X53920000Y-121730000D03*
%TO.P,U1,15*%
%TO.N,Net-(SW11-Pad1)*%
X53920000Y-119190000D03*
%TO.P,U1,16*%
%TO.N,Net-(SW16-Pad1)*%
X53920000Y-116650000D03*
%TO.P,U1,17*%
%TO.N,Net-(SW21-Pad1)*%
X53920000Y-114110000D03*
%TO.P,U1,18*%
%TO.N,Net-(SW26-Pad1)*%
X53920000Y-111570000D03*
%TO.P,U1,19*%
%TO.N,Net-(SW30-Pad1)*%
X53920000Y-109030000D03*
%TO.P,U1,20*%
%TO.N,Net-(U1-Pad20)*%
X53920000Y-106490000D03*
%TO.P,U1,21*%
%TO.N,Net-(U1-Pad21)*%
X53920000Y-103950000D03*
%TO.P,U1,22*%
%TO.N,Net-(U1-Pad22)*%
X53920000Y-101410000D03*
%TO.P,U1,23*%
%TO.N,Net-(U1-Pad23)*%
X53920000Y-98870000D03*
%TO.P,U1,24*%
%TO.N,Net-(U1-Pad24)*%
X53920000Y-96330000D03*
%TD*%
D14*
%TO.P,D64,2*%
%TO.N,Net-(D64-Pad2)*%
X360300000Y-173720000D03*
D15*
%TO.P,D64,1*%
%TO.N,Net-(D36-Pad1)*%
X360300000Y-178800000D03*
%TD*%
D14*
%TO.P,D63,2*%
%TO.N,Net-(D63-Pad2)*%
X348200000Y-154720000D03*
D15*
%TO.P,D63,1*%
%TO.N,Net-(D35-Pad1)*%
X348200000Y-159800000D03*
%TD*%
D14*
%TO.P,D62,2*%
%TO.N,Net-(D62-Pad2)*%
X335600000Y-143800000D03*
D15*
%TO.P,D62,1*%
%TO.N,Net-(D34-Pad1)*%
X335600000Y-148880000D03*
%TD*%
D14*
%TO.P,D61,2*%
%TO.N,Net-(D61-Pad2)*%
X364600000Y-116720000D03*
D15*
%TO.P,D61,1*%
%TO.N,Net-(D33-Pad1)*%
X364600000Y-121800000D03*
%TD*%
D14*
%TO.P,D60,2*%
%TO.N,Net-(D60-Pad2)*%
X325800000Y-105800000D03*
D15*
%TO.P,D60,1*%
%TO.N,Net-(D32-Pad1)*%
X325800000Y-110880000D03*
%TD*%
D14*
%TO.P,D59,2*%
%TO.N,Net-(D59-Pad2)*%
X331300000Y-173720000D03*
D15*
%TO.P,D59,1*%
%TO.N,Net-(D36-Pad1)*%
X331300000Y-178800000D03*
%TD*%
D14*
%TO.P,D58,2*%
%TO.N,Net-(D58-Pad2)*%
X322200000Y-154800000D03*
D15*
%TO.P,D58,1*%
%TO.N,Net-(D35-Pad1)*%
X322200000Y-159880000D03*
%TD*%
D14*
%TO.P,D57,2*%
%TO.N,Net-(D57-Pad2)*%
X335600000Y-135720000D03*
D15*
%TO.P,D57,1*%
%TO.N,Net-(D34-Pad1)*%
X335600000Y-140800000D03*
%TD*%
D14*
%TO.P,D56,2*%
%TO.N,Net-(D56-Pad2)*%
X340800000Y-116720000D03*
D15*
%TO.P,D56,1*%
%TO.N,Net-(D33-Pad1)*%
X340800000Y-121800000D03*
%TD*%
D14*
%TO.P,D55,2*%
%TO.N,Net-(D55-Pad2)*%
X325800000Y-97720000D03*
D15*
%TO.P,D55,1*%
%TO.N,Net-(D32-Pad1)*%
X325800000Y-102800000D03*
%TD*%
%TO.P,D54,2*%
%TO.N,Net-(D54-Pad2)*%
%TA.AperFunction,ComponentPad*%
G36*
G01*
X302824511Y-174664271D02*
X302824511Y-174664271D01*
G75*
G02*
X301612293Y-173935897I-241922J970296D01*
G01*
X301612293Y-173935897D01*
G75*
G02*
X302340667Y-172723679I970296J241922D01*
G01*
X302340667Y-172723679D01*
G75*
G02*
X303552885Y-173452053I241922J-970296D01*
G01*
X303552885Y-173452053D01*
G75*
G02*
X302824511Y-174664271I-970296J-241922D01*
G01*
G37*
%TD.AperFunction*%
%TA.AperFunction,ComponentPad*%
D13*
%TO.P,D54,1*%
%TO.N,Net-(D36-Pad1)*%
G36*
X305023770Y-179351451D02*
G01*
X303083178Y-179835295D01*
X302599334Y-177894703D01*
X304539926Y-177410859D01*
X305023770Y-179351451D01*
G37*
%TD.AperFunction*%
%TD*%
D14*
%TO.P,D53,2*%
%TO.N,Net-(D53-Pad2)*%
X303800000Y-154720000D03*
D15*
%TO.P,D53,1*%
%TO.N,Net-(D35-Pad1)*%
X303800000Y-159800000D03*
%TD*%
D14*
%TO.P,D52,2*%
%TO.N,Net-(D52-Pad2)*%
X316300000Y-135720000D03*
D15*
%TO.P,D52,1*%
%TO.N,Net-(D34-Pad1)*%
X316300000Y-140800000D03*
%TD*%
D14*
%TO.P,D51,2*%
%TO.N,Net-(D51-Pad2)*%
X321800000Y-116720000D03*
D15*
%TO.P,D51,1*%
%TO.N,Net-(D33-Pad1)*%
X321800000Y-121800000D03*
%TD*%
D14*
%TO.P,D50,2*%
%TO.N,Net-(D50-Pad2)*%
X306747490Y-96757230D03*
D15*
%TO.P,D50,1*%
%TO.N,Net-(D32-Pad1)*%
X306747490Y-101837230D03*
%TD*%
%TO.P,D49,2*%
%TO.N,Net-(D49-Pad2)*%
%TA.AperFunction,ComponentPad*%
G36*
G01*
X280691471Y-160529143D02*
X280691471Y-160529143D01*
G75*
G02*
X279479253Y-159800769I-241922J970296D01*
G01*
X279479253Y-159800769D01*
G75*
G02*
X280207627Y-158588551I970296J241922D01*
G01*
X280207627Y-158588551D01*
G75*
G02*
X281419845Y-159316925I241922J-970296D01*
G01*
X281419845Y-159316925D01*
G75*
G02*
X280691471Y-160529143I-970296J-241922D01*
G01*
G37*
%TD.AperFunction*%
%TA.AperFunction,ComponentPad*%
D13*
%TO.P,D49,1*%
%TO.N,Net-(D35-Pad1)*%
G36*
X282890730Y-165216323D02*
G01*
X280950138Y-165700167D01*
X280466294Y-163759575D01*
X282406886Y-163275731D01*
X282890730Y-165216323D01*
G37*
%TD.AperFunction*%
%TD*%
%TO.P,D48,2*%
%TO.N,Net-(D48-Pad2)*%
%TA.AperFunction,ComponentPad*%
G36*
G01*
X289679096Y-138706617D02*
X289679096Y-138706617D01*
G75*
G02*
X288466878Y-137978243I-241922J970296D01*
G01*
X288466878Y-137978243D01*
G75*
G02*
X289195252Y-136766025I970296J241922D01*
G01*
X289195252Y-136766025D01*
G75*
G02*
X290407470Y-137494399I241922J-970296D01*
G01*
X290407470Y-137494399D01*
G75*
G02*
X289679096Y-138706617I-970296J-241922D01*
G01*
G37*
%TD.AperFunction*%
%TA.AperFunction,ComponentPad*%
%TO.P,D48,1*%
%TO.N,Net-(D34-Pad1)*%
G36*
X291878355Y-143393797D02*
G01*
X289937763Y-143877641D01*
X289453919Y-141937049D01*
X291394511Y-141453205D01*
X291878355Y-143393797D01*
G37*
%TD.AperFunction*%
%TD*%
D14*
%TO.P,D47,2*%
%TO.N,Net-(D47-Pad2)*%
X302800000Y-116720000D03*
D15*
%TO.P,D47,1*%
%TO.N,Net-(D33-Pad1)*%
X302800000Y-121800000D03*
%TD*%
%TO.P,D46,2*%
%TO.N,Net-(D46-Pad2)*%
%TA.AperFunction,ComponentPad*%
G36*
G01*
X284367246Y-100867692D02*
X284367246Y-100867692D01*
G75*
G02*
X283155028Y-100139318I-241922J970296D01*
G01*
X283155028Y-100139318D01*
G75*
G02*
X283883402Y-98927100I970296J241922D01*
G01*
X283883402Y-98927100D01*
G75*
G02*
X285095620Y-99655474I241922J-970296D01*
G01*
X285095620Y-99655474D01*
G75*
G02*
X284367246Y-100867692I-970296J-241922D01*
G01*
G37*
%TD.AperFunction*%
%TA.AperFunction,ComponentPad*%
D13*
%TO.P,D46,1*%
%TO.N,Net-(D32-Pad1)*%
G36*
X286566505Y-105554872D02*
G01*
X284625913Y-106038716D01*
X284142069Y-104098124D01*
X286082661Y-103614280D01*
X286566505Y-105554872D01*
G37*
%TD.AperFunction*%
%TD*%
%TO.P,D45,2*%
%TO.N,Net-(D45-Pad2)*%
%TA.AperFunction,ComponentPad*%
G36*
G01*
X271243477Y-143303133D02*
X271243477Y-143303133D01*
G75*
G02*
X270031259Y-142574759I-241922J970296D01*
G01*
X270031259Y-142574759D01*
G75*
G02*
X270759633Y-141362541I970296J241922D01*
G01*
X270759633Y-141362541D01*
G75*
G02*
X271971851Y-142090915I241922J-970296D01*
G01*
X271971851Y-142090915D01*
G75*
G02*
X271243477Y-143303133I-970296J-241922D01*
G01*
G37*
%TD.AperFunction*%
%TA.AperFunction,ComponentPad*%
%TO.P,D45,1*%
%TO.N,Net-(D34-Pad1)*%
G36*
X273442736Y-147990313D02*
G01*
X271502144Y-148474157D01*
X271018300Y-146533565D01*
X272958892Y-146049721D01*
X273442736Y-147990313D01*
G37*
%TD.AperFunction*%
%TD*%
%TO.P,D44,2*%
%TO.N,Net-(D44-Pad2)*%
%TA.AperFunction,ComponentPad*%
G36*
G01*
X280231101Y-121480608D02*
X280231101Y-121480608D01*
G75*
G02*
X279018883Y-120752234I-241922J970296D01*
G01*
X279018883Y-120752234D01*
G75*
G02*
X279747257Y-119540016I970296J241922D01*
G01*
X279747257Y-119540016D01*
G75*
G02*
X280959475Y-120268390I241922J-970296D01*
G01*
X280959475Y-120268390D01*
G75*
G02*
X280231101Y-121480608I-970296J-241922D01*
G01*
G37*
%TD.AperFunction*%
%TA.AperFunction,ComponentPad*%
%TO.P,D44,1*%
%TO.N,Net-(D33-Pad1)*%
G36*
X282430360Y-126167788D02*
G01*
X280489768Y-126651632D01*
X280005924Y-124711040D01*
X281946516Y-124227196D01*
X282430360Y-126167788D01*
G37*
%TD.AperFunction*%
%TD*%
%TO.P,D43,2*%
%TO.N,Net-(D43-Pad2)*%
%TA.AperFunction,ComponentPad*%
G36*
G01*
X265931628Y-105464208D02*
X265931628Y-105464208D01*
G75*
G02*
X264719410Y-104735834I-241922J970296D01*
G01*
X264719410Y-104735834D01*
G75*
G02*
X265447784Y-103523616I970296J241922D01*
G01*
X265447784Y-103523616D01*
G75*
G02*
X266660002Y-104251990I241922J-970296D01*
G01*
X266660002Y-104251990D01*
G75*
G02*
X265931628Y-105464208I-970296J-241922D01*
G01*
G37*
%TD.AperFunction*%
%TA.AperFunction,ComponentPad*%
%TO.P,D43,1*%
%TO.N,Net-(D32-Pad1)*%
G36*
X268130887Y-110151388D02*
G01*
X266190295Y-110635232D01*
X265706451Y-108694640D01*
X267647043Y-108210796D01*
X268130887Y-110151388D01*
G37*
%TD.AperFunction*%
%TD*%
%TO.P,D42,2*%
%TO.N,Net-(D42-Pad2)*%
%TA.AperFunction,ComponentPad*%
G36*
G01*
X262255853Y-165125659D02*
X262255853Y-165125659D01*
G75*
G02*
X261043635Y-164397285I-241922J970296D01*
G01*
X261043635Y-164397285D01*
G75*
G02*
X261772009Y-163185067I970296J241922D01*
G01*
X261772009Y-163185067D01*
G75*
G02*
X262984227Y-163913441I241922J-970296D01*
G01*
X262984227Y-163913441D01*
G75*
G02*
X262255853Y-165125659I-970296J-241922D01*
G01*
G37*
%TD.AperFunction*%
%TA.AperFunction,ComponentPad*%
%TO.P,D42,1*%
%TO.N,Net-(D35-Pad1)*%
G36*
X264455112Y-169812839D02*
G01*
X262514520Y-170296683D01*
X262030676Y-168356091D01*
X263971268Y-167872247D01*
X264455112Y-169812839D01*
G37*
%TD.AperFunction*%
%TD*%
%TO.P,D41,2*%
%TO.N,Net-(D41-Pad2)*%
%TA.AperFunction,ComponentPad*%
G36*
G01*
X232905366Y-192024155D02*
X232905366Y-192024155D01*
G75*
G02*
X231693148Y-191295781I-241922J970296D01*
G01*
X231693148Y-191295781D01*
G75*
G02*
X232421522Y-190083563I970296J241922D01*
G01*
X232421522Y-190083563D01*
G75*
G02*
X233633740Y-190811937I241922J-970296D01*
G01*
X233633740Y-190811937D01*
G75*
G02*
X232905366Y-192024155I-970296J-241922D01*
G01*
G37*
%TD.AperFunction*%
%TA.AperFunction,ComponentPad*%
%TO.P,D41,1*%
%TO.N,Net-(D36-Pad1)*%
G36*
X235104625Y-196711335D02*
G01*
X233164033Y-197195179D01*
X232680189Y-195254587D01*
X234620781Y-194770743D01*
X235104625Y-196711335D01*
G37*
%TD.AperFunction*%
%TD*%
%TO.P,D40,2*%
%TO.N,Net-(D40-Pad2)*%
%TA.AperFunction,ComponentPad*%
G36*
G01*
X243820234Y-169722175D02*
X243820234Y-169722175D01*
G75*
G02*
X242608016Y-168993801I-241922J970296D01*
G01*
X242608016Y-168993801D01*
G75*
G02*
X243336390Y-167781583I970296J241922D01*
G01*
X243336390Y-167781583D01*
G75*
G02*
X244548608Y-168509957I241922J-970296D01*
G01*
X244548608Y-168509957D01*
G75*
G02*
X243820234Y-169722175I-970296J-241922D01*
G01*
G37*
%TD.AperFunction*%
%TA.AperFunction,ComponentPad*%
%TO.P,D40,1*%
%TO.N,Net-(D35-Pad1)*%
G36*
X246019493Y-174409355D02*
G01*
X244078901Y-174893199D01*
X243595057Y-172952607D01*
X245535649Y-172468763D01*
X246019493Y-174409355D01*
G37*
%TD.AperFunction*%
%TD*%
%TO.P,D39,2*%
%TO.N,Net-(D39-Pad2)*%
%TA.AperFunction,ComponentPad*%
G36*
G01*
X252807858Y-147899649D02*
X252807858Y-147899649D01*
G75*
G02*
X251595640Y-147171275I-241922J970296D01*
G01*
X251595640Y-147171275D01*
G75*
G02*
X252324014Y-145959057I970296J241922D01*
G01*
X252324014Y-145959057D01*
G75*
G02*
X253536232Y-146687431I241922J-970296D01*
G01*
X253536232Y-146687431D01*
G75*
G02*
X252807858Y-147899649I-970296J-241922D01*
G01*
G37*
%TD.AperFunction*%
%TA.AperFunction,ComponentPad*%
%TO.P,D39,1*%
%TO.N,Net-(D34-Pad1)*%
G36*
X255007117Y-152586829D02*
G01*
X253066525Y-153070673D01*
X252582681Y-151130081D01*
X254523273Y-150646237D01*
X255007117Y-152586829D01*
G37*
%TD.AperFunction*%
%TD*%
%TO.P,D38,2*%
%TO.N,Net-(D38-Pad2)*%
%TA.AperFunction,ComponentPad*%
G36*
G01*
X261795482Y-126077124D02*
X261795482Y-126077124D01*
G75*
G02*
X260583264Y-125348750I-241922J970296D01*
G01*
X260583264Y-125348750D01*
G75*
G02*
X261311638Y-124136532I970296J241922D01*
G01*
X261311638Y-124136532D01*
G75*
G02*
X262523856Y-124864906I241922J-970296D01*
G01*
X262523856Y-124864906D01*
G75*
G02*
X261795482Y-126077124I-970296J-241922D01*
G01*
G37*
%TD.AperFunction*%
%TA.AperFunction,ComponentPad*%
%TO.P,D38,1*%
%TO.N,Net-(D33-Pad1)*%
G36*
X263994741Y-130764304D02*
G01*
X262054149Y-131248148D01*
X261570305Y-129307556D01*
X263510897Y-128823712D01*
X263994741Y-130764304D01*
G37*
%TD.AperFunction*%
%TD*%
%TO.P,D37,2*%
%TO.N,Net-(D37-Pad2)*%
%TA.AperFunction,ComponentPad*%
G36*
G01*
X247496009Y-110060724D02*
X247496009Y-110060724D01*
G75*
G02*
X246283791Y-109332350I-241922J970296D01*
G01*
X246283791Y-109332350D01*
G75*
G02*
X247012165Y-108120132I970296J241922D01*
G01*
X247012165Y-108120132D01*
G75*
G02*
X248224383Y-108848506I241922J-970296D01*
G01*
X248224383Y-108848506D01*
G75*
G02*
X247496009Y-110060724I-970296J-241922D01*
G01*
G37*
%TD.AperFunction*%
%TA.AperFunction,ComponentPad*%
%TO.P,D37,1*%
%TO.N,Net-(D32-Pad1)*%
G36*
X249695268Y-114747904D02*
G01*
X247754676Y-115231748D01*
X247270832Y-113291156D01*
X249211424Y-112807312D01*
X249695268Y-114747904D01*
G37*
%TD.AperFunction*%
%TD*%
%TO.P,D36,2*%
%TO.N,Net-(D36-Pad2)*%
%TA.AperFunction,ComponentPad*%
G36*
G01*
X225384615Y-174318691D02*
X225384615Y-174318691D01*
G75*
G02*
X224172397Y-173590317I-241922J970296D01*
G01*
X224172397Y-173590317D01*
G75*
G02*
X224900771Y-172378099I970296J241922D01*
G01*
X224900771Y-172378099D01*
G75*
G02*
X226112989Y-173106473I241922J-970296D01*
G01*
X226112989Y-173106473D01*
G75*
G02*
X225384615Y-174318691I-970296J-241922D01*
G01*
G37*
%TD.AperFunction*%
%TA.AperFunction,ComponentPad*%
%TO.P,D36,1*%
%TO.N,Net-(D36-Pad1)*%
G36*
X227583874Y-179005871D02*
G01*
X225643282Y-179489715D01*
X225159438Y-177549123D01*
X227100030Y-177065279D01*
X227583874Y-179005871D01*
G37*
%TD.AperFunction*%
%TD*%
%TO.P,D35,2*%
%TO.N,Net-(D35-Pad2)*%
%TA.AperFunction,ComponentPad*%
G36*
G01*
X234372239Y-152496165D02*
X234372239Y-152496165D01*
G75*
G02*
X233160021Y-151767791I-241922J970296D01*
G01*
X233160021Y-151767791D01*
G75*
G02*
X233888395Y-150555573I970296J241922D01*
G01*
X233888395Y-150555573D01*
G75*
G02*
X235100613Y-151283947I241922J-970296D01*
G01*
X235100613Y-151283947D01*
G75*
G02*
X234372239Y-152496165I-970296J-241922D01*
G01*
G37*
%TD.AperFunction*%
%TA.AperFunction,ComponentPad*%
%TO.P,D35,1*%
%TO.N,Net-(D35-Pad1)*%
G36*
X236571498Y-157183345D02*
G01*
X234630906Y-157667189D01*
X234147062Y-155726597D01*
X236087654Y-155242753D01*
X236571498Y-157183345D01*
G37*
%TD.AperFunction*%
%TD*%
%TO.P,D34,2*%
%TO.N,Net-(D34-Pad2)*%
%TA.AperFunction,ComponentPad*%
G36*
G01*
X243359863Y-130673640D02*
X243359863Y-130673640D01*
G75*
G02*
X242147645Y-129945266I-241922J970296D01*
G01*
X242147645Y-129945266D01*
G75*
G02*
X242876019Y-128733048I970296J241922D01*
G01*
X242876019Y-128733048D01*
G75*
G02*
X244088237Y-129461422I241922J-970296D01*
G01*
X244088237Y-129461422D01*
G75*
G02*
X243359863Y-130673640I-970296J-241922D01*
G01*
G37*
%TD.AperFunction*%
%TA.AperFunction,ComponentPad*%
%TO.P,D34,1*%
%TO.N,Net-(D34-Pad1)*%
G36*
X245559122Y-135360820D02*
G01*
X243618530Y-135844664D01*
X243134686Y-133904072D01*
X245075278Y-133420228D01*
X245559122Y-135360820D01*
G37*
%TD.AperFunction*%
%TD*%
%TO.P,D33,2*%
%TO.N,Net-(D33-Pad2)*%
%TA.AperFunction,ComponentPad*%
G36*
G01*
X224924244Y-135270156D02*
X224924244Y-135270156D01*
G75*
G02*
X223712026Y-134541782I-241922J970296D01*
G01*
X223712026Y-134541782D01*
G75*
G02*
X224440400Y-133329564I970296J241922D01*
G01*
X224440400Y-133329564D01*
G75*
G02*
X225652618Y-134057938I241922J-970296D01*
G01*
X225652618Y-134057938D01*
G75*
G02*
X224924244Y-135270156I-970296J-241922D01*
G01*
G37*
%TD.AperFunction*%
%TA.AperFunction,ComponentPad*%
%TO.P,D33,1*%
%TO.N,Net-(D33-Pad1)*%
G36*
X227123503Y-139957336D02*
G01*
X225182911Y-140441180D01*
X224699067Y-138500588D01*
X226639659Y-138016744D01*
X227123503Y-139957336D01*
G37*
%TD.AperFunction*%
%TD*%
%TO.P,D32,2*%
%TO.N,Net-(D32-Pad2)*%
%TA.AperFunction,ComponentPad*%
G36*
G01*
X229060390Y-114657240D02*
X229060390Y-114657240D01*
G75*
G02*
X227848172Y-113928866I-241922J970296D01*
G01*
X227848172Y-113928866D01*
G75*
G02*
X228576546Y-112716648I970296J241922D01*
G01*
X228576546Y-112716648D01*
G75*
G02*
X229788764Y-113445022I241922J-970296D01*
G01*
X229788764Y-113445022D01*
G75*
G02*
X229060390Y-114657240I-970296J-241922D01*
G01*
G37*
%TD.AperFunction*%
%TA.AperFunction,ComponentPad*%
%TO.P,D32,1*%
%TO.N,Net-(D32-Pad1)*%
G36*
X231259649Y-119344420D02*
G01*
X229319057Y-119828264D01*
X228835213Y-117887672D01*
X230775805Y-117403828D01*
X231259649Y-119344420D01*
G37*
%TD.AperFunction*%
%TD*%
%TO.P,D31,2*%
%TO.N,Net-(D31-Pad2)*%
%TA.AperFunction,ComponentPad*%
G36*
G01*
X179058078Y-142770296D02*
X179058078Y-142770296D01*
G75*
G02*
X178329704Y-141558078I241922J970296D01*
G01*
X178329704Y-141558078D01*
G75*
G02*
X179541922Y-140829704I970296J-241922D01*
G01*
X179541922Y-140829704D01*
G75*
G02*
X180270296Y-142041922I-241922J-970296D01*
G01*
X180270296Y-142041922D01*
G75*
G02*
X179058078Y-142770296I-970296J241922D01*
G01*
G37*
%TD.AperFunction*%
%TA.AperFunction,ComponentPad*%
%TO.P,D31,1*%
%TO.N,Net-(D12-Pad1)*%
G36*
X178799411Y-147941320D02*
G01*
X176858819Y-147457476D01*
X177342663Y-145516884D01*
X179283255Y-146000728D01*
X178799411Y-147941320D01*
G37*
%TD.AperFunction*%
%TD*%
%TO.P,D30,2*%
%TO.N,Net-(D30-Pad2)*%
%TA.AperFunction,ComponentPad*%
G36*
G01*
X175058078Y-122270296D02*
X175058078Y-122270296D01*
G75*
G02*
X174329704Y-121058078I241922J970296D01*
G01*
X174329704Y-121058078D01*
G75*
G02*
X175541922Y-120329704I970296J-241922D01*
G01*
X175541922Y-120329704D01*
G75*
G02*
X176270296Y-121541922I-241922J-970296D01*
G01*
X176270296Y-121541922D01*
G75*
G02*
X175058078Y-122270296I-970296J241922D01*
G01*
G37*
%TD.AperFunction*%
%TA.AperFunction,ComponentPad*%
%TO.P,D30,1*%
%TO.N,Net-(D1-Pad1)*%
G36*
X174799411Y-127441320D02*
G01*
X172858819Y-126957476D01*
X173342663Y-125016884D01*
X175283255Y-125500728D01*
X174799411Y-127441320D01*
G37*
%TD.AperFunction*%
%TD*%
%TO.P,D29,2*%
%TO.N,Net-(D29-Pad2)*%
%TA.AperFunction,ComponentPad*%
G36*
G01*
X186558078Y-175581697D02*
X186558078Y-175581697D01*
G75*
G02*
X185829704Y-174369479I241922J970296D01*
G01*
X185829704Y-174369479D01*
G75*
G02*
X187041922Y-173641105I970296J-241922D01*
G01*
X187041922Y-173641105D01*
G75*
G02*
X187770296Y-174853323I-241922J-970296D01*
G01*
X187770296Y-174853323D01*
G75*
G02*
X186558078Y-175581697I-970296J241922D01*
G01*
G37*
%TD.AperFunction*%
%TA.AperFunction,ComponentPad*%
%TO.P,D29,1*%
%TO.N,Net-(D14-Pad1)*%
G36*
X186299411Y-180752721D02*
G01*
X184358819Y-180268877D01*
X184842663Y-178328285D01*
X186783255Y-178812129D01*
X186299411Y-180752721D01*
G37*
%TD.AperFunction*%
%TD*%
%TO.P,D28,2*%
%TO.N,Net-(D28-Pad2)*%
%TA.AperFunction,ComponentPad*%
G36*
G01*
X161058078Y-157770296D02*
X161058078Y-157770296D01*
G75*
G02*
X160329704Y-156558078I241922J970296D01*
G01*
X160329704Y-156558078D01*
G75*
G02*
X161541922Y-155829704I970296J-241922D01*
G01*
X161541922Y-155829704D01*
G75*
G02*
X162270296Y-157041922I-241922J-970296D01*
G01*
X162270296Y-157041922D01*
G75*
G02*
X161058078Y-157770296I-970296J241922D01*
G01*
G37*
%TD.AperFunction*%
%TA.AperFunction,ComponentPad*%
%TO.P,D28,1*%
%TO.N,Net-(D13-Pad1)*%
G36*
X160799411Y-162941320D02*
G01*
X158858819Y-162457476D01*
X159342663Y-160516884D01*
X161283255Y-161000728D01*
X160799411Y-162941320D01*
G37*
%TD.AperFunction*%
%TD*%
%TO.P,D27,2*%
%TO.N,Net-(D27-Pad2)*%
%TA.AperFunction,ComponentPad*%
G36*
G01*
X181152363Y-134960670D02*
X181152363Y-134960670D01*
G75*
G02*
X180423989Y-133748452I241922J970296D01*
G01*
X180423989Y-133748452D01*
G75*
G02*
X181636207Y-133020078I970296J-241922D01*
G01*
X181636207Y-133020078D01*
G75*
G02*
X182364581Y-134232296I-241922J-970296D01*
G01*
X182364581Y-134232296D01*
G75*
G02*
X181152363Y-134960670I-970296J241922D01*
G01*
G37*
%TD.AperFunction*%
%TA.AperFunction,ComponentPad*%
%TO.P,D27,1*%
%TO.N,Net-(D12-Pad1)*%
G36*
X180893696Y-140131694D02*
G01*
X178953104Y-139647850D01*
X179436948Y-137707258D01*
X181377540Y-138191102D01*
X180893696Y-140131694D01*
G37*
%TD.AperFunction*%
%TD*%
%TO.P,D26,2*%
%TO.N,Net-(D26-Pad2)*%
%TA.AperFunction,ComponentPad*%
G36*
G01*
X177016218Y-114347754D02*
X177016218Y-114347754D01*
G75*
G02*
X176287844Y-113135536I241922J970296D01*
G01*
X176287844Y-113135536D01*
G75*
G02*
X177500062Y-112407162I970296J-241922D01*
G01*
X177500062Y-112407162D01*
G75*
G02*
X178228436Y-113619380I-241922J-970296D01*
G01*
X178228436Y-113619380D01*
G75*
G02*
X177016218Y-114347754I-970296J241922D01*
G01*
G37*
%TD.AperFunction*%
%TA.AperFunction,ComponentPad*%
%TO.P,D26,1*%
%TO.N,Net-(D1-Pad1)*%
G36*
X176757551Y-119518778D02*
G01*
X174816959Y-119034934D01*
X175300803Y-117094342D01*
X177241395Y-117578186D01*
X176757551Y-119518778D01*
G37*
%TD.AperFunction*%
%TD*%
%TO.P,D25,2*%
%TO.N,Net-(D25-Pad2)*%
%TA.AperFunction,ComponentPad*%
G36*
G01*
X184558078Y-183770296D02*
X184558078Y-183770296D01*
G75*
G02*
X183829704Y-182558078I241922J970296D01*
G01*
X183829704Y-182558078D01*
G75*
G02*
X185041922Y-181829704I970296J-241922D01*
G01*
X185041922Y-181829704D01*
G75*
G02*
X185770296Y-183041922I-241922J-970296D01*
G01*
X185770296Y-183041922D01*
G75*
G02*
X184558078Y-183770296I-970296J241922D01*
G01*
G37*
%TD.AperFunction*%
%TA.AperFunction,ComponentPad*%
%TO.P,D25,1*%
%TO.N,Net-(D10-Pad1)*%
G36*
X184299411Y-188941320D02*
G01*
X182358819Y-188457476D01*
X182842663Y-186516884D01*
X184783255Y-187000728D01*
X184299411Y-188941320D01*
G37*
%TD.AperFunction*%
%TD*%
%TO.P,D24,2*%
%TO.N,Net-(D24-Pad2)*%
%TA.AperFunction,ComponentPad*%
G36*
G01*
X167957187Y-171349368D02*
X167957187Y-171349368D01*
G75*
G02*
X167228813Y-170137150I241922J970296D01*
G01*
X167228813Y-170137150D01*
G75*
G02*
X168441031Y-169408776I970296J-241922D01*
G01*
X168441031Y-169408776D01*
G75*
G02*
X169169405Y-170620994I-241922J-970296D01*
G01*
X169169405Y-170620994D01*
G75*
G02*
X167957187Y-171349368I-970296J241922D01*
G01*
G37*
%TD.AperFunction*%
%TA.AperFunction,ComponentPad*%
%TO.P,D24,1*%
%TO.N,Net-(D14-Pad1)*%
G36*
X167698520Y-176520392D02*
G01*
X165757928Y-176036548D01*
X166241772Y-174095956D01*
X168182364Y-174579800D01*
X167698520Y-176520392D01*
G37*
%TD.AperFunction*%
%TD*%
%TO.P,D23,2*%
%TO.N,Net-(D23-Pad2)*%
%TA.AperFunction,ComponentPad*%
G36*
G01*
X162971707Y-150009382D02*
X162971707Y-150009382D01*
G75*
G02*
X162243333Y-148797164I241922J970296D01*
G01*
X162243333Y-148797164D01*
G75*
G02*
X163455551Y-148068790I970296J-241922D01*
G01*
X163455551Y-148068790D01*
G75*
G02*
X164183925Y-149281008I-241922J-970296D01*
G01*
X164183925Y-149281008D01*
G75*
G02*
X162971707Y-150009382I-970296J241922D01*
G01*
G37*
%TD.AperFunction*%
%TA.AperFunction,ComponentPad*%
%TO.P,D23,1*%
%TO.N,Net-(D13-Pad1)*%
G36*
X162713040Y-155180406D02*
G01*
X160772448Y-154696562D01*
X161256292Y-152755970D01*
X163196884Y-153239814D01*
X162713040Y-155180406D01*
G37*
%TD.AperFunction*%
%TD*%
%TO.P,D22,2*%
%TO.N,Net-(D22-Pad2)*%
%TA.AperFunction,ComponentPad*%
G36*
G01*
X162716745Y-130364154D02*
X162716745Y-130364154D01*
G75*
G02*
X161988371Y-129151936I241922J970296D01*
G01*
X161988371Y-129151936D01*
G75*
G02*
X163200589Y-128423562I970296J-241922D01*
G01*
X163200589Y-128423562D01*
G75*
G02*
X163928963Y-129635780I-241922J-970296D01*
G01*
X163928963Y-129635780D01*
G75*
G02*
X162716745Y-130364154I-970296J241922D01*
G01*
G37*
%TD.AperFunction*%
%TA.AperFunction,ComponentPad*%
%TO.P,D22,1*%
%TO.N,Net-(D12-Pad1)*%
G36*
X162458078Y-135535178D02*
G01*
X160517486Y-135051334D01*
X161001330Y-133110742D01*
X162941922Y-133594586D01*
X162458078Y-135535178D01*
G37*
%TD.AperFunction*%
%TD*%
%TO.P,D21,2*%
%TO.N,Net-(D21-Pad2)*%
%TA.AperFunction,ComponentPad*%
G36*
G01*
X158580599Y-109751238D02*
X158580599Y-109751238D01*
G75*
G02*
X157852225Y-108539020I241922J970296D01*
G01*
X157852225Y-108539020D01*
G75*
G02*
X159064443Y-107810646I970296J-241922D01*
G01*
X159064443Y-107810646D01*
G75*
G02*
X159792817Y-109022864I-241922J-970296D01*
G01*
X159792817Y-109022864D01*
G75*
G02*
X158580599Y-109751238I-970296J241922D01*
G01*
G37*
%TD.AperFunction*%
%TA.AperFunction,ComponentPad*%
%TO.P,D21,1*%
%TO.N,Net-(D1-Pad1)*%
G36*
X158321932Y-114922262D02*
G01*
X156381340Y-114438418D01*
X156865184Y-112497826D01*
X158805776Y-112981670D01*
X158321932Y-114922262D01*
G37*
%TD.AperFunction*%
%TD*%
%TO.P,D20,2*%
%TO.N,Net-(D20-Pad2)*%
%TA.AperFunction,ComponentPad*%
G36*
G01*
X170558078Y-191270296D02*
X170558078Y-191270296D01*
G75*
G02*
X169829704Y-190058078I241922J970296D01*
G01*
X169829704Y-190058078D01*
G75*
G02*
X171041922Y-189329704I970296J-241922D01*
G01*
X171041922Y-189329704D01*
G75*
G02*
X171770296Y-190541922I-241922J-970296D01*
G01*
X171770296Y-190541922D01*
G75*
G02*
X170558078Y-191270296I-970296J241922D01*
G01*
G37*
%TD.AperFunction*%
%TA.AperFunction,ComponentPad*%
%TO.P,D20,1*%
%TO.N,Net-(D10-Pad1)*%
G36*
X170299411Y-196441320D02*
G01*
X168358819Y-195957476D01*
X168842663Y-194016884D01*
X170783255Y-194500728D01*
X170299411Y-196441320D01*
G37*
%TD.AperFunction*%
%TD*%
%TO.P,D19,2*%
%TO.N,Net-(D19-Pad2)*%
%TA.AperFunction,ComponentPad*%
G36*
G01*
X149642530Y-166267704D02*
X149642530Y-166267704D01*
G75*
G02*
X148914156Y-165055486I241922J970296D01*
G01*
X148914156Y-165055486D01*
G75*
G02*
X150126374Y-164327112I970296J-241922D01*
G01*
X150126374Y-164327112D01*
G75*
G02*
X150854748Y-165539330I-241922J-970296D01*
G01*
X150854748Y-165539330D01*
G75*
G02*
X149642530Y-166267704I-970296J241922D01*
G01*
G37*
%TD.AperFunction*%
%TA.AperFunction,ComponentPad*%
%TO.P,D19,1*%
%TO.N,Net-(D14-Pad1)*%
G36*
X149383863Y-171438728D02*
G01*
X147443271Y-170954884D01*
X147927115Y-169014292D01*
X149867707Y-169498136D01*
X149383863Y-171438728D01*
G37*
%TD.AperFunction*%
%TD*%
%TO.P,D18,2*%
%TO.N,Net-(D18-Pad2)*%
%TA.AperFunction,ComponentPad*%
G36*
G01*
X144536088Y-145412866D02*
X144536088Y-145412866D01*
G75*
G02*
X143807714Y-144200648I241922J970296D01*
G01*
X143807714Y-144200648D01*
G75*
G02*
X145019932Y-143472274I970296J-241922D01*
G01*
X145019932Y-143472274D01*
G75*
G02*
X145748306Y-144684492I-241922J-970296D01*
G01*
X145748306Y-144684492D01*
G75*
G02*
X144536088Y-145412866I-970296J241922D01*
G01*
G37*
%TD.AperFunction*%
%TA.AperFunction,ComponentPad*%
%TO.P,D18,1*%
%TO.N,Net-(D13-Pad1)*%
G36*
X144277421Y-150583890D02*
G01*
X142336829Y-150100046D01*
X142820673Y-148159454D01*
X144761265Y-148643298D01*
X144277421Y-150583890D01*
G37*
%TD.AperFunction*%
%TD*%
%TO.P,D17,2*%
%TO.N,Net-(D17-Pad2)*%
%TA.AperFunction,ComponentPad*%
G36*
G01*
X144281126Y-125767638D02*
X144281126Y-125767638D01*
G75*
G02*
X143552752Y-124555420I241922J970296D01*
G01*
X143552752Y-124555420D01*
G75*
G02*
X144764970Y-123827046I970296J-241922D01*
G01*
X144764970Y-123827046D01*
G75*
G02*
X145493344Y-125039264I-241922J-970296D01*
G01*
X145493344Y-125039264D01*
G75*
G02*
X144281126Y-125767638I-970296J241922D01*
G01*
G37*
%TD.AperFunction*%
%TA.AperFunction,ComponentPad*%
%TO.P,D17,1*%
%TO.N,Net-(D12-Pad1)*%
G36*
X144022459Y-130938662D02*
G01*
X142081867Y-130454818D01*
X142565711Y-128514226D01*
X144506303Y-128998070D01*
X144022459Y-130938662D01*
G37*
%TD.AperFunction*%
%TD*%
%TO.P,D16,2*%
%TO.N,Net-(D16-Pad2)*%
%TA.AperFunction,ComponentPad*%
G36*
G01*
X140144980Y-105154722D02*
X140144980Y-105154722D01*
G75*
G02*
X139416606Y-103942504I241922J970296D01*
G01*
X139416606Y-103942504D01*
G75*
G02*
X140628824Y-103214130I970296J-241922D01*
G01*
X140628824Y-103214130D01*
G75*
G02*
X141357198Y-104426348I-241922J-970296D01*
G01*
X141357198Y-104426348D01*
G75*
G02*
X140144980Y-105154722I-970296J241922D01*
G01*
G37*
%TD.AperFunction*%
%TA.AperFunction,ComponentPad*%
%TO.P,D16,1*%
%TO.N,Net-(D1-Pad1)*%
G36*
X139886313Y-110325746D02*
G01*
X137945721Y-109841902D01*
X138429565Y-107901310D01*
X140370157Y-108385154D01*
X139886313Y-110325746D01*
G37*
%TD.AperFunction*%
%TD*%
%TO.P,D15,2*%
%TO.N,Net-(D15-Pad2)*%
%TA.AperFunction,ComponentPad*%
G36*
G01*
X133887613Y-181921221D02*
X133887613Y-181921221D01*
G75*
G02*
X133159239Y-180709003I241922J970296D01*
G01*
X133159239Y-180709003D01*
G75*
G02*
X134371457Y-179980629I970296J-241922D01*
G01*
X134371457Y-179980629D01*
G75*
G02*
X135099831Y-181192847I-241922J-970296D01*
G01*
X135099831Y-181192847D01*
G75*
G02*
X133887613Y-181921221I-970296J241922D01*
G01*
G37*
%TD.AperFunction*%
%TA.AperFunction,ComponentPad*%
%TO.P,D15,1*%
%TO.N,Net-(D10-Pad1)*%
G36*
X133628946Y-187092245D02*
G01*
X131688354Y-186608401D01*
X132172198Y-184667809D01*
X134112790Y-185151653D01*
X133628946Y-187092245D01*
G37*
%TD.AperFunction*%
%TD*%
%TO.P,D14,2*%
%TO.N,Net-(D14-Pad2)*%
%TA.AperFunction,ComponentPad*%
G36*
G01*
X131206911Y-161671188D02*
X131206911Y-161671188D01*
G75*
G02*
X130478537Y-160458970I241922J970296D01*
G01*
X130478537Y-160458970D01*
G75*
G02*
X131690755Y-159730596I970296J-241922D01*
G01*
X131690755Y-159730596D01*
G75*
G02*
X132419129Y-160942814I-241922J-970296D01*
G01*
X132419129Y-160942814D01*
G75*
G02*
X131206911Y-161671188I-970296J241922D01*
G01*
G37*
%TD.AperFunction*%
%TA.AperFunction,ComponentPad*%
%TO.P,D14,1*%
%TO.N,Net-(D14-Pad1)*%
G36*
X130948244Y-166842212D02*
G01*
X129007652Y-166358368D01*
X129491496Y-164417776D01*
X131432088Y-164901620D01*
X130948244Y-166842212D01*
G37*
%TD.AperFunction*%
%TD*%
%TO.P,D13,2*%
%TO.N,Net-(D13-Pad2)*%
%TA.AperFunction,ComponentPad*%
G36*
G01*
X126100470Y-140816350D02*
X126100470Y-140816350D01*
G75*
G02*
X125372096Y-139604132I241922J970296D01*
G01*
X125372096Y-139604132D01*
G75*
G02*
X126584314Y-138875758I970296J-241922D01*
G01*
X126584314Y-138875758D01*
G75*
G02*
X127312688Y-140087976I-241922J-970296D01*
G01*
X127312688Y-140087976D01*
G75*
G02*
X126100470Y-140816350I-970296J241922D01*
G01*
G37*
%TD.AperFunction*%
%TA.AperFunction,ComponentPad*%
%TO.P,D13,1*%
%TO.N,Net-(D13-Pad1)*%
G36*
X125841803Y-145987374D02*
G01*
X123901211Y-145503530D01*
X124385055Y-143562938D01*
X126325647Y-144046782D01*
X125841803Y-145987374D01*
G37*
%TD.AperFunction*%
%TD*%
%TO.P,D12,2*%
%TO.N,Net-(D12-Pad2)*%
%TA.AperFunction,ComponentPad*%
G36*
G01*
X125845507Y-121171122D02*
X125845507Y-121171122D01*
G75*
G02*
X125117133Y-119958904I241922J970296D01*
G01*
X125117133Y-119958904D01*
G75*
G02*
X126329351Y-119230530I970296J-241922D01*
G01*
X126329351Y-119230530D01*
G75*
G02*
X127057725Y-120442748I-241922J-970296D01*
G01*
X127057725Y-120442748D01*
G75*
G02*
X125845507Y-121171122I-970296J241922D01*
G01*
G37*
%TD.AperFunction*%
%TA.AperFunction,ComponentPad*%
%TO.P,D12,1*%
%TO.N,Net-(D12-Pad1)*%
G36*
X125586840Y-126342146D02*
G01*
X123646248Y-125858302D01*
X124130092Y-123917710D01*
X126070684Y-124401554D01*
X125586840Y-126342146D01*
G37*
%TD.AperFunction*%
%TD*%
D14*
%TO.P,D11,2*%
%TO.N,Net-(D11-Pad2)*%
X118800000Y-96300000D03*
D15*
%TO.P,D11,1*%
%TO.N,Net-(D1-Pad1)*%
X118800000Y-101380000D03*
%TD*%
D14*
%TO.P,D10,2*%
%TO.N,Net-(D10-Pad2)*%
X98800000Y-174800000D03*
D15*
%TO.P,D10,1*%
%TO.N,Net-(D10-Pad1)*%
X98800000Y-179880000D03*
%TD*%
D14*
%TO.P,D9,2*%
%TO.N,Net-(D9-Pad2)*%
X108300000Y-155800000D03*
D15*
%TO.P,D9,1*%
%TO.N,Net-(D14-Pad1)*%
X108300000Y-160880000D03*
%TD*%
D14*
%TO.P,D8,2*%
%TO.N,Net-(D8-Pad2)*%
X103800000Y-136720000D03*
D15*
%TO.P,D8,1*%
%TO.N,Net-(D13-Pad1)*%
X103800000Y-141800000D03*
%TD*%
D14*
%TO.P,D7,2*%
%TO.N,Net-(D7-Pad2)*%
X103300000Y-117720000D03*
D15*
%TO.P,D7,1*%
%TO.N,Net-(D12-Pad1)*%
X103300000Y-122800000D03*
%TD*%
D14*
%TO.P,D6,2*%
%TO.N,Net-(D6-Pad2)*%
X99800000Y-98720000D03*
D15*
%TO.P,D6,1*%
%TO.N,Net-(D1-Pad1)*%
X99800000Y-103800000D03*
%TD*%
D14*
%TO.P,D5,2*%
%TO.N,Net-(D5-Pad2)*%
X70300000Y-174300000D03*
D15*
%TO.P,D5,1*%
%TO.N,Net-(D10-Pad1)*%
X70300000Y-179380000D03*
%TD*%
D14*
%TO.P,D4,2*%
%TO.N,Net-(D4-Pad2)*%
X89300000Y-155720000D03*
D15*
%TO.P,D4,1*%
%TO.N,Net-(D14-Pad1)*%
X89300000Y-160800000D03*
%TD*%
D14*
%TO.P,D3,2*%
%TO.N,Net-(D3-Pad2)*%
X77800000Y-136720000D03*
D15*
%TO.P,D3,1*%
%TO.N,Net-(D13-Pad1)*%
X77800000Y-141800000D03*
%TD*%
D14*
%TO.P,D2,2*%
%TO.N,Net-(D2-Pad2)*%
X79300000Y-117720000D03*
D15*
%TO.P,D2,1*%
%TO.N,Net-(D12-Pad1)*%
X79300000Y-122800000D03*
%TD*%
D14*
%TO.P,D1,2*%
%TO.N,Net-(D1-Pad2)*%
X80800000Y-98720000D03*
D15*
%TO.P,D1,1*%
%TO.N,Net-(D1-Pad1)*%
X80800000Y-103800000D03*
%TD*%
D16*
%TO.N,Net-(D1-Pad2)*%
X80100000Y-99420000D02*
X80800000Y-98720000D01*
X73740000Y-99420000D02*
X80100000Y-99420000D01*
%TO.N,Net-(D2-Pad2)*%
X78550000Y-118470000D02*
X79300000Y-117720000D01*
X72540000Y-118470000D02*
X78550000Y-118470000D01*
%TO.N,Net-(D3-Pad2)*%
X77000000Y-137520000D02*
X77800000Y-136720000D01*
X70640000Y-137520000D02*
X77000000Y-137520000D01*
%TO.N,Net-(D4-Pad2)*%
X88450000Y-156570000D02*
X89300000Y-155720000D01*
X70340000Y-156570000D02*
X88450000Y-156570000D01*
%TO.N,Net-(D5-Pad2)*%
X64560000Y-174300000D02*
X63240000Y-175620000D01*
X70300000Y-174300000D02*
X64560000Y-174300000D01*
%TO.N,Net-(D6-Pad2)*%
X99100000Y-99420000D02*
X99800000Y-98720000D01*
X92790000Y-99420000D02*
X99100000Y-99420000D01*
%TO.N,Net-(D7-Pad2)*%
X102550000Y-118470000D02*
X103300000Y-117720000D01*
X96340000Y-118470000D02*
X102550000Y-118470000D01*
%TO.N,Net-(D8-Pad2)*%
X103000000Y-137520000D02*
X103800000Y-136720000D01*
X96840000Y-137520000D02*
X103000000Y-137520000D01*
%TO.N,Net-(D9-Pad2)*%
X107530000Y-156570000D02*
X108300000Y-155800000D01*
X101290000Y-156570000D02*
X107530000Y-156570000D01*
%TO.N,Net-(D10-Pad2)*%
X92660000Y-174800000D02*
X91840000Y-175620000D01*
X98800000Y-174800000D02*
X92660000Y-174800000D01*
%TO.N,Net-(D11-Pad2)*%
X117880000Y-97220000D02*
X118800000Y-96300000D01*
X111840000Y-97220000D02*
X117880000Y-97220000D01*
%TO.N,Net-(D12-Pad2)*%
X125143470Y-119256867D02*
X126087429Y-120200826D01*
X119201244Y-119256867D02*
X125143470Y-119256867D01*
%TO.N,Net-(D13-Pad2)*%
X125446948Y-138950610D02*
X126342392Y-139846054D01*
X119444110Y-138950610D02*
X125446948Y-138950610D01*
%TO.N,Net-(D14-Pad2)*%
X130589807Y-159841866D02*
X131448833Y-160700892D01*
X124489941Y-159841866D02*
X130589807Y-159841866D01*
%TO.N,Net-(D15-Pad2)*%
X133198063Y-180019453D02*
X134129535Y-180950925D01*
X126673399Y-180019453D02*
X133198063Y-180019453D01*
%TO.N,Net-(D16-Pad2)*%
X139394428Y-103191952D02*
X140386902Y-104184426D01*
X133512813Y-103191952D02*
X139394428Y-103191952D01*
%TO.N,Net-(D17-Pad2)*%
X143591185Y-123865479D02*
X144523048Y-124797342D01*
X137685377Y-123865479D02*
X143591185Y-123865479D01*
%TO.N,Net-(D18-Pad2)*%
X143894662Y-143559222D02*
X144778010Y-144442570D01*
X137928244Y-143559222D02*
X143894662Y-143559222D01*
%TO.N,Net-(D19-Pad2)*%
X149037522Y-164450478D02*
X149884452Y-165297408D01*
X142974074Y-164450478D02*
X149037522Y-164450478D01*
%TO.N,Net-(D20-Pad2)*%
X157734917Y-190300000D02*
X170800000Y-190300000D01*
X154460496Y-187025579D02*
X157734917Y-190300000D01*
%TO.N,Net-(D21-Pad2)*%
X157842143Y-107800564D02*
X158822521Y-108780942D01*
X151996947Y-107800564D02*
X157842143Y-107800564D01*
%TO.N,Net-(D22-Pad2)*%
X162038900Y-128474091D02*
X162958667Y-129393858D01*
X156169511Y-128474091D02*
X162038900Y-128474091D01*
%TO.N,Net-(D23-Pad2)*%
X162342377Y-148167834D02*
X163213629Y-149039086D01*
X156412378Y-148167834D02*
X162342377Y-148167834D01*
%TO.N,Net-(D24-Pad2)*%
X166879127Y-169059090D02*
X168199109Y-170379072D01*
X161458208Y-169059090D02*
X166879127Y-169059090D01*
%TO.N,Net-(D25-Pad2)*%
X184800000Y-182800000D02*
X182800000Y-182800000D01*
X182033809Y-183566191D02*
X182033809Y-193717919D01*
X182033809Y-193717919D02*
X182247594Y-193931704D01*
X182800000Y-182800000D02*
X182033809Y-183566191D01*
%TO.N,Net-(D26-Pad2)*%
X171449362Y-113377458D02*
X170481080Y-112409176D01*
X177258140Y-113377458D02*
X171449362Y-113377458D01*
%TO.N,Net-(D27-Pad2)*%
X175561316Y-133990374D02*
X174653645Y-133082703D01*
X181394285Y-133990374D02*
X175561316Y-133990374D01*
%TO.N,Net-(D28-Pad2)*%
X174300000Y-153372957D02*
X174896511Y-152776446D01*
X174300000Y-171800000D02*
X174300000Y-153372957D01*
X176490150Y-173990150D02*
X174300000Y-171800000D01*
X176800000Y-173990150D02*
X176490150Y-173990150D01*
X171809875Y-178980275D02*
X176800000Y-173990150D01*
X170119725Y-178980275D02*
X171809875Y-178980275D01*
X170119725Y-169980275D02*
X170119725Y-178980275D01*
X170800000Y-169300000D02*
X170119725Y-169980275D01*
X162299999Y-160799999D02*
X170800000Y-169300000D01*
X162299999Y-157799999D02*
X162299999Y-160799999D01*
X161300000Y-156800000D02*
X162299999Y-157799999D01*
%TO.N,Net-(D29-Pad2)*%
X180886040Y-174611401D02*
X179942342Y-173667703D01*
X186800000Y-174611401D02*
X180886040Y-174611401D01*
%TO.N,Net-(D30-Pad2)*%
X188318560Y-116371134D02*
X188965214Y-117017788D01*
X180364831Y-116371134D02*
X188318560Y-116371134D01*
X175435965Y-121300000D02*
X180364831Y-116371134D01*
X175300000Y-121300000D02*
X175435965Y-121300000D01*
%TO.N,Net-(D31-Pad2)*%
X193137778Y-141753424D02*
X193137778Y-137691315D01*
X190560265Y-144330937D02*
X193137778Y-141753424D01*
X181830937Y-144330937D02*
X190560265Y-144330937D01*
X179300000Y-141800000D02*
X181830937Y-144330937D01*
%TO.N,Net-(D32-Pad2)*%
X226467581Y-116037831D02*
X228818468Y-113686944D01*
X222283070Y-116037831D02*
X226467581Y-116037831D01*
%TO.N,Net-(D33-Pad2)*%
X220522004Y-134299860D02*
X218110506Y-136711358D01*
X224682322Y-134299860D02*
X220522004Y-134299860D01*
%TO.N,Net-(D33-Pad1)*%
X372610000Y-121800000D02*
X373680000Y-120730000D01*
X364600000Y-121800000D02*
X372610000Y-121800000D01*
%TO.N,Net-(D34-Pad2)*%
X240718539Y-132102746D02*
X243117941Y-129703344D01*
X236594639Y-132102746D02*
X240718539Y-132102746D01*
%TO.N,Net-(D35-Pad2)*%
X231670304Y-153985882D02*
X234130317Y-151525869D01*
X227570596Y-153985882D02*
X231670304Y-153985882D01*
%TO.N,Net-(D36-Pad2)*%
X221067176Y-173348395D02*
X218546553Y-175869018D01*
X225142693Y-173348395D02*
X221067176Y-173348395D01*
%TO.N,Net-(D37-Pad2)*%
X244915296Y-111429219D02*
X247254087Y-109090428D01*
X240767203Y-111429219D02*
X244915296Y-111429219D01*
%TO.N,Net-(D38-Pad2)*%
X259166255Y-127494133D02*
X261553560Y-125106828D01*
X255078773Y-127494133D02*
X259166255Y-127494133D01*
%TO.N,Net-(D39-Pad2)*%
X250118019Y-149377270D02*
X252565936Y-146929353D01*
X246054730Y-149377270D02*
X250118019Y-149377270D01*
%TO.N,Net-(D40-Pad2)*%
X241069785Y-171260406D02*
X243578312Y-168751879D01*
X237030687Y-171260406D02*
X241069785Y-171260406D01*
%TO.N,Net-(D41-Pad2)*%
X230154787Y-193562516D02*
X232663444Y-191053859D01*
X226321974Y-193562516D02*
X230154787Y-193562516D01*
%TO.N,Net-(D42-Pad2)*%
X259517500Y-166651794D02*
X262013931Y-164155363D01*
X255514821Y-166651794D02*
X259517500Y-166651794D01*
%TO.N,Net-(D43-Pad2)*%
X263363011Y-106820607D02*
X265689706Y-104493912D01*
X259251337Y-106820607D02*
X263363011Y-106820607D01*
%TO.N,Net-(D45-Pad2)*%
X268565734Y-144768658D02*
X271001555Y-142332837D01*
X264538863Y-144768658D02*
X268565734Y-144768658D01*
%TO.N,Net-(D46-Pad2)*%
X281810725Y-102211995D02*
X284125324Y-99897396D01*
X277735470Y-102211995D02*
X281810725Y-102211995D01*
%TO.N,Net-(D47-Pad2)*%
X301243091Y-118276909D02*
X302800000Y-116720000D01*
X292047040Y-118276909D02*
X301243091Y-118276909D01*
%TO.N,Net-(D48-Pad2)*%
X287013450Y-140160045D02*
X289437174Y-137736321D01*
X283022997Y-140160045D02*
X287013450Y-140160045D01*
%TO.N,Net-(D49-Pad2)*%
X277965214Y-162043182D02*
X280449549Y-159558847D01*
X273998954Y-162043182D02*
X277965214Y-162043182D01*
%TO.N,Net-(D50-Pad2)*%
X306047489Y-97457231D02*
X306747490Y-96757230D01*
X299537490Y-97457231D02*
X306047489Y-97457231D01*
%TO.N,Net-(D51-Pad2)*%
X321050000Y-117470000D02*
X321800000Y-116720000D01*
X315090000Y-117470000D02*
X321050000Y-117470000D01*
%TO.N,Net-(D52-Pad2)*%
X315500000Y-136520000D02*
X316300000Y-135720000D01*
X309840000Y-136520000D02*
X315500000Y-136520000D01*
%TO.N,Net-(D53-Pad2)*%
X301085430Y-157434570D02*
X303800000Y-154720000D01*
X292483088Y-157434570D02*
X301085430Y-157434570D01*
%TO.N,Net-(D54-Pad2)*%
X299928779Y-176347785D02*
X302582589Y-173693975D01*
X295658941Y-176347785D02*
X299928779Y-176347785D01*
%TO.N,Net-(D55-Pad2)*%
X325100000Y-98420000D02*
X325800000Y-97720000D01*
X318640000Y-98420000D02*
X325100000Y-98420000D01*
%TO.N,Net-(D56-Pad2)*%
X340050000Y-117470000D02*
X340800000Y-116720000D01*
X334140000Y-117470000D02*
X340050000Y-117470000D01*
%TO.N,Net-(D57-Pad2)*%
X329690000Y-135720000D02*
X328890000Y-136520000D01*
X335600000Y-135720000D02*
X329690000Y-135720000D01*
%TO.N,Net-(D58-Pad2)*%
X321430000Y-155570000D02*
X322200000Y-154800000D01*
X315440000Y-155570000D02*
X321430000Y-155570000D01*
%TO.N,Net-(D60-Pad2)*%
X346275001Y-99384999D02*
X347240000Y-98420000D01*
X341098998Y-98420000D02*
X338300000Y-101218998D01*
X347240000Y-98420000D02*
X341098998Y-98420000D01*
X338300000Y-101218998D02*
X338300000Y-105800000D01*
X338300000Y-105800000D02*
X325800000Y-105800000D01*
%TO.N,Net-(D61-Pad2)*%
X361550000Y-117470000D02*
X362300000Y-116720000D01*
X357940000Y-117470000D02*
X361550000Y-117470000D01*
X362300000Y-116720000D02*
X364600000Y-116720000D01*
%TO.N,Net-(D62-Pad2)*%
X335600000Y-143800000D02*
X353300000Y-143800000D01*
X358938998Y-136520000D02*
X359840000Y-136520000D01*
X353300000Y-142158998D02*
X358938998Y-136520000D01*
X353300000Y-143800000D02*
X353300000Y-142158998D01*
%TO.N,Net-(D63-Pad2)*%
X347350000Y-155570000D02*
X348200000Y-154720000D01*
X341640000Y-155570000D02*
X347350000Y-155570000D01*
%TO.N,Net-(D64-Pad2)*%
X359400000Y-174620000D02*
X360300000Y-173720000D01*
X353090000Y-174620000D02*
X359400000Y-174620000D01*
%TO.N,Net-(SW1-Pad1)*%
X67390000Y-119810000D02*
X66190000Y-121010000D01*
X67390000Y-101960000D02*
X67390000Y-119810000D01*
X66190000Y-138160000D02*
X64290000Y-140060000D01*
X66190000Y-121010000D02*
X66190000Y-138160000D01*
X64290000Y-158810000D02*
X63990000Y-159110000D01*
X64290000Y-140060000D02*
X64290000Y-158810000D01*
X63990000Y-171060000D02*
X56890000Y-178160000D01*
X63990000Y-159110000D02*
X63990000Y-171060000D01*
X64422234Y-121010000D02*
X62800000Y-122632234D01*
X66190000Y-121010000D02*
X64422234Y-121010000D01*
X62800000Y-122632234D02*
X62800000Y-123800000D01*
X54390000Y-123800000D02*
X53920000Y-124270000D01*
X62800000Y-123800000D02*
X54390000Y-123800000D01*
%TO.N,Net-(SW10-Pad1)*%
X86440000Y-117460000D02*
X89990000Y-121010000D01*
X86440000Y-101960000D02*
X86440000Y-117460000D01*
X89990000Y-139560000D02*
X90490000Y-140060000D01*
X89990000Y-121010000D02*
X89990000Y-139560000D01*
X90490000Y-140060000D02*
X90490000Y-143490000D01*
X94940000Y-147940000D02*
X94940000Y-159110000D01*
X90490000Y-143490000D02*
X94940000Y-147940000D01*
X94940000Y-162156002D02*
X89300000Y-167796002D01*
X94940000Y-159110000D02*
X94940000Y-162156002D01*
X89300000Y-167796002D02*
X89300000Y-167800000D01*
X85490000Y-171610000D02*
X85490000Y-178160000D01*
X89300000Y-167800000D02*
X85490000Y-171610000D01*
X69623999Y-97394999D02*
X64300000Y-102718998D01*
X81874999Y-97394999D02*
X69623999Y-97394999D01*
X86440000Y-101960000D02*
X81874999Y-97394999D01*
X64300000Y-102718998D02*
X64300000Y-120300000D01*
X64300000Y-120300000D02*
X63800000Y-120300000D01*
X62370000Y-121730000D02*
X53920000Y-121730000D01*
X63800000Y-120300000D02*
X62370000Y-121730000D01*
%TO.N,Net-(SW11-Pad1)*%
X117714082Y-178764342D02*
X117714082Y-160770213D01*
X119897540Y-180947800D02*
X117714082Y-178764342D01*
X112668251Y-139878957D02*
X112668251Y-144168251D01*
X117714082Y-149214082D02*
X117714082Y-160770213D01*
X112668251Y-144168251D02*
X117714082Y-149214082D01*
X112425385Y-139636091D02*
X112668251Y-139878957D01*
X112425385Y-120185214D02*
X112425385Y-139636091D01*
X105490000Y-99760000D02*
X105490000Y-102490000D01*
X105490000Y-102490000D02*
X112300000Y-109300000D01*
X112300000Y-120059829D02*
X112425385Y-120185214D01*
X112300000Y-109300000D02*
X112300000Y-120059829D01*
X104260000Y-99760000D02*
X105490000Y-99760000D01*
X80800000Y-96800000D02*
X80944989Y-96944989D01*
X80944989Y-96944989D02*
X101444989Y-96944989D01*
X69582588Y-96800000D02*
X80800000Y-96800000D01*
X101444989Y-96944989D02*
X104260000Y-99760000D01*
X63849991Y-102532597D02*
X69582588Y-96800000D01*
X63849990Y-118750010D02*
X63849991Y-102532597D01*
X63410000Y-119190000D02*
X63849990Y-118750010D01*
X53920000Y-119190000D02*
X63410000Y-119190000D01*
%TO.N,Net-(SW16-Pad1)*%
X126736954Y-104120299D02*
X126736954Y-108236954D01*
X130909518Y-112409518D02*
X130909518Y-124793826D01*
X126736954Y-108236954D02*
X130909518Y-112409518D01*
X130909518Y-144244702D02*
X131152385Y-144487569D01*
X130909518Y-124793826D02*
X130909518Y-144244702D01*
X131152385Y-148232500D02*
X135719885Y-152800000D01*
X131152385Y-144487569D02*
X131152385Y-148232500D01*
X135719885Y-164900495D02*
X136198215Y-165378825D01*
X135719885Y-152800000D02*
X135719885Y-164900495D01*
X136198215Y-165378825D02*
X136198215Y-169698215D01*
X136198215Y-169698215D02*
X148300000Y-181800000D01*
X148300000Y-187338563D02*
X147684637Y-187953926D01*
X148300000Y-181800000D02*
X148300000Y-187338563D01*
X103125001Y-94974999D02*
X101605021Y-96494979D01*
X119436001Y-94974999D02*
X103125001Y-94974999D01*
X126736954Y-102275952D02*
X119436001Y-94974999D01*
X126736954Y-104120299D02*
X126736954Y-102275952D01*
X80986400Y-96349990D02*
X69396187Y-96349991D01*
X81131389Y-96494979D02*
X80986400Y-96349990D01*
X69396187Y-96349991D02*
X63300000Y-102446178D01*
X101605021Y-96494979D02*
X81131389Y-96494979D01*
X63300000Y-102446178D02*
X63300000Y-115800000D01*
X54770000Y-115800000D02*
X53920000Y-116650000D01*
X63300000Y-115800000D02*
X54770000Y-115800000D01*
%TO.N,Net-(SW21-Pad1)*%
X175471735Y-194860051D02*
X175471735Y-187628265D01*
X166360940Y-184800000D02*
X164860940Y-183300000D01*
X172643470Y-184800000D02*
X166360940Y-184800000D01*
X175471735Y-187628265D02*
X172643470Y-184800000D01*
X164860940Y-183300000D02*
X158800000Y-183300000D01*
X154682349Y-179182349D02*
X154682349Y-169987437D01*
X158800000Y-183300000D02*
X154682349Y-179182349D01*
X154682349Y-169987437D02*
X154682349Y-159182349D01*
X149636519Y-154136519D02*
X149636519Y-149096181D01*
X154682349Y-159182349D02*
X149636519Y-154136519D01*
X149636519Y-129645305D02*
X149393652Y-129402438D01*
X149636519Y-149096181D02*
X149636519Y-129645305D01*
X145221088Y-108728911D02*
X145221088Y-112721088D01*
X149393652Y-116893652D02*
X149393652Y-129402438D01*
X145221088Y-112721088D02*
X149393652Y-116893652D01*
X145221088Y-106221088D02*
X145221088Y-108728911D01*
X140616951Y-101616951D02*
X145221088Y-106221088D01*
X126714363Y-101616951D02*
X140616951Y-101616951D01*
X119622402Y-94524990D02*
X126714363Y-101616951D01*
X102938601Y-94524989D02*
X119622402Y-94524990D01*
X101663590Y-95800000D02*
X102938601Y-94524989D01*
X69309770Y-95800000D02*
X101663590Y-95800000D01*
X62490000Y-114110000D02*
X62490000Y-102619770D01*
X62490000Y-102619770D02*
X69309770Y-95800000D01*
X53920000Y-114110000D02*
X62490000Y-114110000D01*
%TO.N,Net-(SW26-Pad1)*%
X163705221Y-117082454D02*
X166922767Y-120300000D01*
X163705221Y-113337523D02*
X163705221Y-117082454D01*
X166922767Y-133056031D02*
X167877786Y-134011050D01*
X166922767Y-120300000D02*
X166922767Y-133056031D01*
X167877786Y-153461927D02*
X168120652Y-153704793D01*
X167877786Y-134011050D02*
X167877786Y-153461927D01*
X168120652Y-157449724D02*
X171970928Y-161300000D01*
X168120652Y-153704793D02*
X168120652Y-157449724D01*
X171970928Y-173400495D02*
X173166483Y-174596050D01*
X171970928Y-161300000D02*
X171970928Y-173400495D01*
X158361027Y-106225563D02*
X145874437Y-106225563D01*
X163705221Y-111569757D02*
X158361027Y-106225563D01*
X163705221Y-113337523D02*
X163705221Y-111569757D01*
X144948874Y-105300000D02*
X144936410Y-105300000D01*
X144936410Y-105300000D02*
X140803351Y-101166941D01*
X145874437Y-106225563D02*
X144948874Y-105300000D01*
X119808801Y-94074981D02*
X102525019Y-94074981D01*
X126900763Y-101166941D02*
X119808801Y-94074981D01*
X140803351Y-101166941D02*
X126900763Y-101166941D01*
X69123369Y-95349991D02*
X61800000Y-102673360D01*
X101250010Y-95349990D02*
X69123369Y-95349991D01*
X102525019Y-94074981D02*
X101250010Y-95349990D01*
X60530000Y-111570000D02*
X53920000Y-111570000D01*
X61800000Y-110300000D02*
X60530000Y-111570000D01*
X61800000Y-102673360D02*
X61800000Y-110300000D01*
%TO.N,Net-(SW30-Pad1)*%
X182189355Y-117946135D02*
X182189355Y-122189355D01*
X186361919Y-126361919D02*
X186361919Y-138619662D01*
X182189355Y-122189355D02*
X186361919Y-126361919D01*
X182836009Y-118592789D02*
X182189355Y-117946135D01*
%TO.N,Net-(SW32-Pad1)*%
X212563610Y-124589146D02*
X212563610Y-140712113D01*
X216736174Y-120416582D02*
X212563610Y-124589146D01*
X216736174Y-120038586D02*
X216736174Y-120416582D01*
X213813609Y-149776546D02*
X222023700Y-157986637D01*
X213813609Y-141962112D02*
X213813609Y-149776546D01*
X212563610Y-140712113D02*
X213813609Y-141962112D01*
X217986173Y-123041931D02*
X231047743Y-136103501D01*
X217986173Y-121288585D02*
X217986173Y-123041931D01*
X216736174Y-120038586D02*
X217986173Y-121288585D01*
X212999657Y-178102007D02*
X212999657Y-179869773D01*
X223273699Y-167827965D02*
X212999657Y-178102007D01*
X223273699Y-159236636D02*
X223273699Y-167827965D01*
X222023700Y-157986637D02*
X223273699Y-159236636D01*
X266887137Y-102718902D02*
X267468235Y-103300000D01*
X256730854Y-105300000D02*
X257163590Y-105300000D01*
X348928004Y-94594952D02*
X356300000Y-101966948D01*
X259744688Y-102718902D02*
X266887137Y-102718902D01*
X254265427Y-107765427D02*
X256730854Y-105300000D01*
X276606668Y-99736975D02*
X280264193Y-99736975D01*
X246443009Y-107765427D02*
X254265427Y-107765427D01*
X312163590Y-96800000D02*
X314368638Y-94594952D01*
X244354218Y-109854218D02*
X246443009Y-107765427D01*
X310836430Y-96800000D02*
X312163590Y-96800000D01*
X236463249Y-109800000D02*
X240300000Y-109800000D01*
X227474662Y-118788587D02*
X236463249Y-109800000D01*
X216736174Y-120038586D02*
X217986173Y-118788587D01*
X217986173Y-118788587D02*
X227474662Y-118788587D01*
X356663590Y-104163590D02*
X356663590Y-104527180D01*
X240354218Y-109854218D02*
X244354218Y-109854218D01*
X240300000Y-109800000D02*
X240354218Y-109854218D01*
X267468235Y-103300000D02*
X273043643Y-103300000D01*
X257163590Y-105300000D02*
X259744688Y-102718902D01*
X298381389Y-94082201D02*
X308118632Y-94082202D01*
X356300000Y-103800000D02*
X356663590Y-104163590D01*
X273043643Y-103300000D02*
X276606668Y-99736975D01*
X356300000Y-101966948D02*
X356300000Y-103800000D01*
X280264193Y-99736975D02*
X283201168Y-96800000D01*
X283201168Y-96800000D02*
X295663590Y-96800000D01*
X295663590Y-96800000D02*
X298381389Y-94082201D01*
X308118632Y-94082202D02*
X310836430Y-96800000D01*
X314368638Y-94594952D02*
X348928004Y-94594952D01*
X356663590Y-104527180D02*
X359041409Y-106904999D01*
X385254999Y-104364999D02*
X388920000Y-108030000D01*
X361581409Y-104364999D02*
X385254999Y-104364999D01*
X359041409Y-106904999D02*
X361581409Y-104364999D01*
%TO.N,Net-(SW37-Pad1)*%
X220775078Y-195795505D02*
X233800000Y-182770583D01*
X220775078Y-197563271D02*
X220775078Y-195795505D01*
X233800000Y-182770583D02*
X233800000Y-181300000D01*
X232733790Y-176511160D02*
X231483791Y-175261161D01*
X232733790Y-180233790D02*
X232733790Y-176511160D01*
X233800000Y-181300000D02*
X232733790Y-180233790D01*
X231483791Y-175261161D02*
X231483791Y-175983791D01*
X241757833Y-154628024D02*
X240507834Y-153378025D01*
X241757833Y-163219353D02*
X241757833Y-154628024D01*
X231483791Y-173493395D02*
X241757833Y-163219353D01*
X231483791Y-175261161D02*
X231483791Y-173493395D01*
X249531877Y-131494888D02*
X251300000Y-133263011D01*
X240507834Y-151610259D02*
X240507834Y-153378025D01*
X251300000Y-140818093D02*
X240507834Y-151610259D01*
X251300000Y-133263011D02*
X251300000Y-140818093D01*
X235220307Y-116102497D02*
X235220307Y-115429974D01*
X238417810Y-119300000D02*
X235220307Y-116102497D01*
X241800000Y-119300000D02*
X238417810Y-119300000D01*
X249531877Y-127031877D02*
X241800000Y-119300000D01*
X249531877Y-131494888D02*
X249531877Y-127031877D01*
X237350281Y-113300000D02*
X235220307Y-115429974D01*
X245005517Y-113300000D02*
X237350281Y-113300000D01*
X327681380Y-95044970D02*
X314555030Y-95044970D01*
X253853639Y-109246361D02*
X249059156Y-109246361D01*
X331436410Y-98800000D02*
X327681380Y-95044970D01*
X280450593Y-100186985D02*
X276793068Y-100186985D01*
X314555030Y-95044970D02*
X312200020Y-97399980D01*
X355700020Y-104200020D02*
X355700019Y-102003377D01*
X362300000Y-110800000D02*
X355700020Y-104200020D01*
X341055039Y-95044961D02*
X337300000Y-98800000D01*
X363300000Y-110800000D02*
X362300000Y-110800000D01*
X267250010Y-103849990D02*
X266568931Y-103168911D01*
X355700019Y-102003377D02*
X348741603Y-95044961D01*
X337300000Y-98800000D02*
X331436410Y-98800000D01*
X312200020Y-97399980D02*
X310800000Y-97399980D01*
X348741603Y-95044961D02*
X341055039Y-95044961D01*
X310800000Y-97399980D02*
X307932231Y-94532211D01*
X249059156Y-109246361D02*
X245005517Y-113300000D01*
X307932231Y-94532211D02*
X298567789Y-94532211D01*
X298567789Y-94532211D02*
X295800000Y-97300000D01*
X295800000Y-97300000D02*
X283337578Y-97300000D01*
X283337578Y-97300000D02*
X280450593Y-100186985D01*
X257854394Y-105245606D02*
X253853639Y-109246361D01*
X276793068Y-100186985D02*
X273130063Y-103849990D01*
X364655001Y-109444999D02*
X363300000Y-110800000D01*
X273130063Y-103849990D02*
X267250010Y-103849990D01*
X266568931Y-103168911D02*
X264931089Y-103168911D01*
X264931089Y-103168911D02*
X262854394Y-105245606D01*
X262854394Y-105245606D02*
X257854394Y-105245606D01*
X385254999Y-106904999D02*
X388920000Y-110570000D01*
X373139999Y-106904999D02*
X385254999Y-106904999D01*
X370599999Y-109444999D02*
X373139999Y-106904999D01*
X364655001Y-109444999D02*
X370599999Y-109444999D01*
%TO.N,Net-(SW42-Pad1)*%
X256899748Y-114689192D02*
X259910808Y-114689192D01*
X254954440Y-112743884D02*
X256899748Y-114689192D01*
X254954440Y-112071361D02*
X254954440Y-112743884D01*
X253704441Y-110821362D02*
X254954440Y-112071361D01*
X268016010Y-122794394D02*
X268016010Y-126886276D01*
X259910808Y-114689192D02*
X268016010Y-122794394D01*
X269266009Y-128136275D02*
X269266009Y-137266009D01*
X268016010Y-126886276D02*
X269266009Y-128136275D01*
X258991967Y-147540051D02*
X258991967Y-148769413D01*
X269266009Y-137266009D02*
X258991967Y-147540051D01*
X260241966Y-150019412D02*
X260241966Y-157241966D01*
X258991967Y-148769413D02*
X260241966Y-150019412D01*
X249967925Y-167516007D02*
X249967925Y-170652549D01*
X260241966Y-157241966D02*
X249967925Y-167516007D01*
X251217924Y-184712103D02*
X255428919Y-188923098D01*
X251217924Y-171902548D02*
X251217924Y-184712103D01*
X249967925Y-170652549D02*
X251217924Y-171902548D01*
X264370092Y-109571363D02*
X269641455Y-104300000D01*
X254954440Y-109571363D02*
X264370092Y-109571363D01*
X253704441Y-110821362D02*
X254954440Y-109571363D01*
X276979469Y-100636994D02*
X280636994Y-100636994D01*
X273316463Y-104300000D02*
X276979469Y-100636994D01*
X269641455Y-104300000D02*
X273316463Y-104300000D01*
X282701593Y-98572395D02*
X287072395Y-98572395D01*
X280636994Y-100636994D02*
X282701593Y-98572395D01*
X287844790Y-97800000D02*
X296227309Y-97800000D01*
X287072395Y-98572395D02*
X287844790Y-97800000D01*
X307618630Y-94982220D02*
X310486400Y-97849990D01*
X299045090Y-94982219D02*
X307618630Y-94982220D01*
X296227309Y-97800000D02*
X299045090Y-94982219D01*
X314968610Y-95494980D02*
X327494980Y-95494980D01*
X312613600Y-97849990D02*
X314968610Y-95494980D01*
X310486400Y-97849990D02*
X312613600Y-97849990D01*
X327494980Y-95494980D02*
X331300000Y-99300000D01*
X348555203Y-95494971D02*
X355250010Y-102189778D01*
X341332212Y-95494970D02*
X348555203Y-95494971D01*
X337527180Y-99300000D02*
X341332212Y-95494970D01*
X331300000Y-99300000D02*
X337527180Y-99300000D01*
X355250010Y-102189778D02*
X355250010Y-104750010D01*
X355250010Y-104750010D02*
X362484999Y-111984999D01*
X385254999Y-109444999D02*
X388920000Y-113110000D01*
X373139999Y-109444999D02*
X385254999Y-109444999D01*
X371050008Y-111534990D02*
X373139999Y-109444999D01*
X362935008Y-111534990D02*
X371050008Y-111534990D01*
X362484999Y-111984999D02*
X362935008Y-111534990D01*
%TO.N,Net-(SW46-Pad1)*%
X268452058Y-164276171D02*
X275928229Y-156800000D01*
X268452058Y-166043937D02*
X268452058Y-164276171D01*
X275928229Y-156800000D02*
X275928229Y-156671771D01*
X275928229Y-156671771D02*
X279300000Y-153300000D01*
X279300000Y-145984699D02*
X277476101Y-144160800D01*
X279300000Y-153300000D02*
X279300000Y-145984699D01*
X277476101Y-142393034D02*
X284569135Y-135300000D01*
X277476101Y-144160800D02*
X277476101Y-142393034D01*
X284569135Y-135300000D02*
X284569135Y-131030865D01*
X287082351Y-122859871D02*
X286500144Y-122277664D01*
X287082351Y-128517649D02*
X287082351Y-122859871D01*
X284569135Y-131030865D02*
X287082351Y-128517649D01*
X286500144Y-122277664D02*
X286500144Y-118500144D01*
X286500144Y-118500144D02*
X278800000Y-110800000D01*
X272188574Y-106885273D02*
X272188574Y-106212750D01*
X276103301Y-110800000D02*
X272188574Y-106885273D01*
X278800000Y-110800000D02*
X276103301Y-110800000D01*
X282817806Y-104962751D02*
X289480557Y-98300000D01*
X273438573Y-104962751D02*
X282817806Y-104962751D01*
X272188574Y-106212750D02*
X273438573Y-104962751D01*
X299231490Y-95432229D02*
X307432229Y-95432229D01*
X296363719Y-98300000D02*
X299231490Y-95432229D01*
X289480557Y-98300000D02*
X296363719Y-98300000D01*
X310300000Y-98300000D02*
X312800000Y-98300000D01*
X307432229Y-95432229D02*
X310300000Y-98300000D01*
X315155010Y-95944990D02*
X326944990Y-95944990D01*
X312800000Y-98300000D02*
X315155010Y-95944990D01*
X330800000Y-99800000D02*
X337663590Y-99800000D01*
X326944990Y-95944990D02*
X330800000Y-99800000D01*
X354800000Y-102376178D02*
X354800000Y-105202182D01*
X348368802Y-95944980D02*
X354800000Y-102376178D01*
X341518611Y-95944979D02*
X348368802Y-95944980D01*
X337663590Y-99800000D02*
X341518611Y-95944979D01*
X354800000Y-105202182D02*
X354902182Y-105202182D01*
X385254999Y-111984999D02*
X388920000Y-115650000D01*
X365485013Y-111984999D02*
X385254999Y-111984999D01*
X363585006Y-113885006D02*
X365485013Y-111984999D01*
X354902182Y-105202182D02*
X363585006Y-113885006D01*
%TO.N,Net-(SW50-Pad1)*%
X293187490Y-102168233D02*
X296319257Y-105300000D01*
X293187490Y-99997231D02*
X293187490Y-102168233D01*
X296319257Y-105300000D02*
X299300000Y-105300000D01*
X308740000Y-114740000D02*
X308740000Y-120010000D01*
X299300000Y-105300000D02*
X308740000Y-114740000D01*
X308740000Y-133810000D02*
X303490000Y-139060000D01*
X308740000Y-120010000D02*
X308740000Y-133810000D01*
X303490000Y-139060000D02*
X303490000Y-144610000D01*
X286936192Y-159667559D02*
X286936192Y-161435325D01*
X290744182Y-155859569D02*
X286936192Y-159667559D01*
X292240431Y-155859569D02*
X290744182Y-155859569D01*
X303490000Y-144610000D02*
X292240431Y-155859569D01*
X286936192Y-161435325D02*
X288186191Y-162685324D01*
X293799722Y-99384999D02*
X293187490Y-99997231D01*
X313671002Y-98428998D02*
X312715001Y-99384999D01*
X318333999Y-96394999D02*
X316300000Y-98428998D01*
X326436001Y-96394999D02*
X318333999Y-96394999D01*
X354250009Y-102462597D02*
X348182401Y-96394989D01*
X316300000Y-98428998D02*
X313671002Y-98428998D01*
X330341002Y-100300000D02*
X326436001Y-96394999D01*
X337800000Y-100300000D02*
X330341002Y-100300000D01*
X312715001Y-99384999D02*
X293799722Y-99384999D01*
X348182401Y-96394989D02*
X341705011Y-96394989D01*
X354250010Y-105288602D02*
X354250009Y-102462597D01*
X341705011Y-96394989D02*
X337800000Y-100300000D01*
X363200000Y-114238592D02*
X363200000Y-114248616D01*
X354250010Y-105288602D02*
X363200000Y-114238592D01*
X385065016Y-114335016D02*
X388920000Y-118190000D01*
X363286400Y-114335016D02*
X385065016Y-114335016D01*
X363200000Y-114248616D02*
X363286400Y-114335016D01*
X288186191Y-178422686D02*
X288186191Y-162685324D01*
X290112045Y-180348540D02*
X288186191Y-178422686D01*
%TO.N,Net-(SW55-Pad1)*%
X309090000Y-172390000D02*
X309090000Y-158110000D01*
X309090000Y-158110000D02*
X322800000Y-144400000D01*
X322800000Y-139320000D02*
X322540000Y-139060000D01*
X322800000Y-144400000D02*
X322800000Y-139320000D01*
X322540000Y-139060000D02*
X327800000Y-133800000D01*
X327790000Y-133790000D02*
X327790000Y-120010000D01*
X327800000Y-133800000D02*
X327790000Y-133790000D01*
X327790000Y-120010000D02*
X313300000Y-105520000D01*
X313300000Y-101970000D02*
X312290000Y-100960000D01*
X313300000Y-105520000D02*
X313300000Y-101970000D01*
X317195001Y-176195001D02*
X318160000Y-177160000D01*
X312895001Y-176195001D02*
X317195001Y-176195001D01*
X309090000Y-172390000D02*
X312895001Y-176195001D01*
X373139999Y-117064999D02*
X385254999Y-117064999D01*
X371050009Y-119154989D02*
X373139999Y-117064999D01*
X369654989Y-119154989D02*
X371050009Y-119154989D01*
X363100000Y-114785026D02*
X365285026Y-114785026D01*
X385254999Y-117064999D02*
X388920000Y-120730000D01*
X353800000Y-102648998D02*
X353800000Y-105485026D01*
X347996001Y-96844999D02*
X353800000Y-102648998D01*
X342037589Y-96844999D02*
X347996001Y-96844999D01*
X353800000Y-105485026D02*
X363100000Y-114785026D01*
X337922588Y-100960000D02*
X342037589Y-96844999D01*
X365285026Y-114785026D02*
X369654989Y-119154989D01*
X312290000Y-100960000D02*
X337922588Y-100960000D01*
%TO.N,Net-(SW60-Pad1)*%
X340890000Y-111610000D02*
X349290000Y-120010000D01*
X340890000Y-100960000D02*
X340890000Y-111610000D01*
X349290000Y-134860000D02*
X353490000Y-139060000D01*
X349290000Y-120010000D02*
X349290000Y-134860000D01*
X335290000Y-160281002D02*
X340300000Y-165291002D01*
X335290000Y-158110000D02*
X335290000Y-160281002D01*
X340300000Y-175020000D02*
X342440000Y-177160000D01*
X340300000Y-165291002D02*
X340300000Y-175020000D01*
X348657233Y-142125001D02*
X351722234Y-139060000D01*
X334040001Y-142559999D02*
X334474999Y-142125001D01*
X334474999Y-142125001D02*
X348657233Y-142125001D01*
X334040001Y-156860001D02*
X334040001Y-142559999D01*
X351722234Y-139060000D02*
X353490000Y-139060000D01*
X335290000Y-158110000D02*
X334040001Y-156860001D01*
X342440000Y-177160000D02*
X346740000Y-177160000D01*
X349290000Y-120010000D02*
X351590000Y-120010000D01*
X369429999Y-119604999D02*
X385254999Y-119604999D01*
X365219999Y-115394999D02*
X369429999Y-119604999D01*
X356846025Y-115394999D02*
X365219999Y-115394999D01*
X354319099Y-112868073D02*
X356846025Y-115394999D01*
X354319099Y-109815101D02*
X354319099Y-112868073D01*
X345463998Y-100960000D02*
X354319099Y-109815101D01*
X385254999Y-119604999D02*
X388920000Y-123270000D01*
X340890000Y-100960000D02*
X345463998Y-100960000D01*
%TO.N,Net-(D65-Pad2)*%
X260975815Y-187319452D02*
X260975815Y-184922343D01*
X263800000Y-190143637D02*
X260975815Y-187319452D01*
X263300000Y-195800000D02*
X263800000Y-195300000D01*
X245300000Y-195800000D02*
X263300000Y-195800000D01*
X263800000Y-195300000D02*
X263800000Y-190143637D01*
X242107891Y-198992109D02*
X245300000Y-195800000D01*
X234642672Y-198992109D02*
X242107891Y-198992109D01*
%TD*%
M02*
