%TF.GenerationSoftware,KiCad,Pcbnew,(5.1.7)-1*%
%TF.CreationDate,2021-08-08T11:48:14+10:00*%
%TF.ProjectId,ume,756d652e-6b69-4636-9164-5f7063625858,rev?*%
%TF.SameCoordinates,Original*%
%TF.FileFunction,Soldermask,Top*%
%TF.FilePolarity,Negative*%
%FSLAX46Y46*%
G04 Gerber Fmt 4.6, Leading zero omitted, Abs format (unit mm)*
G04 Created by KiCad (PCBNEW (5.1.7)-1) date 2021-08-08 11:48:14*
%MOMM*%
%LPD*%
G01*
G04 APERTURE LIST*
%ADD10C,1.600000*%
%ADD11R,1.600000X1.600000*%
%ADD12C,1.750000*%
%ADD13C,4.000000*%
%ADD14C,3.048000*%
%ADD15C,3.987800*%
%ADD16C,0.100000*%
%ADD17O,2.000000X2.000000*%
%ADD18R,2.000000X2.000000*%
G04 APERTURE END LIST*
D10*
%TO.C,U2*%
X388920000Y-95330000D03*
X388920000Y-97870000D03*
X388920000Y-100410000D03*
X388920000Y-102950000D03*
X388920000Y-105490000D03*
X388920000Y-108030000D03*
X388920000Y-110570000D03*
X388920000Y-113110000D03*
X388920000Y-115650000D03*
X388920000Y-118190000D03*
X388920000Y-120730000D03*
X388920000Y-123270000D03*
X373680000Y-123270000D03*
X373680000Y-120730000D03*
X373680000Y-118190000D03*
X373680000Y-115650000D03*
X373680000Y-113110000D03*
X373680000Y-110570000D03*
X373680000Y-108030000D03*
X373680000Y-105490000D03*
X373680000Y-102950000D03*
X373680000Y-100410000D03*
X373680000Y-97870000D03*
D11*
X373680000Y-95330000D03*
%TD*%
D12*
%TO.C,SW61*%
X360480000Y-122550000D03*
X350320000Y-122550000D03*
D13*
X355400000Y-122550000D03*
%TD*%
D12*
%TO.C,SW16*%
X134748401Y-108735536D03*
X124890197Y-106277610D03*
D13*
X129819299Y-107506573D03*
%TD*%
D12*
%TO.C,SW1*%
X76280000Y-104500000D03*
X66120000Y-104500000D03*
D13*
X71200000Y-104500000D03*
%TD*%
D12*
%TO.C,SW65*%
X264669329Y-189236964D03*
X254811125Y-191694890D03*
D13*
X259740227Y-190465927D03*
%TD*%
D14*
%TO.C,REF\u002A\u002A*%
X249846661Y-200131506D03*
X273013442Y-194355379D03*
D15*
X246159771Y-185344199D03*
X269326552Y-179568072D03*
%TD*%
D12*
%TO.C,SW59*%
X327050000Y-179700000D03*
X316890000Y-179700000D03*
D13*
X321970000Y-179700000D03*
%TD*%
D12*
%TO.C,SW64*%
X355630000Y-179700000D03*
X345470000Y-179700000D03*
D13*
X350550000Y-179700000D03*
%TD*%
D15*
%TO.C,REF\u002A\u002A*%
X345362000Y-149855000D03*
X369238000Y-149855000D03*
D14*
X345362000Y-134615000D03*
X369238000Y-134615000D03*
%TD*%
D12*
%TO.C,SW62*%
X362380000Y-141600000D03*
X352220000Y-141600000D03*
D13*
X357300000Y-141600000D03*
%TD*%
D12*
%TO.C,SW63*%
X344180000Y-160650000D03*
X334020000Y-160650000D03*
D13*
X339100000Y-160650000D03*
%TD*%
D12*
%TO.C,SW10*%
X94380000Y-180700000D03*
X84220000Y-180700000D03*
D13*
X89300000Y-180700000D03*
%TD*%
D12*
%TO.C,SW5*%
X65780000Y-180700000D03*
X55620000Y-180700000D03*
D13*
X60700000Y-180700000D03*
%TD*%
D14*
%TO.C,REF\u002A\u002A*%
X356638000Y-96515000D03*
X332762000Y-96515000D03*
D15*
X356638000Y-111755000D03*
X332762000Y-111755000D03*
%TD*%
D12*
%TO.C,SW60*%
X349780000Y-103500000D03*
X339620000Y-103500000D03*
D13*
X344700000Y-103500000D03*
%TD*%
D14*
%TO.C,REF\u002A\u002A*%
X137493767Y-195229652D03*
X160660548Y-201005779D03*
D15*
X141180657Y-180442345D03*
X164347438Y-186218472D03*
%TD*%
D12*
%TO.C,SW20*%
X155696084Y-192569163D03*
X145837880Y-190111237D03*
D13*
X150766982Y-191340200D03*
%TD*%
D15*
%TO.C,REF\u002A\u002A*%
X55862000Y-169905000D03*
X79738000Y-169905000D03*
D14*
X55862000Y-154665000D03*
X79738000Y-154665000D03*
%TD*%
D12*
%TO.C,SW4*%
X72880000Y-161650000D03*
X62720000Y-161650000D03*
D13*
X67800000Y-161650000D03*
%TD*%
D12*
%TO.C,SW3*%
X73180000Y-142600000D03*
X63020000Y-142600000D03*
D13*
X68100000Y-142600000D03*
%TD*%
D12*
%TO.C,SW2*%
X75080000Y-123550000D03*
X64920000Y-123550000D03*
D13*
X70000000Y-123550000D03*
%TD*%
D12*
%TO.C,SW6*%
X95330000Y-104500000D03*
X85170000Y-104500000D03*
D13*
X90250000Y-104500000D03*
%TD*%
D12*
%TO.C,SW7*%
X98880000Y-123550000D03*
X88720000Y-123550000D03*
D13*
X93800000Y-123550000D03*
%TD*%
D12*
%TO.C,SW8*%
X99380000Y-142600000D03*
X89220000Y-142600000D03*
D13*
X94300000Y-142600000D03*
%TD*%
D12*
%TO.C,SW9*%
X103830000Y-161650000D03*
X93670000Y-161650000D03*
D13*
X98750000Y-161650000D03*
%TD*%
D12*
%TO.C,SW11*%
X114380000Y-102300000D03*
X104220000Y-102300000D03*
D13*
X109300000Y-102300000D03*
%TD*%
D12*
%TO.C,SW12*%
X120436832Y-124800451D03*
X110578628Y-122342525D03*
D13*
X115507730Y-123571488D03*
%TD*%
D12*
%TO.C,SW13*%
X120679698Y-144494194D03*
X110821494Y-142036268D03*
D13*
X115750596Y-143265231D03*
%TD*%
D12*
%TO.C,SW14*%
X125725529Y-165385450D03*
X115867325Y-162927524D03*
D13*
X120796427Y-164156487D03*
%TD*%
D12*
%TO.C,SW15*%
X127908987Y-185563037D03*
X118050783Y-183105111D03*
D13*
X122979885Y-184334074D03*
%TD*%
D12*
%TO.C,SW17*%
X138920965Y-129409063D03*
X129062761Y-126951137D03*
D13*
X133991863Y-128180100D03*
%TD*%
D12*
%TO.C,SW18*%
X139163832Y-149102806D03*
X129305628Y-146644880D03*
D13*
X134234730Y-147873843D03*
%TD*%
D12*
%TO.C,SW19*%
X144209662Y-169994062D03*
X134351458Y-167536136D03*
D13*
X139280560Y-168765099D03*
%TD*%
D12*
%TO.C,SW21*%
X153232535Y-113344148D03*
X143374331Y-110886222D03*
D13*
X148303433Y-112115185D03*
%TD*%
D12*
%TO.C,SW22*%
X157405099Y-134017675D03*
X147546895Y-131559749D03*
D13*
X152475997Y-132788712D03*
%TD*%
D12*
%TO.C,SW23*%
X157647966Y-153711418D03*
X147789762Y-151253492D03*
D13*
X152718864Y-152482455D03*
%TD*%
D12*
%TO.C,SW24*%
X162693796Y-174602674D03*
X152835592Y-172144748D03*
D13*
X157764694Y-173373711D03*
%TD*%
D12*
%TO.C,SW25*%
X183483182Y-199475288D03*
X173624978Y-197017362D03*
D13*
X178554080Y-198246325D03*
%TD*%
D12*
%TO.C,SW26*%
X171716668Y-117952760D03*
X161858464Y-115494834D03*
D13*
X166787566Y-116723797D03*
%TD*%
D12*
%TO.C,SW27*%
X175889233Y-138626287D03*
X166031029Y-136168361D03*
D13*
X170960131Y-137397324D03*
%TD*%
D12*
%TO.C,SW28*%
X176132099Y-158320030D03*
X166273895Y-155862104D03*
D13*
X171202997Y-157091067D03*
%TD*%
D12*
%TO.C,SW29*%
X181177930Y-179211287D03*
X171319726Y-176753361D03*
D13*
X176248828Y-177982324D03*
%TD*%
D12*
%TO.C,SW30*%
X190200802Y-122561372D03*
X180342598Y-120103446D03*
D13*
X185271700Y-121332409D03*
%TD*%
D12*
%TO.C,SW31*%
X194373366Y-143234899D03*
X184515162Y-140776973D03*
D13*
X189444264Y-142005936D03*
%TD*%
D12*
%TO.C,SW32*%
X225976584Y-120352452D03*
X216118380Y-122810378D03*
D13*
X221047482Y-121581415D03*
%TD*%
D12*
%TO.C,SW33*%
X221804020Y-141025979D03*
X211945816Y-143483905D03*
D13*
X216874918Y-142254942D03*
%TD*%
D12*
%TO.C,SW34*%
X240288153Y-136417367D03*
X230429949Y-138875293D03*
D13*
X235359051Y-137646330D03*
%TD*%
D12*
%TO.C,SW35*%
X231264110Y-158300503D03*
X221405906Y-160758429D03*
D13*
X226335008Y-159529466D03*
%TD*%
D12*
%TO.C,SW36*%
X222240067Y-180183639D03*
X212381863Y-182641565D03*
D13*
X217310965Y-181412602D03*
%TD*%
D12*
%TO.C,SW37*%
X244460717Y-115743840D03*
X234602513Y-118201766D03*
D13*
X239531615Y-116972803D03*
%TD*%
D12*
%TO.C,SW38*%
X258772287Y-131808754D03*
X248914083Y-134266680D03*
D13*
X253843185Y-133037717D03*
%TD*%
D12*
%TO.C,SW39*%
X249748244Y-153691891D03*
X239890040Y-156149817D03*
D13*
X244819142Y-154920854D03*
%TD*%
D12*
%TO.C,SW40*%
X240724201Y-175575027D03*
X230865997Y-178032953D03*
D13*
X235795099Y-176803990D03*
%TD*%
D12*
%TO.C,SW41*%
X230015488Y-197877137D03*
X220157284Y-200335063D03*
D13*
X225086386Y-199106100D03*
%TD*%
D12*
%TO.C,SW42*%
X262944851Y-111135228D03*
X253086647Y-113593154D03*
D13*
X258015749Y-112364191D03*
%TD*%
D12*
%TO.C,SW43*%
X277256420Y-127200142D03*
X267398216Y-129658068D03*
D13*
X272327318Y-128429105D03*
%TD*%
D12*
%TO.C,SW44*%
X268232377Y-149083279D03*
X258374173Y-151541205D03*
D13*
X263303275Y-150312242D03*
%TD*%
D12*
%TO.C,SW45*%
X259208335Y-170966415D03*
X249350131Y-173424341D03*
D13*
X254279233Y-172195378D03*
%TD*%
D12*
%TO.C,SW46*%
X281428984Y-106526616D03*
X271570780Y-108984542D03*
D13*
X276499882Y-107755579D03*
%TD*%
D12*
%TO.C,SW47*%
X295740554Y-122591530D03*
X285882350Y-125049456D03*
D13*
X290811452Y-123820493D03*
%TD*%
D12*
%TO.C,SW48*%
X286716511Y-144474666D03*
X276858307Y-146932592D03*
D13*
X281787409Y-145703629D03*
%TD*%
D12*
%TO.C,SW49*%
X277692468Y-166357803D03*
X267834264Y-168815729D03*
D13*
X272763366Y-167586766D03*
%TD*%
D12*
%TO.C,SW50*%
X302077490Y-102537231D03*
X291917490Y-102537231D03*
D13*
X296997490Y-102537231D03*
%TD*%
D12*
%TO.C,SW51*%
X317630000Y-122550000D03*
X307470000Y-122550000D03*
D13*
X312550000Y-122550000D03*
%TD*%
D12*
%TO.C,SW52*%
X312380000Y-141600000D03*
X302220000Y-141600000D03*
D13*
X307300000Y-141600000D03*
%TD*%
D12*
%TO.C,SW53*%
X296176602Y-161749191D03*
X286318398Y-164207117D03*
D13*
X291247500Y-162978154D03*
%TD*%
D12*
%TO.C,SW54*%
X299352455Y-180662406D03*
X289494251Y-183120332D03*
D13*
X294423353Y-181891369D03*
%TD*%
D12*
%TO.C,SW55*%
X321180000Y-103500000D03*
X311020000Y-103500000D03*
D13*
X316100000Y-103500000D03*
%TD*%
D12*
%TO.C,SW56*%
X336680000Y-122550000D03*
X326520000Y-122550000D03*
D13*
X331600000Y-122550000D03*
%TD*%
D12*
%TO.C,SW57*%
X331430000Y-141600000D03*
X321270000Y-141600000D03*
D13*
X326350000Y-141600000D03*
%TD*%
D12*
%TO.C,SW58*%
X317980000Y-160650000D03*
X307820000Y-160650000D03*
D13*
X312900000Y-160650000D03*
%TD*%
%TO.C,D65*%
G36*
G01*
X234884594Y-199962405D02*
X234884594Y-199962405D01*
G75*
G02*
X233672376Y-199234031I-241922J970296D01*
G01*
X233672376Y-199234031D01*
G75*
G02*
X234400750Y-198021813I970296J241922D01*
G01*
X234400750Y-198021813D01*
G75*
G02*
X235612968Y-198750187I241922J-970296D01*
G01*
X235612968Y-198750187D01*
G75*
G02*
X234884594Y-199962405I-970296J-241922D01*
G01*
G37*
D16*
G36*
X237083853Y-204649585D02*
G01*
X235143261Y-205133429D01*
X234659417Y-203192837D01*
X236600009Y-202708993D01*
X237083853Y-204649585D01*
G37*
%TD*%
D11*
%TO.C,U1*%
X38680000Y-96330000D03*
D10*
X38680000Y-98870000D03*
X38680000Y-101410000D03*
X38680000Y-103950000D03*
X38680000Y-106490000D03*
X38680000Y-109030000D03*
X38680000Y-111570000D03*
X38680000Y-114110000D03*
X38680000Y-116650000D03*
X38680000Y-119190000D03*
X38680000Y-121730000D03*
X38680000Y-124270000D03*
X53920000Y-124270000D03*
X53920000Y-121730000D03*
X53920000Y-119190000D03*
X53920000Y-116650000D03*
X53920000Y-114110000D03*
X53920000Y-111570000D03*
X53920000Y-109030000D03*
X53920000Y-106490000D03*
X53920000Y-103950000D03*
X53920000Y-101410000D03*
X53920000Y-98870000D03*
X53920000Y-96330000D03*
%TD*%
D17*
%TO.C,D64*%
X360300000Y-173720000D03*
D18*
X360300000Y-178800000D03*
%TD*%
D17*
%TO.C,D63*%
X348200000Y-154720000D03*
D18*
X348200000Y-159800000D03*
%TD*%
D17*
%TO.C,D62*%
X335600000Y-143800000D03*
D18*
X335600000Y-148880000D03*
%TD*%
D17*
%TO.C,D61*%
X364600000Y-116720000D03*
D18*
X364600000Y-121800000D03*
%TD*%
D17*
%TO.C,D60*%
X325800000Y-105800000D03*
D18*
X325800000Y-110880000D03*
%TD*%
D17*
%TO.C,D59*%
X331300000Y-173720000D03*
D18*
X331300000Y-178800000D03*
%TD*%
D17*
%TO.C,D58*%
X322200000Y-154800000D03*
D18*
X322200000Y-159880000D03*
%TD*%
D17*
%TO.C,D57*%
X335600000Y-135720000D03*
D18*
X335600000Y-140800000D03*
%TD*%
D17*
%TO.C,D56*%
X340800000Y-116720000D03*
D18*
X340800000Y-121800000D03*
%TD*%
D17*
%TO.C,D55*%
X325800000Y-97720000D03*
D18*
X325800000Y-102800000D03*
%TD*%
%TO.C,D54*%
G36*
G01*
X302824511Y-174664271D02*
X302824511Y-174664271D01*
G75*
G02*
X301612293Y-173935897I-241922J970296D01*
G01*
X301612293Y-173935897D01*
G75*
G02*
X302340667Y-172723679I970296J241922D01*
G01*
X302340667Y-172723679D01*
G75*
G02*
X303552885Y-173452053I241922J-970296D01*
G01*
X303552885Y-173452053D01*
G75*
G02*
X302824511Y-174664271I-970296J-241922D01*
G01*
G37*
D16*
G36*
X305023770Y-179351451D02*
G01*
X303083178Y-179835295D01*
X302599334Y-177894703D01*
X304539926Y-177410859D01*
X305023770Y-179351451D01*
G37*
%TD*%
D17*
%TO.C,D53*%
X303800000Y-154720000D03*
D18*
X303800000Y-159800000D03*
%TD*%
D17*
%TO.C,D52*%
X316300000Y-135720000D03*
D18*
X316300000Y-140800000D03*
%TD*%
D17*
%TO.C,D51*%
X321800000Y-116720000D03*
D18*
X321800000Y-121800000D03*
%TD*%
D17*
%TO.C,D50*%
X306747490Y-96757230D03*
D18*
X306747490Y-101837230D03*
%TD*%
%TO.C,D49*%
G36*
G01*
X280691471Y-160529143D02*
X280691471Y-160529143D01*
G75*
G02*
X279479253Y-159800769I-241922J970296D01*
G01*
X279479253Y-159800769D01*
G75*
G02*
X280207627Y-158588551I970296J241922D01*
G01*
X280207627Y-158588551D01*
G75*
G02*
X281419845Y-159316925I241922J-970296D01*
G01*
X281419845Y-159316925D01*
G75*
G02*
X280691471Y-160529143I-970296J-241922D01*
G01*
G37*
D16*
G36*
X282890730Y-165216323D02*
G01*
X280950138Y-165700167D01*
X280466294Y-163759575D01*
X282406886Y-163275731D01*
X282890730Y-165216323D01*
G37*
%TD*%
%TO.C,D48*%
G36*
G01*
X289679096Y-138706617D02*
X289679096Y-138706617D01*
G75*
G02*
X288466878Y-137978243I-241922J970296D01*
G01*
X288466878Y-137978243D01*
G75*
G02*
X289195252Y-136766025I970296J241922D01*
G01*
X289195252Y-136766025D01*
G75*
G02*
X290407470Y-137494399I241922J-970296D01*
G01*
X290407470Y-137494399D01*
G75*
G02*
X289679096Y-138706617I-970296J-241922D01*
G01*
G37*
G36*
X291878355Y-143393797D02*
G01*
X289937763Y-143877641D01*
X289453919Y-141937049D01*
X291394511Y-141453205D01*
X291878355Y-143393797D01*
G37*
%TD*%
D17*
%TO.C,D47*%
X302800000Y-116720000D03*
D18*
X302800000Y-121800000D03*
%TD*%
%TO.C,D46*%
G36*
G01*
X284367246Y-100867692D02*
X284367246Y-100867692D01*
G75*
G02*
X283155028Y-100139318I-241922J970296D01*
G01*
X283155028Y-100139318D01*
G75*
G02*
X283883402Y-98927100I970296J241922D01*
G01*
X283883402Y-98927100D01*
G75*
G02*
X285095620Y-99655474I241922J-970296D01*
G01*
X285095620Y-99655474D01*
G75*
G02*
X284367246Y-100867692I-970296J-241922D01*
G01*
G37*
D16*
G36*
X286566505Y-105554872D02*
G01*
X284625913Y-106038716D01*
X284142069Y-104098124D01*
X286082661Y-103614280D01*
X286566505Y-105554872D01*
G37*
%TD*%
%TO.C,D45*%
G36*
G01*
X271243477Y-143303133D02*
X271243477Y-143303133D01*
G75*
G02*
X270031259Y-142574759I-241922J970296D01*
G01*
X270031259Y-142574759D01*
G75*
G02*
X270759633Y-141362541I970296J241922D01*
G01*
X270759633Y-141362541D01*
G75*
G02*
X271971851Y-142090915I241922J-970296D01*
G01*
X271971851Y-142090915D01*
G75*
G02*
X271243477Y-143303133I-970296J-241922D01*
G01*
G37*
G36*
X273442736Y-147990313D02*
G01*
X271502144Y-148474157D01*
X271018300Y-146533565D01*
X272958892Y-146049721D01*
X273442736Y-147990313D01*
G37*
%TD*%
%TO.C,D44*%
G36*
G01*
X280231101Y-121480608D02*
X280231101Y-121480608D01*
G75*
G02*
X279018883Y-120752234I-241922J970296D01*
G01*
X279018883Y-120752234D01*
G75*
G02*
X279747257Y-119540016I970296J241922D01*
G01*
X279747257Y-119540016D01*
G75*
G02*
X280959475Y-120268390I241922J-970296D01*
G01*
X280959475Y-120268390D01*
G75*
G02*
X280231101Y-121480608I-970296J-241922D01*
G01*
G37*
G36*
X282430360Y-126167788D02*
G01*
X280489768Y-126651632D01*
X280005924Y-124711040D01*
X281946516Y-124227196D01*
X282430360Y-126167788D01*
G37*
%TD*%
%TO.C,D43*%
G36*
G01*
X265931628Y-105464208D02*
X265931628Y-105464208D01*
G75*
G02*
X264719410Y-104735834I-241922J970296D01*
G01*
X264719410Y-104735834D01*
G75*
G02*
X265447784Y-103523616I970296J241922D01*
G01*
X265447784Y-103523616D01*
G75*
G02*
X266660002Y-104251990I241922J-970296D01*
G01*
X266660002Y-104251990D01*
G75*
G02*
X265931628Y-105464208I-970296J-241922D01*
G01*
G37*
G36*
X268130887Y-110151388D02*
G01*
X266190295Y-110635232D01*
X265706451Y-108694640D01*
X267647043Y-108210796D01*
X268130887Y-110151388D01*
G37*
%TD*%
%TO.C,D42*%
G36*
G01*
X262255853Y-165125659D02*
X262255853Y-165125659D01*
G75*
G02*
X261043635Y-164397285I-241922J970296D01*
G01*
X261043635Y-164397285D01*
G75*
G02*
X261772009Y-163185067I970296J241922D01*
G01*
X261772009Y-163185067D01*
G75*
G02*
X262984227Y-163913441I241922J-970296D01*
G01*
X262984227Y-163913441D01*
G75*
G02*
X262255853Y-165125659I-970296J-241922D01*
G01*
G37*
G36*
X264455112Y-169812839D02*
G01*
X262514520Y-170296683D01*
X262030676Y-168356091D01*
X263971268Y-167872247D01*
X264455112Y-169812839D01*
G37*
%TD*%
%TO.C,D41*%
G36*
G01*
X232905366Y-192024155D02*
X232905366Y-192024155D01*
G75*
G02*
X231693148Y-191295781I-241922J970296D01*
G01*
X231693148Y-191295781D01*
G75*
G02*
X232421522Y-190083563I970296J241922D01*
G01*
X232421522Y-190083563D01*
G75*
G02*
X233633740Y-190811937I241922J-970296D01*
G01*
X233633740Y-190811937D01*
G75*
G02*
X232905366Y-192024155I-970296J-241922D01*
G01*
G37*
G36*
X235104625Y-196711335D02*
G01*
X233164033Y-197195179D01*
X232680189Y-195254587D01*
X234620781Y-194770743D01*
X235104625Y-196711335D01*
G37*
%TD*%
%TO.C,D40*%
G36*
G01*
X243820234Y-169722175D02*
X243820234Y-169722175D01*
G75*
G02*
X242608016Y-168993801I-241922J970296D01*
G01*
X242608016Y-168993801D01*
G75*
G02*
X243336390Y-167781583I970296J241922D01*
G01*
X243336390Y-167781583D01*
G75*
G02*
X244548608Y-168509957I241922J-970296D01*
G01*
X244548608Y-168509957D01*
G75*
G02*
X243820234Y-169722175I-970296J-241922D01*
G01*
G37*
G36*
X246019493Y-174409355D02*
G01*
X244078901Y-174893199D01*
X243595057Y-172952607D01*
X245535649Y-172468763D01*
X246019493Y-174409355D01*
G37*
%TD*%
%TO.C,D39*%
G36*
G01*
X252807858Y-147899649D02*
X252807858Y-147899649D01*
G75*
G02*
X251595640Y-147171275I-241922J970296D01*
G01*
X251595640Y-147171275D01*
G75*
G02*
X252324014Y-145959057I970296J241922D01*
G01*
X252324014Y-145959057D01*
G75*
G02*
X253536232Y-146687431I241922J-970296D01*
G01*
X253536232Y-146687431D01*
G75*
G02*
X252807858Y-147899649I-970296J-241922D01*
G01*
G37*
G36*
X255007117Y-152586829D02*
G01*
X253066525Y-153070673D01*
X252582681Y-151130081D01*
X254523273Y-150646237D01*
X255007117Y-152586829D01*
G37*
%TD*%
%TO.C,D38*%
G36*
G01*
X261795482Y-126077124D02*
X261795482Y-126077124D01*
G75*
G02*
X260583264Y-125348750I-241922J970296D01*
G01*
X260583264Y-125348750D01*
G75*
G02*
X261311638Y-124136532I970296J241922D01*
G01*
X261311638Y-124136532D01*
G75*
G02*
X262523856Y-124864906I241922J-970296D01*
G01*
X262523856Y-124864906D01*
G75*
G02*
X261795482Y-126077124I-970296J-241922D01*
G01*
G37*
G36*
X263994741Y-130764304D02*
G01*
X262054149Y-131248148D01*
X261570305Y-129307556D01*
X263510897Y-128823712D01*
X263994741Y-130764304D01*
G37*
%TD*%
%TO.C,D37*%
G36*
G01*
X247496009Y-110060724D02*
X247496009Y-110060724D01*
G75*
G02*
X246283791Y-109332350I-241922J970296D01*
G01*
X246283791Y-109332350D01*
G75*
G02*
X247012165Y-108120132I970296J241922D01*
G01*
X247012165Y-108120132D01*
G75*
G02*
X248224383Y-108848506I241922J-970296D01*
G01*
X248224383Y-108848506D01*
G75*
G02*
X247496009Y-110060724I-970296J-241922D01*
G01*
G37*
G36*
X249695268Y-114747904D02*
G01*
X247754676Y-115231748D01*
X247270832Y-113291156D01*
X249211424Y-112807312D01*
X249695268Y-114747904D01*
G37*
%TD*%
%TO.C,D36*%
G36*
G01*
X225384615Y-174318691D02*
X225384615Y-174318691D01*
G75*
G02*
X224172397Y-173590317I-241922J970296D01*
G01*
X224172397Y-173590317D01*
G75*
G02*
X224900771Y-172378099I970296J241922D01*
G01*
X224900771Y-172378099D01*
G75*
G02*
X226112989Y-173106473I241922J-970296D01*
G01*
X226112989Y-173106473D01*
G75*
G02*
X225384615Y-174318691I-970296J-241922D01*
G01*
G37*
G36*
X227583874Y-179005871D02*
G01*
X225643282Y-179489715D01*
X225159438Y-177549123D01*
X227100030Y-177065279D01*
X227583874Y-179005871D01*
G37*
%TD*%
%TO.C,D35*%
G36*
G01*
X234372239Y-152496165D02*
X234372239Y-152496165D01*
G75*
G02*
X233160021Y-151767791I-241922J970296D01*
G01*
X233160021Y-151767791D01*
G75*
G02*
X233888395Y-150555573I970296J241922D01*
G01*
X233888395Y-150555573D01*
G75*
G02*
X235100613Y-151283947I241922J-970296D01*
G01*
X235100613Y-151283947D01*
G75*
G02*
X234372239Y-152496165I-970296J-241922D01*
G01*
G37*
G36*
X236571498Y-157183345D02*
G01*
X234630906Y-157667189D01*
X234147062Y-155726597D01*
X236087654Y-155242753D01*
X236571498Y-157183345D01*
G37*
%TD*%
%TO.C,D34*%
G36*
G01*
X243359863Y-130673640D02*
X243359863Y-130673640D01*
G75*
G02*
X242147645Y-129945266I-241922J970296D01*
G01*
X242147645Y-129945266D01*
G75*
G02*
X242876019Y-128733048I970296J241922D01*
G01*
X242876019Y-128733048D01*
G75*
G02*
X244088237Y-129461422I241922J-970296D01*
G01*
X244088237Y-129461422D01*
G75*
G02*
X243359863Y-130673640I-970296J-241922D01*
G01*
G37*
G36*
X245559122Y-135360820D02*
G01*
X243618530Y-135844664D01*
X243134686Y-133904072D01*
X245075278Y-133420228D01*
X245559122Y-135360820D01*
G37*
%TD*%
%TO.C,D33*%
G36*
G01*
X224924244Y-135270156D02*
X224924244Y-135270156D01*
G75*
G02*
X223712026Y-134541782I-241922J970296D01*
G01*
X223712026Y-134541782D01*
G75*
G02*
X224440400Y-133329564I970296J241922D01*
G01*
X224440400Y-133329564D01*
G75*
G02*
X225652618Y-134057938I241922J-970296D01*
G01*
X225652618Y-134057938D01*
G75*
G02*
X224924244Y-135270156I-970296J-241922D01*
G01*
G37*
G36*
X227123503Y-139957336D02*
G01*
X225182911Y-140441180D01*
X224699067Y-138500588D01*
X226639659Y-138016744D01*
X227123503Y-139957336D01*
G37*
%TD*%
%TO.C,D32*%
G36*
G01*
X229060390Y-114657240D02*
X229060390Y-114657240D01*
G75*
G02*
X227848172Y-113928866I-241922J970296D01*
G01*
X227848172Y-113928866D01*
G75*
G02*
X228576546Y-112716648I970296J241922D01*
G01*
X228576546Y-112716648D01*
G75*
G02*
X229788764Y-113445022I241922J-970296D01*
G01*
X229788764Y-113445022D01*
G75*
G02*
X229060390Y-114657240I-970296J-241922D01*
G01*
G37*
G36*
X231259649Y-119344420D02*
G01*
X229319057Y-119828264D01*
X228835213Y-117887672D01*
X230775805Y-117403828D01*
X231259649Y-119344420D01*
G37*
%TD*%
%TO.C,D31*%
G36*
G01*
X179058078Y-142770296D02*
X179058078Y-142770296D01*
G75*
G02*
X178329704Y-141558078I241922J970296D01*
G01*
X178329704Y-141558078D01*
G75*
G02*
X179541922Y-140829704I970296J-241922D01*
G01*
X179541922Y-140829704D01*
G75*
G02*
X180270296Y-142041922I-241922J-970296D01*
G01*
X180270296Y-142041922D01*
G75*
G02*
X179058078Y-142770296I-970296J241922D01*
G01*
G37*
G36*
X178799411Y-147941320D02*
G01*
X176858819Y-147457476D01*
X177342663Y-145516884D01*
X179283255Y-146000728D01*
X178799411Y-147941320D01*
G37*
%TD*%
%TO.C,D30*%
G36*
G01*
X175058078Y-122270296D02*
X175058078Y-122270296D01*
G75*
G02*
X174329704Y-121058078I241922J970296D01*
G01*
X174329704Y-121058078D01*
G75*
G02*
X175541922Y-120329704I970296J-241922D01*
G01*
X175541922Y-120329704D01*
G75*
G02*
X176270296Y-121541922I-241922J-970296D01*
G01*
X176270296Y-121541922D01*
G75*
G02*
X175058078Y-122270296I-970296J241922D01*
G01*
G37*
G36*
X174799411Y-127441320D02*
G01*
X172858819Y-126957476D01*
X173342663Y-125016884D01*
X175283255Y-125500728D01*
X174799411Y-127441320D01*
G37*
%TD*%
%TO.C,D29*%
G36*
G01*
X186558078Y-175581697D02*
X186558078Y-175581697D01*
G75*
G02*
X185829704Y-174369479I241922J970296D01*
G01*
X185829704Y-174369479D01*
G75*
G02*
X187041922Y-173641105I970296J-241922D01*
G01*
X187041922Y-173641105D01*
G75*
G02*
X187770296Y-174853323I-241922J-970296D01*
G01*
X187770296Y-174853323D01*
G75*
G02*
X186558078Y-175581697I-970296J241922D01*
G01*
G37*
G36*
X186299411Y-180752721D02*
G01*
X184358819Y-180268877D01*
X184842663Y-178328285D01*
X186783255Y-178812129D01*
X186299411Y-180752721D01*
G37*
%TD*%
%TO.C,D28*%
G36*
G01*
X161058078Y-157770296D02*
X161058078Y-157770296D01*
G75*
G02*
X160329704Y-156558078I241922J970296D01*
G01*
X160329704Y-156558078D01*
G75*
G02*
X161541922Y-155829704I970296J-241922D01*
G01*
X161541922Y-155829704D01*
G75*
G02*
X162270296Y-157041922I-241922J-970296D01*
G01*
X162270296Y-157041922D01*
G75*
G02*
X161058078Y-157770296I-970296J241922D01*
G01*
G37*
G36*
X160799411Y-162941320D02*
G01*
X158858819Y-162457476D01*
X159342663Y-160516884D01*
X161283255Y-161000728D01*
X160799411Y-162941320D01*
G37*
%TD*%
%TO.C,D27*%
G36*
G01*
X181152363Y-134960670D02*
X181152363Y-134960670D01*
G75*
G02*
X180423989Y-133748452I241922J970296D01*
G01*
X180423989Y-133748452D01*
G75*
G02*
X181636207Y-133020078I970296J-241922D01*
G01*
X181636207Y-133020078D01*
G75*
G02*
X182364581Y-134232296I-241922J-970296D01*
G01*
X182364581Y-134232296D01*
G75*
G02*
X181152363Y-134960670I-970296J241922D01*
G01*
G37*
G36*
X180893696Y-140131694D02*
G01*
X178953104Y-139647850D01*
X179436948Y-137707258D01*
X181377540Y-138191102D01*
X180893696Y-140131694D01*
G37*
%TD*%
%TO.C,D26*%
G36*
G01*
X177016218Y-114347754D02*
X177016218Y-114347754D01*
G75*
G02*
X176287844Y-113135536I241922J970296D01*
G01*
X176287844Y-113135536D01*
G75*
G02*
X177500062Y-112407162I970296J-241922D01*
G01*
X177500062Y-112407162D01*
G75*
G02*
X178228436Y-113619380I-241922J-970296D01*
G01*
X178228436Y-113619380D01*
G75*
G02*
X177016218Y-114347754I-970296J241922D01*
G01*
G37*
G36*
X176757551Y-119518778D02*
G01*
X174816959Y-119034934D01*
X175300803Y-117094342D01*
X177241395Y-117578186D01*
X176757551Y-119518778D01*
G37*
%TD*%
%TO.C,D25*%
G36*
G01*
X184558078Y-183770296D02*
X184558078Y-183770296D01*
G75*
G02*
X183829704Y-182558078I241922J970296D01*
G01*
X183829704Y-182558078D01*
G75*
G02*
X185041922Y-181829704I970296J-241922D01*
G01*
X185041922Y-181829704D01*
G75*
G02*
X185770296Y-183041922I-241922J-970296D01*
G01*
X185770296Y-183041922D01*
G75*
G02*
X184558078Y-183770296I-970296J241922D01*
G01*
G37*
G36*
X184299411Y-188941320D02*
G01*
X182358819Y-188457476D01*
X182842663Y-186516884D01*
X184783255Y-187000728D01*
X184299411Y-188941320D01*
G37*
%TD*%
%TO.C,D24*%
G36*
G01*
X167957187Y-171349368D02*
X167957187Y-171349368D01*
G75*
G02*
X167228813Y-170137150I241922J970296D01*
G01*
X167228813Y-170137150D01*
G75*
G02*
X168441031Y-169408776I970296J-241922D01*
G01*
X168441031Y-169408776D01*
G75*
G02*
X169169405Y-170620994I-241922J-970296D01*
G01*
X169169405Y-170620994D01*
G75*
G02*
X167957187Y-171349368I-970296J241922D01*
G01*
G37*
G36*
X167698520Y-176520392D02*
G01*
X165757928Y-176036548D01*
X166241772Y-174095956D01*
X168182364Y-174579800D01*
X167698520Y-176520392D01*
G37*
%TD*%
%TO.C,D23*%
G36*
G01*
X162971707Y-150009382D02*
X162971707Y-150009382D01*
G75*
G02*
X162243333Y-148797164I241922J970296D01*
G01*
X162243333Y-148797164D01*
G75*
G02*
X163455551Y-148068790I970296J-241922D01*
G01*
X163455551Y-148068790D01*
G75*
G02*
X164183925Y-149281008I-241922J-970296D01*
G01*
X164183925Y-149281008D01*
G75*
G02*
X162971707Y-150009382I-970296J241922D01*
G01*
G37*
G36*
X162713040Y-155180406D02*
G01*
X160772448Y-154696562D01*
X161256292Y-152755970D01*
X163196884Y-153239814D01*
X162713040Y-155180406D01*
G37*
%TD*%
%TO.C,D22*%
G36*
G01*
X162716745Y-130364154D02*
X162716745Y-130364154D01*
G75*
G02*
X161988371Y-129151936I241922J970296D01*
G01*
X161988371Y-129151936D01*
G75*
G02*
X163200589Y-128423562I970296J-241922D01*
G01*
X163200589Y-128423562D01*
G75*
G02*
X163928963Y-129635780I-241922J-970296D01*
G01*
X163928963Y-129635780D01*
G75*
G02*
X162716745Y-130364154I-970296J241922D01*
G01*
G37*
G36*
X162458078Y-135535178D02*
G01*
X160517486Y-135051334D01*
X161001330Y-133110742D01*
X162941922Y-133594586D01*
X162458078Y-135535178D01*
G37*
%TD*%
%TO.C,D21*%
G36*
G01*
X158580599Y-109751238D02*
X158580599Y-109751238D01*
G75*
G02*
X157852225Y-108539020I241922J970296D01*
G01*
X157852225Y-108539020D01*
G75*
G02*
X159064443Y-107810646I970296J-241922D01*
G01*
X159064443Y-107810646D01*
G75*
G02*
X159792817Y-109022864I-241922J-970296D01*
G01*
X159792817Y-109022864D01*
G75*
G02*
X158580599Y-109751238I-970296J241922D01*
G01*
G37*
G36*
X158321932Y-114922262D02*
G01*
X156381340Y-114438418D01*
X156865184Y-112497826D01*
X158805776Y-112981670D01*
X158321932Y-114922262D01*
G37*
%TD*%
%TO.C,D20*%
G36*
G01*
X170558078Y-191270296D02*
X170558078Y-191270296D01*
G75*
G02*
X169829704Y-190058078I241922J970296D01*
G01*
X169829704Y-190058078D01*
G75*
G02*
X171041922Y-189329704I970296J-241922D01*
G01*
X171041922Y-189329704D01*
G75*
G02*
X171770296Y-190541922I-241922J-970296D01*
G01*
X171770296Y-190541922D01*
G75*
G02*
X170558078Y-191270296I-970296J241922D01*
G01*
G37*
G36*
X170299411Y-196441320D02*
G01*
X168358819Y-195957476D01*
X168842663Y-194016884D01*
X170783255Y-194500728D01*
X170299411Y-196441320D01*
G37*
%TD*%
%TO.C,D19*%
G36*
G01*
X149642530Y-166267704D02*
X149642530Y-166267704D01*
G75*
G02*
X148914156Y-165055486I241922J970296D01*
G01*
X148914156Y-165055486D01*
G75*
G02*
X150126374Y-164327112I970296J-241922D01*
G01*
X150126374Y-164327112D01*
G75*
G02*
X150854748Y-165539330I-241922J-970296D01*
G01*
X150854748Y-165539330D01*
G75*
G02*
X149642530Y-166267704I-970296J241922D01*
G01*
G37*
G36*
X149383863Y-171438728D02*
G01*
X147443271Y-170954884D01*
X147927115Y-169014292D01*
X149867707Y-169498136D01*
X149383863Y-171438728D01*
G37*
%TD*%
%TO.C,D18*%
G36*
G01*
X144536088Y-145412866D02*
X144536088Y-145412866D01*
G75*
G02*
X143807714Y-144200648I241922J970296D01*
G01*
X143807714Y-144200648D01*
G75*
G02*
X145019932Y-143472274I970296J-241922D01*
G01*
X145019932Y-143472274D01*
G75*
G02*
X145748306Y-144684492I-241922J-970296D01*
G01*
X145748306Y-144684492D01*
G75*
G02*
X144536088Y-145412866I-970296J241922D01*
G01*
G37*
G36*
X144277421Y-150583890D02*
G01*
X142336829Y-150100046D01*
X142820673Y-148159454D01*
X144761265Y-148643298D01*
X144277421Y-150583890D01*
G37*
%TD*%
%TO.C,D17*%
G36*
G01*
X144281126Y-125767638D02*
X144281126Y-125767638D01*
G75*
G02*
X143552752Y-124555420I241922J970296D01*
G01*
X143552752Y-124555420D01*
G75*
G02*
X144764970Y-123827046I970296J-241922D01*
G01*
X144764970Y-123827046D01*
G75*
G02*
X145493344Y-125039264I-241922J-970296D01*
G01*
X145493344Y-125039264D01*
G75*
G02*
X144281126Y-125767638I-970296J241922D01*
G01*
G37*
G36*
X144022459Y-130938662D02*
G01*
X142081867Y-130454818D01*
X142565711Y-128514226D01*
X144506303Y-128998070D01*
X144022459Y-130938662D01*
G37*
%TD*%
%TO.C,D16*%
G36*
G01*
X140144980Y-105154722D02*
X140144980Y-105154722D01*
G75*
G02*
X139416606Y-103942504I241922J970296D01*
G01*
X139416606Y-103942504D01*
G75*
G02*
X140628824Y-103214130I970296J-241922D01*
G01*
X140628824Y-103214130D01*
G75*
G02*
X141357198Y-104426348I-241922J-970296D01*
G01*
X141357198Y-104426348D01*
G75*
G02*
X140144980Y-105154722I-970296J241922D01*
G01*
G37*
G36*
X139886313Y-110325746D02*
G01*
X137945721Y-109841902D01*
X138429565Y-107901310D01*
X140370157Y-108385154D01*
X139886313Y-110325746D01*
G37*
%TD*%
%TO.C,D15*%
G36*
G01*
X133887613Y-181921221D02*
X133887613Y-181921221D01*
G75*
G02*
X133159239Y-180709003I241922J970296D01*
G01*
X133159239Y-180709003D01*
G75*
G02*
X134371457Y-179980629I970296J-241922D01*
G01*
X134371457Y-179980629D01*
G75*
G02*
X135099831Y-181192847I-241922J-970296D01*
G01*
X135099831Y-181192847D01*
G75*
G02*
X133887613Y-181921221I-970296J241922D01*
G01*
G37*
G36*
X133628946Y-187092245D02*
G01*
X131688354Y-186608401D01*
X132172198Y-184667809D01*
X134112790Y-185151653D01*
X133628946Y-187092245D01*
G37*
%TD*%
%TO.C,D14*%
G36*
G01*
X131206911Y-161671188D02*
X131206911Y-161671188D01*
G75*
G02*
X130478537Y-160458970I241922J970296D01*
G01*
X130478537Y-160458970D01*
G75*
G02*
X131690755Y-159730596I970296J-241922D01*
G01*
X131690755Y-159730596D01*
G75*
G02*
X132419129Y-160942814I-241922J-970296D01*
G01*
X132419129Y-160942814D01*
G75*
G02*
X131206911Y-161671188I-970296J241922D01*
G01*
G37*
G36*
X130948244Y-166842212D02*
G01*
X129007652Y-166358368D01*
X129491496Y-164417776D01*
X131432088Y-164901620D01*
X130948244Y-166842212D01*
G37*
%TD*%
%TO.C,D13*%
G36*
G01*
X126100470Y-140816350D02*
X126100470Y-140816350D01*
G75*
G02*
X125372096Y-139604132I241922J970296D01*
G01*
X125372096Y-139604132D01*
G75*
G02*
X126584314Y-138875758I970296J-241922D01*
G01*
X126584314Y-138875758D01*
G75*
G02*
X127312688Y-140087976I-241922J-970296D01*
G01*
X127312688Y-140087976D01*
G75*
G02*
X126100470Y-140816350I-970296J241922D01*
G01*
G37*
G36*
X125841803Y-145987374D02*
G01*
X123901211Y-145503530D01*
X124385055Y-143562938D01*
X126325647Y-144046782D01*
X125841803Y-145987374D01*
G37*
%TD*%
%TO.C,D12*%
G36*
G01*
X125845507Y-121171122D02*
X125845507Y-121171122D01*
G75*
G02*
X125117133Y-119958904I241922J970296D01*
G01*
X125117133Y-119958904D01*
G75*
G02*
X126329351Y-119230530I970296J-241922D01*
G01*
X126329351Y-119230530D01*
G75*
G02*
X127057725Y-120442748I-241922J-970296D01*
G01*
X127057725Y-120442748D01*
G75*
G02*
X125845507Y-121171122I-970296J241922D01*
G01*
G37*
G36*
X125586840Y-126342146D02*
G01*
X123646248Y-125858302D01*
X124130092Y-123917710D01*
X126070684Y-124401554D01*
X125586840Y-126342146D01*
G37*
%TD*%
D17*
%TO.C,D11*%
X118800000Y-96300000D03*
D18*
X118800000Y-101380000D03*
%TD*%
D17*
%TO.C,D10*%
X98800000Y-174800000D03*
D18*
X98800000Y-179880000D03*
%TD*%
D17*
%TO.C,D9*%
X108300000Y-155800000D03*
D18*
X108300000Y-160880000D03*
%TD*%
D17*
%TO.C,D8*%
X103800000Y-136720000D03*
D18*
X103800000Y-141800000D03*
%TD*%
D17*
%TO.C,D7*%
X103300000Y-117720000D03*
D18*
X103300000Y-122800000D03*
%TD*%
D17*
%TO.C,D6*%
X99800000Y-98720000D03*
D18*
X99800000Y-103800000D03*
%TD*%
D17*
%TO.C,D5*%
X70300000Y-174300000D03*
D18*
X70300000Y-179380000D03*
%TD*%
D17*
%TO.C,D4*%
X89300000Y-155720000D03*
D18*
X89300000Y-160800000D03*
%TD*%
D17*
%TO.C,D3*%
X77800000Y-136720000D03*
D18*
X77800000Y-141800000D03*
%TD*%
D17*
%TO.C,D2*%
X79300000Y-117720000D03*
D18*
X79300000Y-122800000D03*
%TD*%
D17*
%TO.C,D1*%
X80800000Y-98720000D03*
D18*
X80800000Y-103800000D03*
%TD*%
M02*
