%TF.GenerationSoftware,KiCad,Pcbnew,(5.1.7)-1*%
%TF.CreationDate,2021-08-08T11:48:14+10:00*%
%TF.ProjectId,ume,756d652e-6b69-4636-9164-5f7063625858,rev?*%
%TF.SameCoordinates,Original*%
%TF.FileFunction,Legend,Bot*%
%TF.FilePolarity,Positive*%
%FSLAX46Y46*%
G04 Gerber Fmt 4.6, Leading zero omitted, Abs format (unit mm)*
G04 Created by KiCad (PCBNEW (5.1.7)-1) date 2021-08-08 11:48:14*
%MOMM*%
%LPD*%
G01*
G04 APERTURE LIST*
%ADD10C,1.000000*%
%ADD11C,3.000000*%
%ADD12C,0.150000*%
G04 APERTURE END LIST*
D10*
X233724422Y-203980302D02*
X232918015Y-200745983D01*
X233148417Y-201670074D02*
X232802194Y-201265629D01*
X232513570Y-201092206D01*
X231993924Y-200976385D01*
X231531879Y-201091585D01*
X230721125Y-204729108D02*
X229914719Y-201494789D01*
X229511516Y-199877629D02*
X229800139Y-200051051D01*
X229626717Y-200339675D01*
X229338094Y-200166252D01*
X229511516Y-199877629D01*
X229626717Y-200339675D01*
X225525286Y-202589197D02*
X226504494Y-206516585D01*
X226850717Y-206921030D01*
X227139341Y-207094452D01*
X227658987Y-207210274D01*
X228352055Y-207037473D01*
X228756500Y-206691249D01*
X226274092Y-205592493D02*
X226793738Y-205708315D01*
X227717829Y-205477914D01*
X228122274Y-205131690D01*
X228295697Y-204843067D01*
X228411519Y-204323421D01*
X228065916Y-202937284D01*
X227719692Y-202532839D01*
X227431069Y-202359416D01*
X226911423Y-202243594D01*
X225987332Y-202473996D01*
X225582887Y-202820220D01*
X224021464Y-206399521D02*
X222811855Y-201548042D01*
X221942259Y-206917925D02*
X221308654Y-204376674D01*
X221424476Y-203857028D01*
X221828921Y-203510804D01*
X222521990Y-203338003D01*
X223041636Y-203453825D01*
X223330259Y-203627247D01*
X219518693Y-204086809D02*
X217670511Y-204547613D01*
X218422422Y-202642451D02*
X219459230Y-206800861D01*
X219343408Y-207320507D01*
X218938963Y-207666731D01*
X218476917Y-207781932D01*
X183926717Y-208260324D02*
X184446363Y-208144502D01*
X184792587Y-207740057D01*
X185829395Y-203581647D01*
X180287953Y-207107694D02*
X180692398Y-207453918D01*
X181616489Y-207684320D01*
X182136135Y-207568498D01*
X182482359Y-207164053D01*
X182943162Y-205315871D01*
X182827340Y-204796224D01*
X182422895Y-204450001D01*
X181498804Y-204219599D01*
X180979158Y-204335421D01*
X180632934Y-204739866D01*
X180517733Y-205201912D01*
X182712760Y-206239962D01*
X179419599Y-203701195D02*
X177571417Y-203240391D01*
X177920124Y-206762713D02*
X178956932Y-202604302D01*
X178841111Y-202084656D01*
X178436665Y-201738433D01*
X177974620Y-201623232D01*
X176647325Y-203009989D02*
X174799143Y-202549186D01*
X176357460Y-201220029D02*
X175320652Y-205378439D01*
X174974428Y-205782884D01*
X174454782Y-205898706D01*
X173992737Y-205783505D01*
D11*
X328942857Y-128457142D02*
X328942857Y-158457142D01*
X348228571Y-128457142D02*
X348228571Y-152028571D01*
X346085714Y-156314285D01*
X341800000Y-158457142D01*
X335371428Y-158457142D01*
X331085714Y-156314285D01*
X328942857Y-154171428D01*
X307514285Y-158457142D02*
X307514285Y-128457142D01*
X307514285Y-132742857D02*
X305371428Y-130600000D01*
X301085714Y-128457142D01*
X294657142Y-128457142D01*
X290371428Y-130600000D01*
X288228571Y-134885714D01*
X288228571Y-158457142D01*
X288228571Y-134885714D02*
X286085714Y-130600000D01*
X281800000Y-128457142D01*
X275371428Y-128457142D01*
X271085714Y-130600000D01*
X268942857Y-134885714D01*
X268942857Y-158457142D01*
X230371428Y-156314285D02*
X234657142Y-158457142D01*
X243228571Y-158457142D01*
X247514285Y-156314285D01*
X249657142Y-152028571D01*
X249657142Y-134885714D01*
X247514285Y-130600000D01*
X243228571Y-128457142D01*
X234657142Y-128457142D01*
X230371428Y-130600000D01*
X228228571Y-134885714D01*
X228228571Y-139171428D01*
X249657142Y-143457142D01*
X158742857Y-128857142D02*
X158742857Y-158857142D01*
X178028571Y-128857142D02*
X178028571Y-152428571D01*
X175885714Y-156714285D01*
X171600000Y-158857142D01*
X165171428Y-158857142D01*
X160885714Y-156714285D01*
X158742857Y-154571428D01*
X137314285Y-158857142D02*
X137314285Y-128857142D01*
X137314285Y-133142857D02*
X135171428Y-131000000D01*
X130885714Y-128857142D01*
X124457142Y-128857142D01*
X120171428Y-131000000D01*
X118028571Y-135285714D01*
X118028571Y-158857142D01*
X118028571Y-135285714D02*
X115885714Y-131000000D01*
X111600000Y-128857142D01*
X105171428Y-128857142D01*
X100885714Y-131000000D01*
X98742857Y-135285714D01*
X98742857Y-158857142D01*
X60171428Y-156714285D02*
X64457142Y-158857142D01*
X73028571Y-158857142D01*
X77314285Y-156714285D01*
X79457142Y-152428571D01*
X79457142Y-135285714D01*
X77314285Y-131000000D01*
X73028571Y-128857142D01*
X64457142Y-128857142D01*
X60171428Y-131000000D01*
X58028571Y-135285714D01*
X58028571Y-139571428D01*
X79457142Y-143857142D01*
D12*
%TO.C,U2*%
X390190000Y-124540000D02*
X372410000Y-124540000D01*
X372410000Y-124540000D02*
X372410000Y-94060000D01*
X372410000Y-94060000D02*
X377490000Y-94060000D01*
X377490000Y-94060000D02*
X377490000Y-91520000D01*
X377490000Y-91520000D02*
X385110000Y-91520000D01*
X385110000Y-91520000D02*
X385110000Y-94060000D01*
X385110000Y-94060000D02*
X390190000Y-94060000D01*
X390190000Y-94060000D02*
X390190000Y-124540000D01*
%TO.C,U1*%
X55190000Y-95060000D02*
X55190000Y-125540000D01*
X50110000Y-95060000D02*
X55190000Y-95060000D01*
X50110000Y-92520000D02*
X50110000Y-95060000D01*
X42490000Y-92520000D02*
X50110000Y-92520000D01*
X42490000Y-95060000D02*
X42490000Y-92520000D01*
X37410000Y-95060000D02*
X42490000Y-95060000D01*
X37410000Y-125540000D02*
X37410000Y-95060000D01*
X55190000Y-125540000D02*
X37410000Y-125540000D01*
%TD*%
M02*
