%TF.GenerationSoftware,KiCad,Pcbnew,(5.1.7)-1*%
%TF.CreationDate,2021-08-08T11:48:13+10:00*%
%TF.ProjectId,ume,756d652e-6b69-4636-9164-5f7063625858,rev?*%
%TF.SameCoordinates,Original*%
%TF.FileFunction,NonPlated,1,2,NPTH,Drill*%
%TF.FilePolarity,Positive*%
%FSLAX46Y46*%
G04 Gerber Fmt 4.6, Leading zero omitted, Abs format (unit mm)*
G04 Created by KiCad (PCBNEW (5.1.7)-1) date 2021-08-08 11:48:13*
%MOMM*%
%LPD*%
G01*
G04 APERTURE LIST*
%TA.AperFunction,ComponentDrill*%
%ADD10C,1.750000*%
%TD*%
%TA.AperFunction,ComponentDrill*%
%ADD11C,3.048000*%
%TD*%
%TA.AperFunction,ComponentDrill*%
%ADD12C,3.987800*%
%TD*%
%TA.AperFunction,ComponentDrill*%
%ADD13C,4.000000*%
%TD*%
G04 APERTURE END LIST*
D10*
%TO.C,SW22*%
X147546895Y-131559749D03*
X157405099Y-134017675D03*
%TO.C,SW29*%
X171319726Y-176753361D03*
X181177930Y-179211287D03*
%TO.C,SW30*%
X180342598Y-120103446D03*
X190200802Y-122561372D03*
%TO.C,SW5*%
X55620000Y-180700000D03*
X65780000Y-180700000D03*
%TO.C,SW44*%
X258374173Y-151541205D03*
X268232377Y-149083279D03*
%TO.C,SW47*%
X285882350Y-125049456D03*
X295740554Y-122591530D03*
%TO.C,SW54*%
X289494251Y-183120332D03*
X299352455Y-180662406D03*
%TO.C,SW19*%
X134351458Y-167536136D03*
X144209662Y-169994062D03*
%TO.C,SW16*%
X124890197Y-106277610D03*
X134748401Y-108735536D03*
%TO.C,SW25*%
X173624978Y-197017362D03*
X183483182Y-199475288D03*
%TO.C,SW28*%
X166273895Y-155862104D03*
X176132099Y-158320030D03*
%TO.C,SW60*%
X339620000Y-103500000D03*
X349780000Y-103500000D03*
%TO.C,SW62*%
X352220000Y-141600000D03*
X362380000Y-141600000D03*
%TO.C,SW42*%
X253086647Y-113593154D03*
X262944851Y-111135228D03*
%TO.C,SW34*%
X230429949Y-138875293D03*
X240288153Y-136417367D03*
%TO.C,SW58*%
X307820000Y-160650000D03*
X317980000Y-160650000D03*
%TO.C,SW14*%
X115867325Y-162927524D03*
X125725529Y-165385450D03*
%TO.C,SW61*%
X350320000Y-122550000D03*
X360480000Y-122550000D03*
%TO.C,SW26*%
X161858464Y-115494834D03*
X171716668Y-117952760D03*
%TO.C,SW27*%
X166031029Y-136168361D03*
X175889233Y-138626287D03*
%TO.C,SW11*%
X104220000Y-102300000D03*
X114380000Y-102300000D03*
%TO.C,SW20*%
X145837880Y-190111237D03*
X155696084Y-192569163D03*
%TO.C,SW43*%
X267398216Y-129658068D03*
X277256420Y-127200142D03*
%TO.C,SW36*%
X212381863Y-182641565D03*
X222240067Y-180183639D03*
%TO.C,SW46*%
X271570780Y-108984542D03*
X281428984Y-106526616D03*
%TO.C,SW12*%
X110578628Y-122342525D03*
X120436832Y-124800451D03*
%TO.C,SW1*%
X66120000Y-104500000D03*
X76280000Y-104500000D03*
%TO.C,SW59*%
X316890000Y-179700000D03*
X327050000Y-179700000D03*
%TO.C,SW18*%
X129305628Y-146644880D03*
X139163832Y-149102806D03*
%TO.C,SW23*%
X147789762Y-151253492D03*
X157647966Y-153711418D03*
%TO.C,SW8*%
X89220000Y-142600000D03*
X99380000Y-142600000D03*
%TO.C,SW2*%
X64920000Y-123550000D03*
X75080000Y-123550000D03*
%TO.C,SW3*%
X63020000Y-142600000D03*
X73180000Y-142600000D03*
%TO.C,SW38*%
X248914083Y-134266680D03*
X258772287Y-131808754D03*
%TO.C,SW51*%
X307470000Y-122550000D03*
X317630000Y-122550000D03*
%TO.C,SW35*%
X221405906Y-160758429D03*
X231264110Y-158300503D03*
%TO.C,SW57*%
X321270000Y-141600000D03*
X331430000Y-141600000D03*
%TO.C,SW53*%
X286318398Y-164207117D03*
X296176602Y-161749191D03*
%TO.C,SW65*%
X254811125Y-191694890D03*
X264669329Y-189236964D03*
%TO.C,SW32*%
X216118380Y-122810378D03*
X225976584Y-120352452D03*
%TO.C,SW21*%
X143374331Y-110886222D03*
X153232535Y-113344148D03*
%TO.C,SW10*%
X84220000Y-180700000D03*
X94380000Y-180700000D03*
%TO.C,SW4*%
X62720000Y-161650000D03*
X72880000Y-161650000D03*
%TO.C,SW9*%
X93670000Y-161650000D03*
X103830000Y-161650000D03*
%TO.C,SW39*%
X239890040Y-156149817D03*
X249748244Y-153691891D03*
%TO.C,SW50*%
X291917490Y-102537231D03*
X302077490Y-102537231D03*
%TO.C,SW41*%
X220157284Y-200335063D03*
X230015488Y-197877137D03*
%TO.C,SW56*%
X326520000Y-122550000D03*
X336680000Y-122550000D03*
%TO.C,SW31*%
X184515162Y-140776973D03*
X194373366Y-143234899D03*
%TO.C,SW17*%
X129062761Y-126951137D03*
X138920965Y-129409063D03*
%TO.C,SW6*%
X85170000Y-104500000D03*
X95330000Y-104500000D03*
%TO.C,SW63*%
X334020000Y-160650000D03*
X344180000Y-160650000D03*
%TO.C,SW37*%
X234602513Y-118201766D03*
X244460717Y-115743840D03*
%TO.C,SW49*%
X267834264Y-168815729D03*
X277692468Y-166357803D03*
%TO.C,SW40*%
X230865997Y-178032953D03*
X240724201Y-175575027D03*
%TO.C,SW55*%
X311020000Y-103500000D03*
X321180000Y-103500000D03*
%TO.C,SW13*%
X110821494Y-142036268D03*
X120679698Y-144494194D03*
%TO.C,SW52*%
X302220000Y-141600000D03*
X312380000Y-141600000D03*
%TO.C,SW15*%
X118050783Y-183105111D03*
X127908987Y-185563037D03*
%TO.C,SW24*%
X152835592Y-172144748D03*
X162693796Y-174602674D03*
%TO.C,SW64*%
X345470000Y-179700000D03*
X355630000Y-179700000D03*
%TO.C,SW33*%
X211945816Y-143483905D03*
X221804020Y-141025979D03*
%TO.C,SW7*%
X88720000Y-123550000D03*
X98880000Y-123550000D03*
%TO.C,SW45*%
X249350131Y-173424341D03*
X259208335Y-170966415D03*
%TO.C,SW48*%
X276858307Y-146932592D03*
X286716511Y-144474666D03*
D11*
%TO.C,REF\u002A\u002A*%
X345362000Y-134615000D03*
X369238000Y-134615000D03*
X249846661Y-200131506D03*
X273013442Y-194355379D03*
X332762000Y-96515000D03*
X356638000Y-96515000D03*
X137493767Y-195229652D03*
X160660548Y-201005779D03*
X55862000Y-154665000D03*
X79738000Y-154665000D03*
D12*
X345362000Y-149855000D03*
X369238000Y-149855000D03*
X246159771Y-185344199D03*
X269326552Y-179568072D03*
X332762000Y-111755000D03*
X356638000Y-111755000D03*
X141180657Y-180442345D03*
X164347438Y-186218472D03*
X55862000Y-169905000D03*
X79738000Y-169905000D03*
D13*
%TO.C,SW63*%
X339100000Y-160650000D03*
%TO.C,SW37*%
X239531615Y-116972803D03*
%TO.C,SW49*%
X272763366Y-167586766D03*
%TO.C,SW40*%
X235795099Y-176803990D03*
%TO.C,SW55*%
X316100000Y-103500000D03*
%TO.C,SW13*%
X115750596Y-143265231D03*
%TO.C,SW52*%
X307300000Y-141600000D03*
%TO.C,SW15*%
X122979885Y-184334074D03*
%TO.C,SW24*%
X157764694Y-173373711D03*
%TO.C,SW64*%
X350550000Y-179700000D03*
%TO.C,SW33*%
X216874918Y-142254942D03*
%TO.C,SW7*%
X93800000Y-123550000D03*
%TO.C,SW45*%
X254279233Y-172195378D03*
%TO.C,SW48*%
X281787409Y-145703629D03*
%TO.C,SW22*%
X152475997Y-132788712D03*
%TO.C,SW29*%
X176248828Y-177982324D03*
%TO.C,SW30*%
X185271700Y-121332409D03*
%TO.C,SW5*%
X60700000Y-180700000D03*
%TO.C,SW44*%
X263303275Y-150312242D03*
%TO.C,SW47*%
X290811452Y-123820493D03*
%TO.C,SW54*%
X294423353Y-181891369D03*
%TO.C,SW19*%
X139280560Y-168765099D03*
%TO.C,SW16*%
X129819299Y-107506573D03*
%TO.C,SW25*%
X178554080Y-198246325D03*
%TO.C,SW28*%
X171202997Y-157091067D03*
%TO.C,SW60*%
X344700000Y-103500000D03*
%TO.C,SW62*%
X357300000Y-141600000D03*
%TO.C,SW42*%
X258015749Y-112364191D03*
%TO.C,SW34*%
X235359051Y-137646330D03*
%TO.C,SW58*%
X312900000Y-160650000D03*
%TO.C,SW14*%
X120796427Y-164156487D03*
%TO.C,SW61*%
X355400000Y-122550000D03*
%TO.C,SW26*%
X166787566Y-116723797D03*
%TO.C,SW27*%
X170960131Y-137397324D03*
%TO.C,SW11*%
X109300000Y-102300000D03*
%TO.C,SW20*%
X150766982Y-191340200D03*
%TO.C,SW43*%
X272327318Y-128429105D03*
%TO.C,SW36*%
X217310965Y-181412602D03*
%TO.C,SW46*%
X276499882Y-107755579D03*
%TO.C,SW12*%
X115507730Y-123571488D03*
%TO.C,SW1*%
X71200000Y-104500000D03*
%TO.C,SW59*%
X321970000Y-179700000D03*
%TO.C,SW18*%
X134234730Y-147873843D03*
%TO.C,SW23*%
X152718864Y-152482455D03*
%TO.C,SW8*%
X94300000Y-142600000D03*
%TO.C,SW2*%
X70000000Y-123550000D03*
%TO.C,SW3*%
X68100000Y-142600000D03*
%TO.C,SW38*%
X253843185Y-133037717D03*
%TO.C,SW51*%
X312550000Y-122550000D03*
%TO.C,SW35*%
X226335008Y-159529466D03*
%TO.C,SW57*%
X326350000Y-141600000D03*
%TO.C,SW53*%
X291247500Y-162978154D03*
%TO.C,SW65*%
X259740227Y-190465927D03*
%TO.C,SW32*%
X221047482Y-121581415D03*
%TO.C,SW21*%
X148303433Y-112115185D03*
%TO.C,SW10*%
X89300000Y-180700000D03*
%TO.C,SW4*%
X67800000Y-161650000D03*
%TO.C,SW9*%
X98750000Y-161650000D03*
%TO.C,SW39*%
X244819142Y-154920854D03*
%TO.C,SW50*%
X296997490Y-102537231D03*
%TO.C,SW41*%
X225086386Y-199106100D03*
%TO.C,SW56*%
X331600000Y-122550000D03*
%TO.C,SW31*%
X189444264Y-142005936D03*
%TO.C,SW17*%
X133991863Y-128180100D03*
%TO.C,SW6*%
X90250000Y-104500000D03*
M02*
