%TF.GenerationSoftware,KiCad,Pcbnew,(5.1.7)-1*%
%TF.CreationDate,2021-08-08T11:48:13+10:00*%
%TF.ProjectId,ume,756d652e-6b69-4636-9164-5f7063625858,rev?*%
%TF.SameCoordinates,Original*%
%TF.FileFunction,Plated,1,2,PTH,Drill*%
%TF.FilePolarity,Positive*%
%FSLAX46Y46*%
G04 Gerber Fmt 4.6, Leading zero omitted, Abs format (unit mm)*
G04 Created by KiCad (PCBNEW (5.1.7)-1) date 2021-08-08 11:48:13*
%MOMM*%
%LPD*%
G01*
G04 APERTURE LIST*
%TA.AperFunction,ComponentDrill*%
%ADD10C,1.000000*%
%TD*%
%TA.AperFunction,ComponentDrill*%
%ADD11C,1.100000*%
%TD*%
%TA.AperFunction,ComponentDrill*%
%ADD12C,1.500000*%
%TD*%
G04 APERTURE END LIST*
D10*
%TO.C,D25*%
X183571037Y-187729102D03*
X184800000Y-182800000D03*
%TO.C,D34*%
X243117941Y-129703344D03*
X244346904Y-134632446D03*
%TO.C,D6*%
X99800000Y-98720000D03*
X99800000Y-103800000D03*
%TO.C,D55*%
X325800000Y-97720000D03*
X325800000Y-102800000D03*
%TO.C,D13*%
X125113429Y-144775156D03*
X126342392Y-139846054D03*
%TO.C,D61*%
X364600000Y-116720000D03*
X364600000Y-121800000D03*
%TO.C,D52*%
X316300000Y-135720000D03*
X316300000Y-140800000D03*
%TO.C,D14*%
X130219870Y-165629994D03*
X131448833Y-160700892D03*
%TO.C,D1*%
X80800000Y-98720000D03*
X80800000Y-103800000D03*
%TO.C,D31*%
X178071037Y-146729102D03*
X179300000Y-141800000D03*
%TO.C,D26*%
X176029177Y-118306560D03*
X177258140Y-113377458D03*
%TO.C,D37*%
X247254087Y-109090428D03*
X248483050Y-114019530D03*
%TO.C,D8*%
X103800000Y-136720000D03*
X103800000Y-141800000D03*
%TO.C,D64*%
X360300000Y-173720000D03*
X360300000Y-178800000D03*
%TO.C,D53*%
X303800000Y-154720000D03*
X303800000Y-159800000D03*
%TO.C,D15*%
X132900572Y-185880027D03*
X134129535Y-180950925D03*
%TO.C,D62*%
X335600000Y-143800000D03*
X335600000Y-148880000D03*
%TO.C,D39*%
X252565936Y-146929353D03*
X253794899Y-151858455D03*
%TO.C,D7*%
X103300000Y-117720000D03*
X103300000Y-122800000D03*
%TO.C,D20*%
X169571037Y-195229102D03*
X170800000Y-190300000D03*
%TO.C,D32*%
X228818468Y-113686944D03*
X230047431Y-118616046D03*
%TO.C,D33*%
X224682322Y-134299860D03*
X225911285Y-139228962D03*
%TO.C,D5*%
X70300000Y-174300000D03*
X70300000Y-179380000D03*
%TO.C,D56*%
X340800000Y-116720000D03*
X340800000Y-121800000D03*
%TO.C,D48*%
X289437174Y-137736321D03*
X290666137Y-142665423D03*
%TO.C,D16*%
X139157939Y-109113528D03*
X140386902Y-104184426D03*
%TO.C,D46*%
X284125324Y-99897396D03*
X285354287Y-104826498D03*
%TO.C,D21*%
X157593558Y-113710044D03*
X158822521Y-108780942D03*
%TO.C,D27*%
X180165322Y-138919476D03*
X181394285Y-133990374D03*
%TO.C,D54*%
X302582589Y-173693975D03*
X303811552Y-178623077D03*
%TO.C,D3*%
X77800000Y-136720000D03*
X77800000Y-141800000D03*
%TO.C,D51*%
X321800000Y-116720000D03*
X321800000Y-121800000D03*
%TO.C,D17*%
X143294085Y-129726444D03*
X144523048Y-124797342D03*
%TO.C,D65*%
X234642672Y-198992109D03*
X235871635Y-203921211D03*
%TO.C,D38*%
X261553560Y-125106828D03*
X262782523Y-130035930D03*
%TO.C,D28*%
X160071037Y-161729102D03*
X161300000Y-156800000D03*
%TO.C,D30*%
X174071037Y-126229102D03*
X175300000Y-121300000D03*
%TO.C,D42*%
X262013931Y-164155363D03*
X263242894Y-169084465D03*
%TO.C,D19*%
X148655489Y-170226510D03*
X149884452Y-165297408D03*
%TO.C,D57*%
X335600000Y-135720000D03*
X335600000Y-140800000D03*
%TO.C,D43*%
X265689706Y-104493912D03*
X266918669Y-109423014D03*
%TO.C,D18*%
X143549047Y-149371672D03*
X144778010Y-144442570D03*
%TO.C,D40*%
X243578312Y-168751879D03*
X244807275Y-173680981D03*
%TO.C,D29*%
X185571037Y-179540503D03*
X186800000Y-174611401D03*
%TO.C,D22*%
X161729704Y-134322960D03*
X162958667Y-129393858D03*
%TO.C,D2*%
X79300000Y-117720000D03*
X79300000Y-122800000D03*
%TO.C,D63*%
X348200000Y-154720000D03*
X348200000Y-159800000D03*
%TO.C,D45*%
X271001555Y-142332837D03*
X272230518Y-147261939D03*
%TO.C,D9*%
X108300000Y-155800000D03*
X108300000Y-160880000D03*
%TO.C,D59*%
X331300000Y-173720000D03*
X331300000Y-178800000D03*
%TO.C,D50*%
X306747490Y-96757230D03*
X306747490Y-101837230D03*
%TO.C,D12*%
X124858466Y-125129928D03*
X126087429Y-120200826D03*
%TO.C,D58*%
X322200000Y-154800000D03*
X322200000Y-159880000D03*
%TO.C,D44*%
X279989179Y-120510312D03*
X281218142Y-125439414D03*
%TO.C,D36*%
X225142693Y-173348395D03*
X226371656Y-178277497D03*
%TO.C,D24*%
X166970146Y-175308174D03*
X168199109Y-170379072D03*
%TO.C,D35*%
X234130317Y-151525869D03*
X235359280Y-156454971D03*
%TO.C,D4*%
X89300000Y-155720000D03*
X89300000Y-160800000D03*
%TO.C,D49*%
X280449549Y-159558847D03*
X281678512Y-164487949D03*
%TO.C,D10*%
X98800000Y-174800000D03*
X98800000Y-179880000D03*
%TO.C,D60*%
X325800000Y-105800000D03*
X325800000Y-110880000D03*
%TO.C,D47*%
X302800000Y-116720000D03*
X302800000Y-121800000D03*
%TO.C,D11*%
X118800000Y-96300000D03*
X118800000Y-101380000D03*
%TO.C,D41*%
X232663444Y-191053859D03*
X233892407Y-195982961D03*
%TO.C,D23*%
X161984666Y-153968188D03*
X163213629Y-149039086D03*
D11*
%TO.C,U1*%
X38680000Y-96330000D03*
X38680000Y-98870000D03*
X38680000Y-101410000D03*
X38680000Y-103950000D03*
X38680000Y-106490000D03*
X38680000Y-109030000D03*
X38680000Y-111570000D03*
X38680000Y-114110000D03*
X38680000Y-116650000D03*
X38680000Y-119190000D03*
X38680000Y-121730000D03*
X38680000Y-124270000D03*
X53920000Y-96330000D03*
X53920000Y-98870000D03*
X53920000Y-101410000D03*
X53920000Y-103950000D03*
X53920000Y-106490000D03*
X53920000Y-109030000D03*
X53920000Y-111570000D03*
X53920000Y-114110000D03*
X53920000Y-116650000D03*
X53920000Y-119190000D03*
X53920000Y-121730000D03*
X53920000Y-124270000D03*
%TO.C,U2*%
X373680000Y-95330000D03*
X373680000Y-97870000D03*
X373680000Y-100410000D03*
X373680000Y-102950000D03*
X373680000Y-105490000D03*
X373680000Y-108030000D03*
X373680000Y-110570000D03*
X373680000Y-113110000D03*
X373680000Y-115650000D03*
X373680000Y-118190000D03*
X373680000Y-120730000D03*
X373680000Y-123270000D03*
X388920000Y-95330000D03*
X388920000Y-97870000D03*
X388920000Y-100410000D03*
X388920000Y-102950000D03*
X388920000Y-105490000D03*
X388920000Y-108030000D03*
X388920000Y-110570000D03*
X388920000Y-113110000D03*
X388920000Y-115650000D03*
X388920000Y-118190000D03*
X388920000Y-120730000D03*
X388920000Y-123270000D03*
D12*
%TO.C,SW55*%
X312290000Y-100960000D03*
X318640000Y-98420000D03*
%TO.C,SW13*%
X112668251Y-139878957D03*
X119444110Y-138950610D03*
%TO.C,SW52*%
X303490000Y-139060000D03*
X309840000Y-136520000D03*
%TO.C,SW15*%
X119897540Y-180947800D03*
X126673399Y-180019453D03*
%TO.C,SW24*%
X154682349Y-169987437D03*
X161458208Y-169059090D03*
%TO.C,SW64*%
X346740000Y-177160000D03*
X353090000Y-174620000D03*
%TO.C,SW33*%
X212563610Y-140712113D03*
X218110506Y-136711358D03*
%TO.C,SW7*%
X89990000Y-121010000D03*
X96340000Y-118470000D03*
%TO.C,SW45*%
X249967925Y-170652549D03*
X255514821Y-166651794D03*
%TO.C,SW48*%
X277476101Y-144160800D03*
X283022997Y-140160045D03*
%TO.C,SW22*%
X149393652Y-129402438D03*
X156169511Y-128474091D03*
%TO.C,SW29*%
X173166483Y-174596050D03*
X179942342Y-173667703D03*
%TO.C,SW30*%
X182189355Y-117946135D03*
X188965214Y-117017788D03*
%TO.C,SW5*%
X56890000Y-178160000D03*
X63240000Y-175620000D03*
%TO.C,SW44*%
X258991967Y-148769413D03*
X264538863Y-144768658D03*
%TO.C,SW47*%
X286500144Y-122277664D03*
X292047040Y-118276909D03*
%TO.C,SW54*%
X290112045Y-180348540D03*
X295658941Y-176347785D03*
%TO.C,SW19*%
X136198215Y-165378825D03*
X142974074Y-164450478D03*
%TO.C,SW16*%
X126736954Y-104120299D03*
X133512813Y-103191952D03*
%TO.C,SW25*%
X175471735Y-194860051D03*
X182247594Y-193931704D03*
%TO.C,SW28*%
X168120652Y-153704793D03*
X174896511Y-152776446D03*
%TO.C,SW60*%
X340890000Y-100960000D03*
X347240000Y-98420000D03*
%TO.C,SW62*%
X353490000Y-139060000D03*
X359840000Y-136520000D03*
%TO.C,SW42*%
X253704441Y-110821362D03*
X259251337Y-106820607D03*
%TO.C,SW34*%
X231047743Y-136103501D03*
X236594639Y-132102746D03*
%TO.C,SW58*%
X309090000Y-158110000D03*
X315440000Y-155570000D03*
%TO.C,SW14*%
X117714082Y-160770213D03*
X124489941Y-159841866D03*
%TO.C,SW61*%
X351590000Y-120010000D03*
X357940000Y-117470000D03*
%TO.C,SW26*%
X163705221Y-113337523D03*
X170481080Y-112409176D03*
%TO.C,SW27*%
X167877786Y-134011050D03*
X174653645Y-133082703D03*
%TO.C,SW11*%
X105490000Y-99760000D03*
X111840000Y-97220000D03*
%TO.C,SW20*%
X147684637Y-187953926D03*
X154460496Y-187025579D03*
%TO.C,SW43*%
X268016010Y-126886276D03*
X273562906Y-122885521D03*
%TO.C,SW36*%
X212999657Y-179869773D03*
X218546553Y-175869018D03*
%TO.C,SW46*%
X272188574Y-106212750D03*
X277735470Y-102211995D03*
%TO.C,SW12*%
X112425385Y-120185214D03*
X119201244Y-119256867D03*
%TO.C,SW1*%
X67390000Y-101960000D03*
X73740000Y-99420000D03*
%TO.C,SW59*%
X318160000Y-177160000D03*
X324510000Y-174620000D03*
%TO.C,SW18*%
X131152385Y-144487569D03*
X137928244Y-143559222D03*
%TO.C,SW23*%
X149636519Y-149096181D03*
X156412378Y-148167834D03*
%TO.C,SW8*%
X90490000Y-140060000D03*
X96840000Y-137520000D03*
%TO.C,SW2*%
X66190000Y-121010000D03*
X72540000Y-118470000D03*
%TO.C,SW3*%
X64290000Y-140060000D03*
X70640000Y-137520000D03*
%TO.C,SW38*%
X249531877Y-131494888D03*
X255078773Y-127494133D03*
%TO.C,SW51*%
X308740000Y-120010000D03*
X315090000Y-117470000D03*
%TO.C,SW35*%
X222023700Y-157986637D03*
X227570596Y-153985882D03*
%TO.C,SW57*%
X322540000Y-139060000D03*
X328890000Y-136520000D03*
%TO.C,SW53*%
X286936192Y-161435325D03*
X292483088Y-157434570D03*
%TO.C,SW65*%
X255428919Y-188923098D03*
X260975815Y-184922343D03*
%TO.C,SW32*%
X216736174Y-120038586D03*
X222283070Y-116037831D03*
%TO.C,SW21*%
X145221088Y-108728911D03*
X151996947Y-107800564D03*
%TO.C,SW10*%
X85490000Y-178160000D03*
X91840000Y-175620000D03*
%TO.C,SW4*%
X63990000Y-159110000D03*
X70340000Y-156570000D03*
%TO.C,SW9*%
X94940000Y-159110000D03*
X101290000Y-156570000D03*
%TO.C,SW39*%
X240507834Y-153378025D03*
X246054730Y-149377270D03*
%TO.C,SW50*%
X293187490Y-99997231D03*
X299537490Y-97457231D03*
%TO.C,SW41*%
X220775078Y-197563271D03*
X226321974Y-193562516D03*
%TO.C,SW56*%
X327790000Y-120010000D03*
X334140000Y-117470000D03*
%TO.C,SW31*%
X186361919Y-138619662D03*
X193137778Y-137691315D03*
%TO.C,SW17*%
X130909518Y-124793826D03*
X137685377Y-123865479D03*
%TO.C,SW6*%
X86440000Y-101960000D03*
X92790000Y-99420000D03*
%TO.C,SW63*%
X335290000Y-158110000D03*
X341640000Y-155570000D03*
%TO.C,SW37*%
X235220307Y-115429974D03*
X240767203Y-111429219D03*
%TO.C,SW49*%
X268452058Y-166043937D03*
X273998954Y-162043182D03*
%TO.C,SW40*%
X231483791Y-175261161D03*
X237030687Y-171260406D03*
M02*
